%TF.GenerationSoftware,Altium Limited,Altium Designer,21.8.1 (53)*%
G04 Layer_Color=65535*
%FSLAX42Y42*%
%MOMM*%
%TF.SameCoordinates,15406810-5A1E-4B15-B108-3B776D23A55A*%
%TF.FilePolarity,Positive*%
%TF.FileFunction,Legend,Top*%
%TF.Part,Single*%
G01*
G75*
%TA.AperFunction,NonConductor*%
%ADD60C,0.20*%
%ADD61C,0.15*%
%ADD71C,0.60*%
D60*
X20270Y16480D02*
G03*
X20270Y16480I-10J0D01*
G01*
X19750Y23520D02*
G03*
X19750Y23520I-10J0D01*
G01*
X24057Y20620D02*
X24044Y20686D01*
X24050Y20653D01*
X24148Y20673D01*
X24041Y20787D02*
X24027Y20768D01*
X24034Y20735D01*
X24054Y20722D01*
X24070Y20725D01*
X24083Y20745D01*
X24076Y20777D01*
X24090Y20797D01*
X24106Y20800D01*
X24126Y20787D01*
X24132Y20754D01*
X24119Y20735D01*
X24034Y20820D02*
X24014Y20833D01*
X24008Y20866D01*
X24021Y20885D01*
X24037Y20888D01*
X24057Y20875D01*
X24060Y20859D01*
X24057Y20875D01*
X24070Y20895D01*
X24086Y20898D01*
X24106Y20885D01*
X24113Y20852D01*
X24099Y20833D01*
X24083Y21000D02*
X24096Y20934D01*
X24018Y20987D01*
X24002Y20983D01*
X23988Y20964D01*
X23995Y20931D01*
X24015Y20918D01*
X23858Y21397D02*
X23832Y21459D01*
X23845Y21428D01*
X23937Y21466D01*
X23809Y21557D02*
X23800Y21535D01*
X23813Y21505D01*
X23835Y21496D01*
X23850Y21502D01*
X23859Y21524D01*
X23846Y21555D01*
X23855Y21576D01*
X23871Y21583D01*
X23893Y21574D01*
X23905Y21543D01*
X23896Y21521D01*
X23796Y21588D02*
X23775Y21597D01*
X23762Y21628D01*
X23771Y21650D01*
X23786Y21656D01*
X23808Y21647D01*
X23814Y21632D01*
X23808Y21647D01*
X23817Y21669D01*
X23833Y21675D01*
X23854Y21666D01*
X23867Y21635D01*
X23858Y21614D01*
X23835Y21712D02*
X23822Y21743D01*
X23829Y21728D01*
X23736Y21689D01*
X23758Y21680D01*
X23500Y22130D02*
X23463Y22185D01*
X23482Y22158D01*
X23565Y22213D01*
X23422Y22278D02*
X23417Y22255D01*
X23435Y22227D01*
X23459Y22222D01*
X23472Y22231D01*
X23477Y22255D01*
X23459Y22282D01*
X23463Y22305D01*
X23477Y22315D01*
X23500Y22310D01*
X23519Y22282D01*
X23514Y22259D01*
X23403Y22305D02*
X23380Y22310D01*
X23361Y22338D01*
X23366Y22361D01*
X23380Y22370D01*
X23403Y22365D01*
X23412Y22352D01*
X23403Y22365D01*
X23408Y22389D01*
X23421Y22398D01*
X23445Y22393D01*
X23463Y22365D01*
X23458Y22342D01*
X23347Y22388D02*
X23324Y22393D01*
X23306Y22421D01*
X23310Y22444D01*
X23366Y22481D01*
X23389Y22476D01*
X23408Y22449D01*
X23403Y22425D01*
X23347Y22388D01*
X22445Y23297D02*
X22389Y23334D01*
X22417Y23315D01*
X22472Y23398D01*
X22315Y23403D02*
X22320Y23380D01*
X22348Y23361D01*
X22371Y23366D01*
X22380Y23380D01*
X22375Y23403D01*
X22348Y23421D01*
X22343Y23445D01*
X22352Y23458D01*
X22375Y23463D01*
X22403Y23445D01*
X22408Y23421D01*
X22279Y23528D02*
X22334Y23491D01*
X22241Y23472D01*
X22232Y23459D01*
X22237Y23435D01*
X22265Y23417D01*
X22288Y23422D01*
X22205Y23477D02*
X22181Y23472D01*
X22154Y23491D01*
X22149Y23514D01*
X22158Y23528D01*
X22181Y23533D01*
X22177Y23556D01*
X22186Y23570D01*
X22209Y23574D01*
X22237Y23556D01*
X22242Y23533D01*
X22232Y23519D01*
X22209Y23514D01*
X22214Y23491D01*
X22205Y23477D01*
X22209Y23514D02*
X22181Y23533D01*
X21750Y23714D02*
X21689Y23739D01*
X21719Y23726D01*
X21758Y23819D01*
X21603Y23793D02*
X21612Y23771D01*
X21642Y23758D01*
X21664Y23767D01*
X21671Y23783D01*
X21662Y23804D01*
X21631Y23817D01*
X21622Y23839D01*
X21628Y23854D01*
X21650Y23863D01*
X21681Y23851D01*
X21690Y23829D01*
X21542Y23908D02*
X21604Y23883D01*
X21517Y23846D01*
X21510Y23831D01*
X21519Y23809D01*
X21550Y23797D01*
X21572Y23806D01*
X21473Y23828D02*
X21412Y23854D01*
X21418Y23869D01*
X21505Y23905D01*
X21511Y23921D01*
X20980Y23985D02*
X20915Y23998D01*
X20947Y23992D01*
X20967Y24090D01*
X20820Y24034D02*
X20833Y24014D01*
X20866Y24008D01*
X20885Y24021D01*
X20888Y24037D01*
X20875Y24057D01*
X20843Y24063D01*
X20830Y24083D01*
X20833Y24099D01*
X20852Y24113D01*
X20885Y24106D01*
X20898Y24086D01*
X20738Y24135D02*
X20803Y24122D01*
X20725Y24070D01*
X20722Y24054D01*
X20735Y24034D01*
X20768Y24027D01*
X20787Y24041D01*
X20620Y24057D02*
X20656Y24067D01*
X20696Y24093D01*
X20702Y24125D01*
X20689Y24145D01*
X20656Y24152D01*
X20637Y24138D01*
X20633Y24122D01*
X20647Y24103D01*
X20696Y24093D01*
X20193Y24090D02*
X20127D01*
X20160D01*
Y24190D01*
X20027Y24107D02*
X20043Y24090D01*
X20077D01*
X20093Y24107D01*
Y24123D01*
X20077Y24140D01*
X20043D01*
X20027Y24157D01*
Y24173D01*
X20043Y24190D01*
X20077D01*
X20093Y24173D01*
X19927Y24190D02*
X19993D01*
X19927Y24123D01*
Y24107D01*
X19943Y24090D01*
X19977D01*
X19993Y24107D01*
X19827Y24090D02*
X19893D01*
Y24140D01*
X19860Y24123D01*
X19843D01*
X19827Y24140D01*
Y24173D01*
X19843Y24190D01*
X19877D01*
X19893Y24173D01*
X19380Y24057D02*
X19314Y24044D01*
X19347Y24050D01*
X19327Y24148D01*
X19213Y24041D02*
X19232Y24027D01*
X19265Y24034D01*
X19278Y24054D01*
X19275Y24070D01*
X19255Y24083D01*
X19223Y24076D01*
X19203Y24090D01*
X19200Y24106D01*
X19213Y24126D01*
X19246Y24132D01*
X19265Y24119D01*
X19099Y24103D02*
X19164Y24116D01*
X19112Y24037D01*
X19115Y24021D01*
X19134Y24008D01*
X19167Y24014D01*
X19180Y24034D01*
X19017Y24087D02*
X19036Y23988D01*
X19076Y24047D01*
X19010Y24034D01*
X18608Y23864D02*
X18547Y23838D01*
X18578Y23851D01*
X18539Y23944D01*
X18448Y23816D02*
X18470Y23807D01*
X18501Y23819D01*
X18510Y23841D01*
X18503Y23856D01*
X18482Y23866D01*
X18451Y23853D01*
X18429Y23862D01*
X18423Y23877D01*
X18432Y23899D01*
X18462Y23912D01*
X18484Y23903D01*
X18324Y23854D02*
X18385Y23880D01*
X18349Y23793D01*
X18356Y23777D01*
X18378Y23768D01*
X18408Y23781D01*
X18417Y23803D01*
X18325Y23765D02*
X18316Y23743D01*
X18285Y23730D01*
X18263Y23739D01*
X18257Y23754D01*
X18266Y23776D01*
X18281Y23783D01*
X18266Y23776D01*
X18244Y23785D01*
X18238Y23801D01*
X18247Y23822D01*
X18278Y23835D01*
X18299Y23826D01*
X17880Y23510D02*
X17825Y23473D01*
X17852Y23492D01*
X17797Y23575D01*
X17732Y23432D02*
X17755Y23427D01*
X17783Y23445D01*
X17788Y23469D01*
X17779Y23482D01*
X17755Y23487D01*
X17728Y23469D01*
X17705Y23473D01*
X17695Y23487D01*
X17700Y23510D01*
X17728Y23529D01*
X17751Y23524D01*
X17603Y23445D02*
X17658Y23482D01*
X17640Y23390D01*
X17649Y23376D01*
X17672Y23371D01*
X17700Y23390D01*
X17705Y23413D01*
X17520Y23390D02*
X17575Y23427D01*
X17557Y23334D01*
X17566Y23320D01*
X17589Y23316D01*
X17617Y23334D01*
X17622Y23357D01*
X17743Y22552D02*
X17696Y22505D01*
X17720Y22529D01*
X17649Y22600D01*
X17614Y22446D02*
X17637Y22446D01*
X17661Y22470D01*
Y22494D01*
X17649Y22505D01*
X17625Y22505D01*
X17602Y22482D01*
X17578Y22482D01*
X17566Y22494D01*
Y22517D01*
X17590Y22541D01*
X17614D01*
X17484Y22435D02*
X17531Y22482D01*
Y22388D01*
X17543Y22376D01*
X17566Y22376D01*
X17590Y22399D01*
Y22423D01*
X17460Y22411D02*
X17437Y22388D01*
X17449Y22399D01*
X17519Y22329D01*
Y22352D01*
X16713Y22435D02*
X16676Y22379D01*
X16695Y22407D01*
X16612Y22462D01*
X16607Y22305D02*
X16630Y22310D01*
X16649Y22338D01*
X16644Y22361D01*
X16630Y22370D01*
X16607Y22365D01*
X16589Y22338D01*
X16565Y22333D01*
X16552Y22342D01*
X16547Y22365D01*
X16565Y22393D01*
X16589Y22398D01*
X16482Y22269D02*
X16519Y22324D01*
X16538Y22231D01*
X16551Y22222D01*
X16575Y22227D01*
X16593Y22255D01*
X16588Y22278D01*
X16533Y22195D02*
X16538Y22171D01*
X16519Y22144D01*
X16496Y22139D01*
X16440Y22176D01*
X16436Y22199D01*
X16454Y22227D01*
X16477Y22232D01*
X16533Y22195D01*
X16293Y21742D02*
X16268Y21681D01*
X16280Y21712D01*
X16188Y21750D01*
X16214Y21595D02*
X16236Y21604D01*
X16248Y21635D01*
X16239Y21657D01*
X16224Y21663D01*
X16202Y21654D01*
X16190Y21623D01*
X16168Y21614D01*
X16152Y21620D01*
X16143Y21642D01*
X16156Y21673D01*
X16178Y21682D01*
X16124Y21596D02*
X16112Y21565D01*
X16118Y21581D01*
X16210Y21542D01*
X16201Y21564D01*
X16108Y21513D02*
X16086Y21504D01*
X16073Y21473D01*
X16082Y21451D01*
X16144Y21426D01*
X16166Y21435D01*
X16178Y21465D01*
X16169Y21487D01*
X16154Y21494D01*
X16132Y21485D01*
X16113Y21438D01*
X16033Y20982D02*
X16020Y20916D01*
X16027Y20949D01*
X15929Y20969D01*
X15984Y20822D02*
X16004Y20835D01*
X16010Y20867D01*
X15997Y20887D01*
X15981Y20890D01*
X15961Y20877D01*
X15955Y20845D01*
X15935Y20831D01*
X15919Y20835D01*
X15906Y20854D01*
X15912Y20887D01*
X15932Y20900D01*
X15896Y20805D02*
X15890Y20773D01*
X15893Y20789D01*
X15991Y20769D01*
X15978Y20789D01*
X15962Y20707D02*
X15975Y20688D01*
X15968Y20655D01*
X15949Y20642D01*
X15932Y20645D01*
X15919Y20665D01*
X15900Y20652D01*
X15883Y20655D01*
X15870Y20675D01*
X15877Y20707D01*
X15896Y20720D01*
X15913Y20717D01*
X15926Y20697D01*
X15945Y20711D01*
X15962Y20707D01*
X15926Y20697D02*
X15919Y20665D01*
X15910Y20185D02*
Y20118D01*
Y20152D01*
X15810D01*
X15893Y20018D02*
X15910Y20035D01*
Y20068D01*
X15893Y20085D01*
X15877D01*
X15860Y20068D01*
Y20035D01*
X15843Y20018D01*
X15827D01*
X15810Y20035D01*
Y20068D01*
X15827Y20085D01*
X15810Y19985D02*
Y19952D01*
Y19968D01*
X15910D01*
X15893Y19985D01*
X15910Y19902D02*
Y19835D01*
X15893D01*
X15827Y19902D01*
X15810D01*
X15945Y19401D02*
X15958Y19336D01*
X15951Y19369D01*
X15853Y19349D01*
X15961Y19235D02*
X15974Y19254D01*
X15968Y19287D01*
X15948Y19300D01*
X15932Y19297D01*
X15919Y19277D01*
X15925Y19245D01*
X15912Y19225D01*
X15896Y19222D01*
X15876Y19235D01*
X15870Y19267D01*
X15883Y19287D01*
X15886Y19186D02*
X15892Y19153D01*
X15889Y19169D01*
X15987Y19189D01*
X15968Y19202D01*
X16013Y19058D02*
X15990Y19088D01*
X15951Y19114D01*
X15918Y19107D01*
X15905Y19088D01*
X15912Y19055D01*
X15931Y19042D01*
X15948Y19045D01*
X15961Y19065D01*
X15951Y19114D01*
X16139Y18621D02*
X16165Y18559D01*
X16152Y18590D01*
X16060Y18552D01*
X16188Y18460D02*
X16197Y18482D01*
X16184Y18513D01*
X16162Y18522D01*
X16147Y18516D01*
X16138Y18494D01*
X16150Y18463D01*
X16141Y18441D01*
X16126Y18435D01*
X16104Y18444D01*
X16092Y18475D01*
X16101Y18497D01*
X16123Y18398D02*
X16136Y18367D01*
X16130Y18382D01*
X16222Y18421D01*
X16200Y18430D01*
X16273Y18298D02*
X16248Y18359D01*
X16201Y18340D01*
X16230Y18316D01*
X16236Y18300D01*
X16227Y18278D01*
X16196Y18266D01*
X16174Y18275D01*
X16162Y18305D01*
X16171Y18327D01*
X16494Y17883D02*
X16531Y17828D01*
X16513Y17856D01*
X16430Y17800D01*
X16573Y17735D02*
X16578Y17759D01*
X16559Y17786D01*
X16536Y17791D01*
X16522Y17782D01*
X16518Y17758D01*
X16536Y17731D01*
X16532Y17708D01*
X16518Y17698D01*
X16495Y17703D01*
X16476Y17731D01*
X16481Y17754D01*
X16522Y17661D02*
X16541Y17634D01*
X16532Y17648D01*
X16615Y17703D01*
X16592Y17708D01*
X16596Y17551D02*
X16679Y17606D01*
X16610Y17620D01*
X16647Y17565D01*
X17572Y16709D02*
X17628Y16672D01*
X17600Y16690D01*
X17544Y16607D01*
X17702Y16602D02*
X17697Y16625D01*
X17669Y16644D01*
X17646Y16639D01*
X17637Y16626D01*
X17642Y16602D01*
X17669Y16584D01*
X17674Y16561D01*
X17665Y16547D01*
X17641Y16542D01*
X17614Y16561D01*
X17609Y16584D01*
X17683Y16515D02*
X17711Y16496D01*
X17697Y16505D01*
X17752Y16588D01*
X17729Y16584D01*
X17808Y16431D02*
X17752Y16468D01*
X17845Y16487D01*
X17854Y16501D01*
X17849Y16524D01*
X17822Y16542D01*
X17799Y16538D01*
X18283Y16287D02*
X18344Y16261D01*
X18314Y16274D01*
X18275Y16182D01*
X18430Y16208D02*
X18421Y16229D01*
X18391Y16242D01*
X18369Y16233D01*
X18362Y16218D01*
X18372Y16196D01*
X18402Y16183D01*
X18411Y16161D01*
X18405Y16146D01*
X18383Y16137D01*
X18352Y16150D01*
X18343Y16172D01*
X18429Y16118D02*
X18460Y16105D01*
X18445Y16112D01*
X18483Y16204D01*
X18461Y16195D01*
X18506Y16086D02*
X18537Y16073D01*
X18522Y16080D01*
X18560Y16172D01*
X18538Y16163D01*
X19038Y16023D02*
X19104Y16010D01*
X19071Y16017D01*
X19051Y15919D01*
X19198Y15974D02*
X19185Y15994D01*
X19153Y16000D01*
X19133Y15987D01*
X19130Y15971D01*
X19143Y15951D01*
X19175Y15945D01*
X19189Y15925D01*
X19185Y15909D01*
X19166Y15896D01*
X19133Y15902D01*
X19120Y15922D01*
X19215Y15886D02*
X19247Y15880D01*
X19231Y15883D01*
X19251Y15981D01*
X19231Y15968D01*
X19313Y15952D02*
X19332Y15965D01*
X19365Y15958D01*
X19378Y15939D01*
X19365Y15873D01*
X19345Y15860D01*
X19313Y15867D01*
X19300Y15886D01*
X19313Y15952D01*
X19867Y15900D02*
X19933D01*
X19900D01*
Y15800D01*
X20033Y15883D02*
X20017Y15900D01*
X19983D01*
X19967Y15883D01*
Y15867D01*
X19983Y15850D01*
X20017D01*
X20033Y15833D01*
Y15817D01*
X20017Y15800D01*
X19983D01*
X19967Y15817D01*
X20067D02*
X20083Y15800D01*
X20117D01*
X20133Y15817D01*
Y15883D01*
X20117Y15900D01*
X20083D01*
X20067Y15883D01*
Y15867D01*
X20083Y15850D01*
X20133D01*
X20660Y15963D02*
X20725Y15976D01*
X20692Y15970D01*
X20712Y15871D01*
X20826Y15979D02*
X20807Y15992D01*
X20774Y15986D01*
X20761Y15966D01*
X20764Y15950D01*
X20784Y15937D01*
X20816Y15943D01*
X20836Y15930D01*
X20839Y15914D01*
X20826Y15894D01*
X20793Y15888D01*
X20774Y15901D01*
X20859Y15986D02*
X20872Y16005D01*
X20905Y16012D01*
X20924Y15999D01*
X20927Y15982D01*
X20914Y15963D01*
X20934Y15950D01*
X20937Y15933D01*
X20924Y15914D01*
X20891Y15907D01*
X20872Y15920D01*
X20869Y15937D01*
X20882Y15956D01*
X20862Y15969D01*
X20859Y15986D01*
X20882Y15956D02*
X20914Y15963D01*
X21448Y16175D02*
X21509Y16201D01*
X21479Y16188D01*
X21517Y16096D01*
X21608Y16224D02*
X21586Y16233D01*
X21555Y16220D01*
X21546Y16198D01*
X21553Y16183D01*
X21575Y16174D01*
X21605Y16186D01*
X21627Y16177D01*
X21634Y16162D01*
X21625Y16140D01*
X21594Y16127D01*
X21572Y16136D01*
X21632Y16252D02*
X21694Y16277D01*
X21700Y16262D01*
X21664Y16175D01*
X21671Y16159D01*
X22181Y16528D02*
X22237Y16565D01*
X22209Y16546D01*
X22265Y16463D01*
X22329Y16606D02*
X22306Y16611D01*
X22278Y16592D01*
X22274Y16569D01*
X22283Y16555D01*
X22306Y16551D01*
X22334Y16569D01*
X22357Y16565D01*
X22366Y16551D01*
X22362Y16528D01*
X22334Y16509D01*
X22311Y16514D01*
X22403Y16676D02*
X22385Y16643D01*
X22375Y16597D01*
X22394Y16569D01*
X22417Y16565D01*
X22445Y16583D01*
X22449Y16606D01*
X22440Y16620D01*
X22417Y16625D01*
X22375Y16597D01*
X22330Y17501D02*
X22378Y17548D01*
X22354Y17525D01*
X22425Y17454D01*
X22460Y17607D02*
X22436Y17607D01*
X22413Y17584D01*
Y17560D01*
X22425Y17548D01*
X22448Y17548D01*
X22472Y17572D01*
X22495Y17572D01*
X22507Y17560D01*
Y17536D01*
X22484Y17513D01*
X22460D01*
X22519Y17690D02*
X22472Y17642D01*
X22507Y17607D01*
X22519Y17642D01*
X22531Y17654D01*
X22554D01*
X22578Y17631D01*
X22578Y17607D01*
X22554Y17584D01*
X22531D01*
X23334Y17607D02*
X23371Y17662D01*
X23353Y17635D01*
X23436Y17579D01*
X23441Y17736D02*
X23418Y17732D01*
X23399Y17704D01*
X23404Y17681D01*
X23418Y17672D01*
X23441Y17676D01*
X23459Y17704D01*
X23482Y17708D01*
X23496Y17699D01*
X23501Y17676D01*
X23482Y17648D01*
X23459Y17644D01*
X23556Y17759D02*
X23473Y17815D01*
X23487Y17745D01*
X23524Y17801D01*
X23733Y18306D02*
X23758Y18368D01*
X23746Y18337D01*
X23838Y18299D01*
X23812Y18454D02*
X23790Y18445D01*
X23777Y18414D01*
X23786Y18392D01*
X23802Y18386D01*
X23824Y18395D01*
X23836Y18425D01*
X23858Y18434D01*
X23874Y18428D01*
X23883Y18406D01*
X23870Y18375D01*
X23848Y18366D01*
X23825Y18484D02*
X23816Y18506D01*
X23828Y18537D01*
X23850Y18546D01*
X23866Y18540D01*
X23875Y18518D01*
X23868Y18502D01*
X23875Y18518D01*
X23896Y18527D01*
X23912Y18520D01*
X23921Y18499D01*
X23908Y18468D01*
X23886Y18459D01*
X23985Y19059D02*
X23998Y19124D01*
X23991Y19092D01*
X24090Y19072D01*
X24034Y19219D02*
X24014Y19206D01*
X24008Y19173D01*
X24021Y19154D01*
X24037Y19151D01*
X24057Y19164D01*
X24063Y19196D01*
X24083Y19209D01*
X24099Y19206D01*
X24112Y19187D01*
X24106Y19154D01*
X24086Y19141D01*
X24135Y19301D02*
X24122Y19236D01*
X24070Y19314D01*
X24053Y19317D01*
X24034Y19304D01*
X24027Y19271D01*
X24040Y19252D01*
X24100Y19883D02*
Y19950D01*
Y19917D01*
X24200D01*
X24117Y20050D02*
X24100Y20033D01*
Y20000D01*
X24117Y19983D01*
X24133D01*
X24150Y20000D01*
Y20033D01*
X24167Y20050D01*
X24183D01*
X24200Y20033D01*
Y20000D01*
X24183Y19983D01*
X24200Y20083D02*
Y20117D01*
Y20100D01*
X24100D01*
X24117Y20083D01*
X23337Y20450D02*
Y20550D01*
X23387D01*
X23403Y20533D01*
Y20500D01*
X23387Y20483D01*
X23337D01*
X23370D02*
X23403Y20450D01*
X23437Y20533D02*
X23453Y20550D01*
X23487D01*
X23503Y20533D01*
Y20517D01*
X23487Y20500D01*
X23470D01*
X23487D01*
X23503Y20483D01*
Y20467D01*
X23487Y20450D01*
X23453D01*
X23437Y20467D01*
X23603Y20450D02*
X23537D01*
X23603Y20517D01*
Y20533D01*
X23587Y20550D01*
X23553D01*
X23537Y20533D01*
X23193Y21160D02*
Y21260D01*
X23243D01*
X23260Y21243D01*
Y21210D01*
X23243Y21193D01*
X23193D01*
X23227D02*
X23260Y21160D01*
X23293Y21243D02*
X23310Y21260D01*
X23343D01*
X23360Y21243D01*
Y21227D01*
X23343Y21210D01*
X23327D01*
X23343D01*
X23360Y21193D01*
Y21177D01*
X23343Y21160D01*
X23310D01*
X23293Y21177D01*
X23393Y21160D02*
X23427D01*
X23410D01*
Y21260D01*
X23393Y21243D01*
X22827Y21780D02*
Y21880D01*
X22877D01*
X22893Y21863D01*
Y21830D01*
X22877Y21813D01*
X22827D01*
X22860D02*
X22893Y21780D01*
X22927Y21863D02*
X22943Y21880D01*
X22977D01*
X22993Y21863D01*
Y21847D01*
X22977Y21830D01*
X22960D01*
X22977D01*
X22993Y21813D01*
Y21797D01*
X22977Y21780D01*
X22943D01*
X22927Y21797D01*
X23027Y21863D02*
X23043Y21880D01*
X23077D01*
X23093Y21863D01*
Y21797D01*
X23077Y21780D01*
X23043D01*
X23027Y21797D01*
Y21863D01*
X22621Y22131D02*
Y22231D01*
X22671D01*
X22687Y22214D01*
Y22181D01*
X22671Y22164D01*
X22621D01*
X22654D02*
X22687Y22131D01*
X22787D02*
X22721D01*
X22787Y22197D01*
Y22214D01*
X22770Y22231D01*
X22737D01*
X22721Y22214D01*
X22820Y22148D02*
X22837Y22131D01*
X22870D01*
X22887Y22148D01*
Y22214D01*
X22870Y22231D01*
X22837D01*
X22820Y22214D01*
Y22197D01*
X22837Y22181D01*
X22887D01*
X22110Y22923D02*
X22210D01*
Y22873D01*
X22193Y22857D01*
X22160D01*
X22143Y22873D01*
Y22923D01*
Y22890D02*
X22110Y22857D01*
Y22757D02*
Y22823D01*
X22177Y22757D01*
X22193D01*
X22210Y22773D01*
Y22807D01*
X22193Y22823D01*
Y22723D02*
X22210Y22707D01*
Y22673D01*
X22193Y22657D01*
X22177D01*
X22160Y22673D01*
X22143Y22657D01*
X22127D01*
X22110Y22673D01*
Y22707D01*
X22127Y22723D01*
X22143D01*
X22160Y22707D01*
X22177Y22723D01*
X22193D01*
X22160Y22707D02*
Y22673D01*
X21560Y23233D02*
X21660D01*
Y23183D01*
X21643Y23167D01*
X21610D01*
X21593Y23183D01*
Y23233D01*
Y23200D02*
X21560Y23167D01*
Y23067D02*
Y23133D01*
X21627Y23067D01*
X21643D01*
X21660Y23083D01*
Y23117D01*
X21643Y23133D01*
X21660Y23033D02*
Y22967D01*
X21643D01*
X21577Y23033D01*
X21560D01*
X20900Y23513D02*
X21000D01*
Y23463D01*
X20983Y23447D01*
X20950D01*
X20933Y23463D01*
Y23513D01*
Y23480D02*
X20900Y23447D01*
Y23347D02*
Y23413D01*
X20967Y23347D01*
X20983D01*
X21000Y23363D01*
Y23397D01*
X20983Y23413D01*
X21000Y23247D02*
X20983Y23280D01*
X20950Y23313D01*
X20917D01*
X20900Y23297D01*
Y23263D01*
X20917Y23247D01*
X20933D01*
X20950Y23263D01*
Y23313D01*
X19730Y23983D02*
X19830D01*
Y23933D01*
X19813Y23917D01*
X19780D01*
X19763Y23933D01*
Y23983D01*
Y23950D02*
X19730Y23917D01*
Y23817D02*
Y23883D01*
X19797Y23817D01*
X19813D01*
X19830Y23833D01*
Y23867D01*
X19813Y23883D01*
X19830Y23717D02*
Y23783D01*
X19780D01*
X19797Y23750D01*
Y23733D01*
X19780Y23717D01*
X19747D01*
X19730Y23733D01*
Y23767D01*
X19747Y23783D01*
X19400Y23603D02*
X19500D01*
Y23553D01*
X19483Y23537D01*
X19450D01*
X19433Y23553D01*
Y23603D01*
Y23570D02*
X19400Y23537D01*
Y23437D02*
Y23503D01*
X19467Y23437D01*
X19483D01*
X19500Y23453D01*
Y23487D01*
X19483Y23503D01*
X19400Y23353D02*
X19500D01*
X19450Y23403D01*
Y23337D01*
X18760Y23413D02*
X18860D01*
Y23363D01*
X18843Y23347D01*
X18810D01*
X18793Y23363D01*
Y23413D01*
Y23380D02*
X18760Y23347D01*
Y23247D02*
Y23313D01*
X18827Y23247D01*
X18843D01*
X18860Y23263D01*
Y23297D01*
X18843Y23313D01*
Y23213D02*
X18860Y23197D01*
Y23163D01*
X18843Y23147D01*
X18827D01*
X18810Y23163D01*
Y23180D01*
Y23163D01*
X18793Y23147D01*
X18777D01*
X18760Y23163D01*
Y23197D01*
X18777Y23213D01*
X18210Y23119D02*
X18281Y23190D01*
X18316Y23154D01*
Y23131D01*
X18293Y23107D01*
X18269D01*
X18234Y23142D01*
X18258Y23119D02*
Y23072D01*
X18328Y23001D02*
X18281Y23048D01*
X18375D01*
X18387Y23060D01*
X18387Y23084D01*
X18364Y23107D01*
X18340D01*
X18399Y22930D02*
X18352Y22978D01*
X18446D01*
X18458Y22989D01*
X18458Y23013D01*
X18434Y23036D01*
X18411D01*
X17862Y22867D02*
X17933Y22938D01*
X17968Y22902D01*
Y22879D01*
X17945Y22855D01*
X17921D01*
X17886Y22891D01*
X17909Y22867D02*
Y22820D01*
X17980Y22749D02*
X17933Y22796D01*
X18027D01*
X18039Y22808D01*
X18039Y22832D01*
X18015Y22855D01*
X17992D01*
X18004Y22726D02*
X18027Y22702D01*
X18015Y22714D01*
X18086Y22785D01*
X18062D01*
X16997Y21980D02*
Y22080D01*
X17047D01*
X17063Y22063D01*
Y22030D01*
X17047Y22013D01*
X16997D01*
X17030D02*
X17063Y21980D01*
X17163D02*
X17097D01*
X17163Y22047D01*
Y22063D01*
X17147Y22080D01*
X17113D01*
X17097Y22063D01*
X17197D02*
X17213Y22080D01*
X17247D01*
X17263Y22063D01*
Y21997D01*
X17247Y21980D01*
X17213D01*
X17197Y21997D01*
Y22063D01*
X16765Y21550D02*
Y21650D01*
X16815D01*
X16832Y21633D01*
Y21600D01*
X16815Y21583D01*
X16765D01*
X16798D02*
X16832Y21550D01*
X16865D02*
X16898D01*
X16882D01*
Y21650D01*
X16865Y21633D01*
X16948Y21567D02*
X16965Y21550D01*
X16998D01*
X17015Y21567D01*
Y21633D01*
X16998Y21650D01*
X16965D01*
X16948Y21633D01*
Y21617D01*
X16965Y21600D01*
X17015D01*
X16515Y20870D02*
Y20970D01*
X16565D01*
X16582Y20953D01*
Y20920D01*
X16565Y20903D01*
X16515D01*
X16548D02*
X16582Y20870D01*
X16615D02*
X16648D01*
X16632D01*
Y20970D01*
X16615Y20953D01*
X16698D02*
X16715Y20970D01*
X16748D01*
X16765Y20953D01*
Y20937D01*
X16748Y20920D01*
X16765Y20903D01*
Y20887D01*
X16748Y20870D01*
X16715D01*
X16698Y20887D01*
Y20903D01*
X16715Y20920D01*
X16698Y20937D01*
Y20953D01*
X16715Y20920D02*
X16748D01*
X16385Y20160D02*
Y20260D01*
X16435D01*
X16452Y20243D01*
Y20210D01*
X16435Y20193D01*
X16385D01*
X16418D02*
X16452Y20160D01*
X16485D02*
X16518D01*
X16502D01*
Y20260D01*
X16485Y20243D01*
X16568Y20260D02*
X16635D01*
Y20243D01*
X16568Y20177D01*
Y20160D01*
X16415Y19460D02*
Y19560D01*
X16465D01*
X16482Y19543D01*
Y19510D01*
X16465Y19493D01*
X16415D01*
X16448D02*
X16482Y19460D01*
X16515D02*
X16548D01*
X16532D01*
Y19560D01*
X16515Y19543D01*
X16665Y19560D02*
X16632Y19543D01*
X16598Y19510D01*
Y19477D01*
X16615Y19460D01*
X16648D01*
X16665Y19477D01*
Y19493D01*
X16648Y19510D01*
X16598D01*
X16575Y18770D02*
Y18870D01*
X16625D01*
X16642Y18853D01*
Y18820D01*
X16625Y18803D01*
X16575D01*
X16608D02*
X16642Y18770D01*
X16675D02*
X16708D01*
X16692D01*
Y18870D01*
X16675Y18853D01*
X16825Y18870D02*
X16758D01*
Y18820D01*
X16792Y18837D01*
X16808D01*
X16825Y18820D01*
Y18787D01*
X16808Y18770D01*
X16775D01*
X16758Y18787D01*
X16795Y18200D02*
Y18300D01*
X16845D01*
X16862Y18283D01*
Y18250D01*
X16845Y18233D01*
X16795D01*
X16828D02*
X16862Y18200D01*
X16895D02*
X16928D01*
X16912D01*
Y18300D01*
X16895Y18283D01*
X17028Y18200D02*
Y18300D01*
X16978Y18250D01*
X17045D01*
X17031Y17829D02*
Y17929D01*
X17081D01*
X17098Y17912D01*
Y17879D01*
X17081Y17863D01*
X17031D01*
X17065D02*
X17098Y17829D01*
X17131D02*
X17165D01*
X17148D01*
Y17929D01*
X17131Y17912D01*
X17214D02*
X17231Y17929D01*
X17264D01*
X17281Y17912D01*
Y17896D01*
X17264Y17879D01*
X17248D01*
X17264D01*
X17281Y17863D01*
Y17846D01*
X17264Y17829D01*
X17231D01*
X17214Y17846D01*
X17790Y17385D02*
X17890D01*
Y17335D01*
X17873Y17318D01*
X17840D01*
X17823Y17335D01*
Y17385D01*
Y17352D02*
X17790Y17318D01*
Y17285D02*
Y17252D01*
Y17268D01*
X17890D01*
X17873Y17285D01*
X17790Y17135D02*
Y17202D01*
X17857Y17135D01*
X17873D01*
X17890Y17152D01*
Y17185D01*
X17873Y17202D01*
X18400Y16958D02*
X18500D01*
Y16908D01*
X18483Y16892D01*
X18450D01*
X18433Y16908D01*
Y16958D01*
Y16925D02*
X18400Y16892D01*
Y16858D02*
Y16825D01*
Y16842D01*
X18500D01*
X18483Y16858D01*
X18400Y16775D02*
Y16742D01*
Y16758D01*
X18500D01*
X18483Y16775D01*
X19050Y16755D02*
X19150D01*
Y16705D01*
X19133Y16688D01*
X19100D01*
X19083Y16705D01*
Y16755D01*
Y16722D02*
X19050Y16688D01*
Y16655D02*
Y16622D01*
Y16638D01*
X19150D01*
X19133Y16655D01*
Y16572D02*
X19150Y16555D01*
Y16522D01*
X19133Y16505D01*
X19067D01*
X19050Y16522D01*
Y16555D01*
X19067Y16572D01*
X19133D01*
X19730Y16503D02*
X19830D01*
Y16453D01*
X19813Y16437D01*
X19780D01*
X19763Y16453D01*
Y16503D01*
Y16470D02*
X19730Y16437D01*
X19747Y16403D02*
X19730Y16387D01*
Y16353D01*
X19747Y16337D01*
X19813D01*
X19830Y16353D01*
Y16387D01*
X19813Y16403D01*
X19797D01*
X19780Y16387D01*
Y16337D01*
X20490Y16563D02*
X20590D01*
Y16513D01*
X20573Y16497D01*
X20540D01*
X20523Y16513D01*
Y16563D01*
Y16530D02*
X20490Y16497D01*
X20573Y16463D02*
X20590Y16447D01*
Y16413D01*
X20573Y16397D01*
X20557D01*
X20540Y16413D01*
X20523Y16397D01*
X20507D01*
X20490Y16413D01*
Y16447D01*
X20507Y16463D01*
X20523D01*
X20540Y16447D01*
X20557Y16463D01*
X20573D01*
X20540Y16447D02*
Y16413D01*
X21130Y16753D02*
X21230D01*
Y16703D01*
X21213Y16687D01*
X21180D01*
X21163Y16703D01*
Y16753D01*
Y16720D02*
X21130Y16687D01*
X21230Y16653D02*
Y16587D01*
X21213D01*
X21147Y16653D01*
X21130D01*
X21710Y17023D02*
X21810D01*
Y16973D01*
X21793Y16957D01*
X21760D01*
X21743Y16973D01*
Y17023D01*
Y16990D02*
X21710Y16957D01*
X21810Y16857D02*
X21793Y16890D01*
X21760Y16923D01*
X21727D01*
X21710Y16907D01*
Y16873D01*
X21727Y16857D01*
X21743D01*
X21760Y16873D01*
Y16923D01*
X22110Y17283D02*
X22210D01*
Y17233D01*
X22193Y17217D01*
X22160D01*
X22143Y17233D01*
Y17283D01*
Y17250D02*
X22110Y17217D01*
X22210Y17117D02*
Y17183D01*
X22160D01*
X22177Y17150D01*
Y17133D01*
X22160Y17117D01*
X22127D01*
X22110Y17133D01*
Y17167D01*
X22127Y17183D01*
X22847Y17930D02*
Y18030D01*
X22897D01*
X22913Y18013D01*
Y17980D01*
X22897Y17963D01*
X22847D01*
X22880D02*
X22913Y17930D01*
X22997D02*
Y18030D01*
X22947Y17980D01*
X23013D01*
X23087Y18370D02*
Y18470D01*
X23137D01*
X23153Y18453D01*
Y18420D01*
X23137Y18403D01*
X23087D01*
X23120D02*
X23153Y18370D01*
X23187Y18453D02*
X23203Y18470D01*
X23237D01*
X23253Y18453D01*
Y18437D01*
X23237Y18420D01*
X23220D01*
X23237D01*
X23253Y18403D01*
Y18387D01*
X23237Y18370D01*
X23203D01*
X23187Y18387D01*
X23347Y19080D02*
Y19180D01*
X23397D01*
X23413Y19163D01*
Y19130D01*
X23397Y19113D01*
X23347D01*
X23380D02*
X23413Y19080D01*
X23513D02*
X23447D01*
X23513Y19147D01*
Y19163D01*
X23497Y19180D01*
X23463D01*
X23447Y19163D01*
X23483Y19740D02*
Y19840D01*
X23533D01*
X23550Y19823D01*
Y19790D01*
X23533Y19773D01*
X23483D01*
X23517D02*
X23550Y19740D01*
X23583D02*
X23617D01*
X23600D01*
Y19840D01*
X23583Y19823D01*
X19817Y22460D02*
Y22560D01*
X19850Y22527D01*
X19883Y22560D01*
Y22460D01*
X19917Y22560D02*
Y22477D01*
X19933Y22460D01*
X19967D01*
X19983Y22477D01*
Y22560D01*
X20017D02*
X20083Y22460D01*
Y22560D02*
X20017Y22460D01*
X20183D02*
X20117D01*
X20183Y22527D01*
Y22543D01*
X20167Y22560D01*
X20133D01*
X20117Y22543D01*
X19833Y17440D02*
Y17540D01*
X19867Y17507D01*
X19900Y17540D01*
Y17440D01*
X19933Y17540D02*
Y17457D01*
X19950Y17440D01*
X19983D01*
X20000Y17457D01*
Y17540D01*
X20033D02*
X20100Y17440D01*
Y17540D02*
X20033Y17440D01*
X20133D02*
X20167D01*
X20150D01*
Y17540D01*
X20133Y17523D01*
X20573Y23347D02*
X20590Y23363D01*
Y23397D01*
X20573Y23413D01*
X20507D01*
X20490Y23397D01*
Y23363D01*
X20507Y23347D01*
X20573Y23313D02*
X20590Y23297D01*
Y23263D01*
X20573Y23247D01*
X20557D01*
X20540Y23263D01*
Y23280D01*
Y23263D01*
X20523Y23247D01*
X20507D01*
X20490Y23263D01*
Y23297D01*
X20507Y23313D01*
X20590Y23147D02*
Y23213D01*
X20540D01*
X20557Y23180D01*
Y23163D01*
X20540Y23147D01*
X20507D01*
X20490Y23163D01*
Y23197D01*
X20507Y23213D01*
X20083Y16207D02*
X20100Y16223D01*
Y16257D01*
X20083Y16273D01*
X20017D01*
X20000Y16257D01*
Y16223D01*
X20017Y16207D01*
X20083Y16173D02*
X20100Y16157D01*
Y16123D01*
X20083Y16107D01*
X20067D01*
X20050Y16123D01*
Y16140D01*
Y16123D01*
X20033Y16107D01*
X20017D01*
X20000Y16123D01*
Y16157D01*
X20017Y16173D01*
X20000Y16023D02*
X20100D01*
X20050Y16073D01*
Y16007D01*
X23353Y20723D02*
X23337Y20740D01*
X23303D01*
X23287Y20723D01*
Y20657D01*
X23303Y20640D01*
X23337D01*
X23353Y20657D01*
X23387Y20723D02*
X23403Y20740D01*
X23437D01*
X23453Y20723D01*
Y20707D01*
X23437Y20690D01*
X23420D01*
X23437D01*
X23453Y20673D01*
Y20657D01*
X23437Y20640D01*
X23403D01*
X23387Y20657D01*
X23553Y20640D02*
X23487D01*
X23553Y20707D01*
Y20723D01*
X23537Y20740D01*
X23503D01*
X23487Y20723D01*
X23180Y21433D02*
X23163Y21450D01*
X23130D01*
X23113Y21433D01*
Y21367D01*
X23130Y21350D01*
X23163D01*
X23180Y21367D01*
X23213Y21433D02*
X23230Y21450D01*
X23263D01*
X23280Y21433D01*
Y21417D01*
X23263Y21400D01*
X23247D01*
X23263D01*
X23280Y21383D01*
Y21367D01*
X23263Y21350D01*
X23230D01*
X23213Y21367D01*
X23313Y21350D02*
X23347D01*
X23330D01*
Y21450D01*
X23313Y21433D01*
X22823Y22013D02*
X22807Y22030D01*
X22773D01*
X22757Y22013D01*
Y21947D01*
X22773Y21930D01*
X22807D01*
X22823Y21947D01*
X22857Y22013D02*
X22873Y22030D01*
X22907D01*
X22923Y22013D01*
Y21997D01*
X22907Y21980D01*
X22890D01*
X22907D01*
X22923Y21963D01*
Y21947D01*
X22907Y21930D01*
X22873D01*
X22857Y21947D01*
X22957Y22013D02*
X22973Y22030D01*
X23007D01*
X23023Y22013D01*
Y21947D01*
X23007Y21930D01*
X22973D01*
X22957Y21947D01*
Y22013D01*
X22206Y22301D02*
Y22324D01*
X22183Y22348D01*
X22159D01*
X22112Y22301D01*
Y22277D01*
X22136Y22254D01*
X22159D01*
X22218Y22171D02*
X22171Y22218D01*
X22265D01*
X22277Y22230D01*
X22277Y22254D01*
X22254Y22277D01*
X22230D01*
X22254Y22159D02*
Y22136D01*
X22277Y22112D01*
X22301Y22112D01*
X22348Y22159D01*
X22348Y22183D01*
X22324Y22206D01*
X22301D01*
X22289Y22195D01*
Y22171D01*
X22324Y22136D01*
X22023Y22957D02*
X22040Y22973D01*
Y23007D01*
X22023Y23023D01*
X21957D01*
X21940Y23007D01*
Y22973D01*
X21957Y22957D01*
X21940Y22857D02*
Y22923D01*
X22007Y22857D01*
X22023D01*
X22040Y22873D01*
Y22907D01*
X22023Y22923D01*
Y22823D02*
X22040Y22807D01*
Y22773D01*
X22023Y22757D01*
X22007D01*
X21990Y22773D01*
X21973Y22757D01*
X21957D01*
X21940Y22773D01*
Y22807D01*
X21957Y22823D01*
X21973D01*
X21990Y22807D01*
X22007Y22823D01*
X22023D01*
X21990Y22807D02*
Y22773D01*
X21423Y23267D02*
X21440Y23283D01*
Y23317D01*
X21423Y23333D01*
X21357D01*
X21340Y23317D01*
Y23283D01*
X21357Y23267D01*
X21340Y23167D02*
Y23233D01*
X21407Y23167D01*
X21423D01*
X21440Y23183D01*
Y23217D01*
X21423Y23233D01*
X21440Y23133D02*
Y23067D01*
X21423D01*
X21357Y23133D01*
X21340D01*
X20793Y23487D02*
X20810Y23503D01*
Y23537D01*
X20793Y23553D01*
X20727D01*
X20710Y23537D01*
Y23503D01*
X20727Y23487D01*
X20710Y23387D02*
Y23453D01*
X20777Y23387D01*
X20793D01*
X20810Y23403D01*
Y23437D01*
X20793Y23453D01*
X20810Y23287D02*
X20793Y23320D01*
X20760Y23353D01*
X20727D01*
X20710Y23337D01*
Y23303D01*
X20727Y23287D01*
X20743D01*
X20760Y23303D01*
Y23353D01*
X20453Y23917D02*
X20470Y23933D01*
Y23967D01*
X20453Y23983D01*
X20387D01*
X20370Y23967D01*
Y23933D01*
X20387Y23917D01*
X20370Y23817D02*
Y23883D01*
X20437Y23817D01*
X20453D01*
X20470Y23833D01*
Y23867D01*
X20453Y23883D01*
X20470Y23717D02*
Y23783D01*
X20420D01*
X20437Y23750D01*
Y23733D01*
X20420Y23717D01*
X20387D01*
X20370Y23733D01*
Y23767D01*
X20387Y23783D01*
X19293Y23507D02*
X19310Y23523D01*
Y23557D01*
X19293Y23573D01*
X19227D01*
X19210Y23557D01*
Y23523D01*
X19227Y23507D01*
X19210Y23407D02*
Y23473D01*
X19277Y23407D01*
X19293D01*
X19310Y23423D01*
Y23457D01*
X19293Y23473D01*
X19210Y23323D02*
X19310D01*
X19260Y23373D01*
Y23307D01*
X19043Y23417D02*
X19060Y23433D01*
Y23467D01*
X19043Y23483D01*
X18977D01*
X18960Y23467D01*
Y23433D01*
X18977Y23417D01*
X18960Y23317D02*
Y23383D01*
X19027Y23317D01*
X19043D01*
X19060Y23333D01*
Y23367D01*
X19043Y23383D01*
Y23283D02*
X19060Y23267D01*
Y23233D01*
X19043Y23217D01*
X19027D01*
X19010Y23233D01*
Y23250D01*
Y23233D01*
X18993Y23217D01*
X18977D01*
X18960Y23233D01*
Y23267D01*
X18977Y23283D01*
X18506Y23251D02*
Y23274D01*
X18483Y23298D01*
X18459D01*
X18412Y23251D01*
Y23227D01*
X18436Y23204D01*
X18459D01*
X18518Y23121D02*
X18471Y23168D01*
X18565D01*
X18577Y23180D01*
X18577Y23204D01*
X18554Y23227D01*
X18530D01*
X18589Y23050D02*
X18542Y23098D01*
X18636D01*
X18648Y23109D01*
X18648Y23133D01*
X18624Y23156D01*
X18601D01*
X18128Y23019D02*
Y23042D01*
X18105Y23066D01*
X18081D01*
X18034Y23019D01*
Y22995D01*
X18058Y22972D01*
X18081D01*
X18140Y22889D02*
X18093Y22936D01*
X18187D01*
X18199Y22948D01*
X18199Y22972D01*
X18175Y22995D01*
X18152D01*
X18164Y22866D02*
X18187Y22842D01*
X18175Y22854D01*
X18246Y22925D01*
X18222D01*
X17173Y22213D02*
X17157Y22230D01*
X17123D01*
X17107Y22213D01*
Y22147D01*
X17123Y22130D01*
X17157D01*
X17173Y22147D01*
X17273Y22130D02*
X17207D01*
X17273Y22197D01*
Y22213D01*
X17257Y22230D01*
X17223D01*
X17207Y22213D01*
X17307D02*
X17323Y22230D01*
X17357D01*
X17373Y22213D01*
Y22147D01*
X17357Y22130D01*
X17323D01*
X17307Y22147D01*
Y22213D01*
X16902Y21803D02*
X16885Y21820D01*
X16852D01*
X16835Y21803D01*
Y21737D01*
X16852Y21720D01*
X16885D01*
X16902Y21737D01*
X16935Y21720D02*
X16968D01*
X16952D01*
Y21820D01*
X16935Y21803D01*
X17018Y21737D02*
X17035Y21720D01*
X17068D01*
X17085Y21737D01*
Y21803D01*
X17068Y21820D01*
X17035D01*
X17018Y21803D01*
Y21787D01*
X17035Y21770D01*
X17085D01*
X16622Y21153D02*
X16605Y21170D01*
X16572D01*
X16555Y21153D01*
Y21087D01*
X16572Y21070D01*
X16605D01*
X16622Y21087D01*
X16655Y21070D02*
X16688D01*
X16672D01*
Y21170D01*
X16655Y21153D01*
X16738D02*
X16755Y21170D01*
X16788D01*
X16805Y21153D01*
Y21137D01*
X16788Y21120D01*
X16805Y21103D01*
Y21087D01*
X16788Y21070D01*
X16755D01*
X16738Y21087D01*
Y21103D01*
X16755Y21120D01*
X16738Y21137D01*
Y21153D01*
X16755Y21120D02*
X16788D01*
X16452Y20443D02*
X16435Y20460D01*
X16402D01*
X16385Y20443D01*
Y20377D01*
X16402Y20360D01*
X16435D01*
X16452Y20377D01*
X16485Y20360D02*
X16518D01*
X16502D01*
Y20460D01*
X16485Y20443D01*
X16568Y20460D02*
X16635D01*
Y20443D01*
X16568Y20377D01*
Y20360D01*
X16502Y19343D02*
X16485Y19360D01*
X16452D01*
X16435Y19343D01*
Y19277D01*
X16452Y19260D01*
X16485D01*
X16502Y19277D01*
X16535Y19260D02*
X16568D01*
X16552D01*
Y19360D01*
X16535Y19343D01*
X16685Y19360D02*
X16652Y19343D01*
X16618Y19310D01*
Y19277D01*
X16635Y19260D01*
X16668D01*
X16685Y19277D01*
Y19293D01*
X16668Y19310D01*
X16618D01*
X16702Y18673D02*
X16685Y18690D01*
X16652D01*
X16635Y18673D01*
Y18607D01*
X16652Y18590D01*
X16685D01*
X16702Y18607D01*
X16735Y18590D02*
X16768D01*
X16752D01*
Y18690D01*
X16735Y18673D01*
X16885Y18690D02*
X16818D01*
Y18640D01*
X16852Y18657D01*
X16868D01*
X16885Y18640D01*
Y18607D01*
X16868Y18590D01*
X16835D01*
X16818Y18607D01*
X16962Y18093D02*
X16945Y18110D01*
X16912D01*
X16895Y18093D01*
Y18027D01*
X16912Y18010D01*
X16945D01*
X16962Y18027D01*
X16995Y18010D02*
X17028D01*
X17012D01*
Y18110D01*
X16995Y18093D01*
X17128Y18010D02*
Y18110D01*
X17078Y18060D01*
X17145D01*
X17742Y17835D02*
Y17858D01*
X17719Y17882D01*
X17695D01*
X17648Y17835D01*
Y17811D01*
X17672Y17788D01*
X17695D01*
X17707Y17752D02*
X17731Y17729D01*
X17719Y17741D01*
X17789Y17811D01*
X17766D01*
X17825Y17752D02*
X17848D01*
X17872Y17729D01*
X17872Y17705D01*
X17860Y17693D01*
X17837D01*
X17825Y17705D01*
X17837Y17693D01*
X17837Y17670D01*
X17825Y17658D01*
X17801Y17658D01*
X17778Y17682D01*
Y17705D01*
X18043Y17208D02*
X18060Y17225D01*
Y17258D01*
X18043Y17275D01*
X17977D01*
X17960Y17258D01*
Y17225D01*
X17977Y17208D01*
X17960Y17175D02*
Y17142D01*
Y17158D01*
X18060D01*
X18043Y17175D01*
X17960Y17025D02*
Y17092D01*
X18027Y17025D01*
X18043D01*
X18060Y17042D01*
Y17075D01*
X18043Y17092D01*
X18663Y16812D02*
X18680Y16828D01*
Y16862D01*
X18663Y16878D01*
X18597D01*
X18580Y16862D01*
Y16828D01*
X18597Y16812D01*
X18580Y16778D02*
Y16745D01*
Y16762D01*
X18680D01*
X18663Y16778D01*
X18580Y16695D02*
Y16662D01*
Y16678D01*
X18680D01*
X18663Y16695D01*
X19363Y16638D02*
X19380Y16655D01*
Y16688D01*
X19363Y16705D01*
X19297D01*
X19280Y16688D01*
Y16655D01*
X19297Y16638D01*
X19280Y16605D02*
Y16572D01*
Y16588D01*
X19380D01*
X19363Y16605D01*
Y16522D02*
X19380Y16505D01*
Y16472D01*
X19363Y16455D01*
X19297D01*
X19280Y16472D01*
Y16505D01*
X19297Y16522D01*
X19363D01*
X19613Y16477D02*
X19630Y16493D01*
Y16527D01*
X19613Y16543D01*
X19547D01*
X19530Y16527D01*
Y16493D01*
X19547Y16477D01*
Y16443D02*
X19530Y16427D01*
Y16393D01*
X19547Y16377D01*
X19613D01*
X19630Y16393D01*
Y16427D01*
X19613Y16443D01*
X19597D01*
X19580Y16427D01*
Y16377D01*
X20423Y16477D02*
X20440Y16493D01*
Y16527D01*
X20423Y16543D01*
X20357D01*
X20340Y16527D01*
Y16493D01*
X20357Y16477D01*
X20423Y16443D02*
X20440Y16427D01*
Y16393D01*
X20423Y16377D01*
X20407D01*
X20390Y16393D01*
X20373Y16377D01*
X20357D01*
X20340Y16393D01*
Y16427D01*
X20357Y16443D01*
X20373D01*
X20390Y16427D01*
X20407Y16443D01*
X20423D01*
X20390Y16427D02*
Y16393D01*
X21013Y16617D02*
X21030Y16633D01*
Y16667D01*
X21013Y16683D01*
X20947D01*
X20930Y16667D01*
Y16633D01*
X20947Y16617D01*
X21030Y16583D02*
Y16517D01*
X21013D01*
X20947Y16583D01*
X20930D01*
X21613Y16857D02*
X21630Y16873D01*
Y16907D01*
X21613Y16923D01*
X21547D01*
X21530Y16907D01*
Y16873D01*
X21547Y16857D01*
X21630Y16757D02*
X21613Y16790D01*
X21580Y16823D01*
X21547D01*
X21530Y16807D01*
Y16773D01*
X21547Y16757D01*
X21563D01*
X21580Y16773D01*
Y16823D01*
X22003Y17067D02*
X22020Y17083D01*
Y17117D01*
X22003Y17133D01*
X21937D01*
X21920Y17117D01*
Y17083D01*
X21937Y17067D01*
X22020Y16967D02*
Y17033D01*
X21970D01*
X21987Y17000D01*
Y16983D01*
X21970Y16967D01*
X21937D01*
X21920Y16983D01*
Y17017D01*
X21937Y17033D01*
X22803Y17843D02*
X22787Y17860D01*
X22753D01*
X22737Y17843D01*
Y17777D01*
X22753Y17760D01*
X22787D01*
X22803Y17777D01*
X22887Y17760D02*
Y17860D01*
X22837Y17810D01*
X22903D01*
X23083Y18273D02*
X23067Y18290D01*
X23033D01*
X23017Y18273D01*
Y18207D01*
X23033Y18190D01*
X23067D01*
X23083Y18207D01*
X23117Y18273D02*
X23133Y18290D01*
X23167D01*
X23183Y18273D01*
Y18257D01*
X23167Y18240D01*
X23150D01*
X23167D01*
X23183Y18223D01*
Y18207D01*
X23167Y18190D01*
X23133D01*
X23117Y18207D01*
X23363Y18953D02*
X23347Y18970D01*
X23313D01*
X23297Y18953D01*
Y18887D01*
X23313Y18870D01*
X23347D01*
X23363Y18887D01*
X23463Y18870D02*
X23397D01*
X23463Y18937D01*
Y18953D01*
X23447Y18970D01*
X23413D01*
X23397Y18953D01*
X23540Y19623D02*
X23523Y19640D01*
X23490D01*
X23473Y19623D01*
Y19557D01*
X23490Y19540D01*
X23523D01*
X23540Y19557D01*
X23573Y19540D02*
X23607D01*
X23590D01*
Y19640D01*
X23573Y19623D01*
D61*
X22713Y16425D02*
X22758Y16359D01*
X22256Y16119D02*
X22301Y16053D01*
X22580Y16625D02*
X22625Y16558D01*
X22123Y16319D02*
X22580Y16625D01*
X22123Y16319D02*
X22167Y16252D01*
X21964Y15964D02*
X21994Y15890D01*
X21456Y15754D02*
X21486Y15680D01*
X21872Y16186D02*
X21903Y16112D01*
X21364Y15976D02*
X21872Y16186D01*
X21364Y15976D02*
X21395Y15902D01*
X22339Y22282D02*
X22424Y22202D01*
X22199Y22415D02*
X22284Y22334D01*
X22201Y22416D02*
X22317Y22540D01*
X22319Y22542D02*
X22405Y22461D01*
X22461Y22408D02*
X22544Y22329D01*
X22426Y22203D02*
X22543Y22327D01*
X24341Y21139D02*
X24420Y21154D01*
X24449Y20599D02*
X24527Y20615D01*
X24106Y21092D02*
X24184Y21108D01*
X24106Y21092D02*
X24213Y20553D01*
X24292Y20568D01*
X24036Y21964D02*
X24110Y21994D01*
X24246Y21456D02*
X24320Y21486D01*
X23814Y21872D02*
X23888Y21903D01*
X23814Y21872D02*
X24024Y21364D01*
X24098Y21395D01*
X23575Y22713D02*
X23641Y22758D01*
X23881Y22256D02*
X23947Y22301D01*
X23375Y22580D02*
X23442Y22625D01*
X23375Y22580D02*
X23681Y22123D01*
X23748Y22167D01*
X22977Y23359D02*
X23033Y23415D01*
X23366Y22970D02*
X23422Y23026D01*
X22807Y23189D02*
X22864Y23246D01*
X22807Y23189D02*
X23196Y22800D01*
X23253Y22857D01*
X22264Y23875D02*
X22309Y23942D01*
X22722Y23569D02*
X22766Y23636D01*
X22131Y23675D02*
X22176Y23742D01*
X22131Y23675D02*
X22588Y23370D01*
X22633Y23436D01*
X21465Y24242D02*
X21496Y24316D01*
X21973Y24032D02*
X22004Y24106D01*
X21373Y24021D02*
X21404Y24094D01*
X21373Y24021D02*
X21881Y23810D01*
X21912Y23884D01*
X20609Y24447D02*
X20625Y24525D01*
X21149Y24339D02*
X21164Y24418D01*
X20562Y24211D02*
X20578Y24290D01*
X20562Y24211D02*
X21102Y24104D01*
X21117Y24182D01*
X19730Y24480D02*
Y24560D01*
X20280Y24480D02*
Y24560D01*
X19730Y24240D02*
Y24320D01*
Y24240D02*
X20280D01*
Y24320D01*
X18846Y24420D02*
X18861Y24341D01*
X19385Y24527D02*
X19401Y24449D01*
X18892Y24184D02*
X18908Y24106D01*
X19447Y24213D01*
X19432Y24292D02*
X19447Y24213D01*
X18006Y24110D02*
X18036Y24036D01*
X18514Y24320D02*
X18544Y24246D01*
X18097Y23888D02*
X18128Y23814D01*
X18636Y24024D01*
X18605Y24098D02*
X18636Y24024D01*
X17242Y23641D02*
X17287Y23575D01*
X17699Y23947D02*
X17744Y23881D01*
X17375Y23442D02*
X17420Y23375D01*
X17877Y23681D01*
X17833Y23748D02*
X17877Y23681D01*
X16585Y23033D02*
X16641Y22977D01*
X16974Y23422D02*
X17030Y23366D01*
X16754Y22864D02*
X16811Y22807D01*
X17200Y23196D01*
X17143Y23253D02*
X17200Y23196D01*
X16058Y22309D02*
X16125Y22264D01*
X16364Y22766D02*
X16431Y22722D01*
X16258Y22176D02*
X16325Y22131D01*
X16630Y22588D01*
X16564Y22633D02*
X16630Y22588D01*
X15684Y21496D02*
X15758Y21465D01*
X15894Y22004D02*
X15968Y21973D01*
X15906Y21404D02*
X15979Y21373D01*
X16190Y21881D01*
X16116Y21912D02*
X16190Y21881D01*
X15475Y20625D02*
X15553Y20609D01*
X15582Y21164D02*
X15661Y21149D01*
X15710Y20578D02*
X15789Y20562D01*
X15896Y21102D01*
X15818Y21117D02*
X15896Y21102D01*
X15440Y19730D02*
X15520D01*
X15440Y20280D02*
X15520D01*
X15680Y19730D02*
X15760D01*
Y20280D01*
X15680D02*
X15760D01*
X15580Y18846D02*
X15659Y18861D01*
X15473Y19385D02*
X15551Y19401D01*
X15816Y18892D02*
X15894Y18908D01*
X15787Y19447D02*
X15894Y18908D01*
X15708Y19432D02*
X15787Y19447D01*
X15890Y18006D02*
X15964Y18036D01*
X15680Y18514D02*
X15754Y18544D01*
X16112Y18097D02*
X16186Y18128D01*
X15976Y18636D02*
X16186Y18128D01*
X15902Y18605D02*
X15976Y18636D01*
X16359Y17242D02*
X16425Y17287D01*
X16053Y17699D02*
X16119Y17744D01*
X16558Y17375D02*
X16625Y17420D01*
X16319Y17877D02*
X16625Y17420D01*
X16252Y17833D02*
X16319Y17877D01*
X16967Y16585D02*
X17023Y16641D01*
X16578Y16974D02*
X16634Y17030D01*
X17136Y16754D02*
X17193Y16811D01*
X16804Y17200D02*
X17193Y16811D01*
X16747Y17143D02*
X16804Y17200D01*
X17691Y16058D02*
X17736Y16125D01*
X17234Y16364D02*
X17278Y16431D01*
X17824Y16258D02*
X17869Y16325D01*
X17412Y16630D02*
X17869Y16325D01*
X17367Y16564D02*
X17412Y16630D01*
X18504Y15684D02*
X18535Y15758D01*
X17996Y15894D02*
X18027Y15968D01*
X18596Y15906D02*
X18627Y15979D01*
X18119Y16190D02*
X18627Y15979D01*
X18088Y16116D02*
X18119Y16190D01*
X19375Y15475D02*
X19391Y15553D01*
X18836Y15582D02*
X18851Y15661D01*
X19422Y15710D02*
X19438Y15789D01*
X18898Y15896D02*
X19438Y15789D01*
X18883Y15818D02*
X18898Y15896D01*
X20270Y15440D02*
Y15520D01*
X19720Y15440D02*
Y15520D01*
X20270Y15680D02*
Y15760D01*
X19720D02*
X20270D01*
X19720Y15680D02*
Y15760D01*
X21139Y15659D02*
X21154Y15580D01*
X20599Y15551D02*
X20615Y15473D01*
X21092Y15894D02*
X21108Y15816D01*
X20553Y15787D02*
X21092Y15894D01*
X20553Y15787D02*
X20568Y15708D01*
X23359Y17023D02*
X23415Y16967D01*
X22970Y16634D02*
X23026Y16578D01*
X23189Y17193D02*
X23246Y17136D01*
X22800Y16804D02*
X23189Y17193D01*
X22800Y16804D02*
X22857Y16747D01*
X23875Y17736D02*
X23942Y17691D01*
X23569Y17278D02*
X23636Y17234D01*
X23675Y17869D02*
X23742Y17824D01*
X23370Y17412D02*
X23675Y17869D01*
X23370Y17412D02*
X23436Y17367D01*
X24242Y18535D02*
X24316Y18504D01*
X24032Y18027D02*
X24106Y17996D01*
X24021Y18627D02*
X24094Y18596D01*
X23810Y18119D02*
X24021Y18627D01*
X23810Y18119D02*
X23884Y18088D01*
X24447Y19391D02*
X24525Y19375D01*
X24339Y18851D02*
X24418Y18836D01*
X24211Y19438D02*
X24290Y19422D01*
X24104Y18898D02*
X24211Y19438D01*
X24104Y18898D02*
X24182Y18883D01*
X24480Y20270D02*
X24560D01*
X24480Y19720D02*
X24560D01*
X24240Y20270D02*
X24320D01*
X24240Y19720D02*
Y20270D01*
Y19720D02*
X24320D01*
X21298Y16542D02*
X21334Y16438D01*
X21135Y16485D02*
X21295Y16541D01*
X21132Y16484D02*
X21170Y16378D01*
X21200Y16291D02*
X21236Y16187D01*
X21239Y16188D02*
X21399Y16244D01*
X21365Y16348D02*
X21401Y16245D01*
X21104Y16468D02*
X21136Y16355D01*
X21157Y16283D02*
X21189Y16170D01*
X21023Y16123D02*
X21187Y16170D01*
X20989Y16235D02*
X21021Y16122D01*
X20935Y16420D02*
X20967Y16310D01*
X20938Y16421D02*
X21101Y16468D01*
X20598Y16355D02*
X20613Y16246D01*
X20427Y16331D02*
X20596Y16355D01*
X20425Y16331D02*
X20440Y16220D01*
X20453Y16128D02*
X20469Y16019D01*
X20471Y16019D02*
X20639Y16043D01*
X20627Y16152D02*
X20642Y16043D01*
X20394Y16321D02*
X20403Y16204D01*
X20409Y16129D02*
X20419Y16012D01*
X20247Y15998D02*
X20417Y16012D01*
X20235Y16115D02*
X20245Y15998D01*
X20219Y16306D02*
X20229Y16192D01*
X20222Y16307D02*
X20391Y16321D01*
X21877Y16812D02*
X21933Y16717D01*
X21729Y16724D02*
X21875Y16810D01*
X21727Y16723D02*
X21784Y16626D01*
X21831Y16546D02*
X21886Y16451D01*
X21888Y16453D02*
X22035Y16539D01*
X21981Y16635D02*
X22037Y16540D01*
X22136Y16980D02*
X22204Y16884D01*
X22247Y16823D02*
X22315Y16727D01*
X22174Y16627D02*
X22313Y16725D01*
X22105Y16722D02*
X22172Y16626D01*
X21993Y16879D02*
X22060Y16785D01*
X21995Y16880D02*
X22134Y16978D01*
X22298Y17110D02*
X22366Y17024D01*
X22163Y17003D02*
X22296Y17108D01*
X22161Y17001D02*
X22231Y16913D01*
X22288Y16841D02*
X22357Y16755D01*
X22359Y16756D02*
X22492Y16862D01*
X22425Y16950D02*
X22494Y16863D01*
X21701Y16702D02*
X21755Y16597D01*
X21790Y16530D02*
X21843Y16426D01*
X21690Y16347D02*
X21841Y16425D01*
X21634Y16450D02*
X21688Y16346D01*
X21546Y16621D02*
X21599Y16519D01*
X21548Y16623D02*
X21699Y16700D01*
X23117Y18019D02*
X23209Y17958D01*
X23022Y17876D02*
X23116Y18017D01*
X23020Y17874D02*
X23114Y17811D01*
X23191Y17760D02*
X23282Y17699D01*
X23284Y17701D02*
X23378Y17842D01*
X23288Y17905D02*
X23379Y17844D01*
X23007Y17844D02*
X23101Y17773D01*
X23161Y17728D02*
X23254Y17657D01*
X23151Y17519D02*
X23253Y17655D01*
X23055Y17588D02*
X23149Y17517D01*
X22901Y17704D02*
X22993Y17635D01*
X22903Y17706D02*
X23005Y17842D01*
X23363Y18472D02*
X23462Y18425D01*
X23288Y18317D02*
X23362Y18470D01*
X23287Y18315D02*
X23388Y18266D01*
X23471Y18226D02*
X23570Y18178D01*
X23572Y18180D02*
X23645Y18333D01*
X23547Y18383D02*
X23646Y18336D01*
X23278Y18283D02*
X23380Y18226D01*
X23446Y18190D02*
X23549Y18133D01*
X23465Y17982D02*
X23548Y18131D01*
X23361Y18037D02*
X23464Y17980D01*
X23193Y18130D02*
X23293Y18074D01*
X23194Y18132D02*
X23276Y18281D01*
X23596Y19158D02*
X23703Y19130D01*
X23553Y18991D02*
X23596Y19155D01*
X23552Y18988D02*
X23661Y18960D01*
X23751Y18937D02*
X23857Y18909D01*
X23858Y18912D02*
X23901Y19076D01*
X23795Y19106D02*
X23901Y19079D01*
X23550Y18956D02*
X23661Y18920D01*
X23733Y18897D02*
X23845Y18861D01*
X23792Y18697D02*
X23844Y18859D01*
X23680Y18730D02*
X23791Y18694D01*
X23496Y18789D02*
X23606Y18754D01*
X23497Y18791D02*
X23549Y18953D01*
X19655Y16198D02*
X19668Y16315D01*
X19633Y16007D02*
X19646Y16124D01*
X19462Y16026D02*
X19631Y16007D01*
X19459Y16027D02*
X19473Y16143D01*
X19481Y16220D02*
X19494Y16335D01*
X19497Y16334D02*
X19666Y16315D01*
X19869Y16199D02*
X19876Y16309D01*
X19703Y16318D02*
X19873Y16309D01*
X19694Y16206D02*
X19701Y16319D01*
X19683Y16004D02*
X19689Y16114D01*
X19685Y16004D02*
X19855Y15994D01*
X19858Y15994D02*
X19864Y16104D01*
X19130Y16297D02*
X19158Y16404D01*
X18991Y16447D02*
X19155Y16404D01*
X18960Y16339D02*
X18988Y16448D01*
X18909Y16143D02*
X18937Y16249D01*
X18912Y16142D02*
X19076Y16099D01*
X19079Y16099D02*
X19106Y16205D01*
X19341Y16240D02*
X19364Y16355D01*
X19304Y16051D02*
X19327Y16166D01*
X19135Y16085D02*
X19301Y16051D01*
X19132Y16085D02*
X19155Y16200D01*
X19170Y16276D02*
X19193Y16389D01*
X19195Y16389D02*
X19362Y16355D01*
X18620Y16441D02*
X18665Y16549D01*
X18547Y16263D02*
X18592Y16371D01*
X18387Y16329D02*
X18544Y16264D01*
X18385Y16330D02*
X18430Y16438D01*
X18460Y16510D02*
X18504Y16616D01*
X18506Y16615D02*
X18663Y16550D01*
X18425Y16538D02*
X18472Y16637D01*
X18317Y16712D02*
X18470Y16638D01*
X18266Y16612D02*
X18315Y16713D01*
X18178Y16430D02*
X18226Y16529D01*
X18180Y16428D02*
X18333Y16355D01*
X18336Y16354D02*
X18383Y16453D01*
X17952Y16778D02*
X18018Y16876D01*
X17845Y16618D02*
X17911Y16716D01*
X17702Y16714D02*
X17843Y16619D01*
X17700Y16715D02*
X17765Y16813D01*
X17808Y16877D02*
X17872Y16973D01*
X17874Y16972D02*
X18016Y16877D01*
X17779Y16912D02*
X17846Y17000D01*
X17708Y17104D02*
X17844Y17001D01*
X17638Y17015D02*
X17706Y17105D01*
X17516Y16854D02*
X17583Y16941D01*
X17518Y16852D02*
X17654Y16750D01*
X17656Y16748D02*
X17722Y16836D01*
X23687Y19868D02*
X23797Y19867D01*
X23686Y19696D02*
X23687Y19865D01*
X23686Y19693D02*
X23798Y19692D01*
X23891Y19691D02*
X24001Y19690D01*
X24001Y19693D02*
X24002Y19863D01*
X23892Y19866D02*
X24002Y19865D01*
X23681Y19669D02*
X23798Y19655D01*
X23872Y19647D02*
X23989Y19634D01*
X23970Y19462D02*
X23989Y19631D01*
X23853Y19473D02*
X23969Y19460D01*
X23661Y19495D02*
X23776Y19482D01*
X23662Y19497D02*
X23681Y19666D01*
X23649Y20599D02*
X23758Y20614D01*
X23649Y20596D02*
X23673Y20428D01*
X23673Y20425D02*
X23784Y20441D01*
X23876Y20454D02*
X23985Y20469D01*
X23961Y20640D02*
X23985Y20472D01*
X23852Y20627D02*
X23961Y20642D01*
X23611Y20807D02*
X23726Y20830D01*
X23800Y20845D02*
X23915Y20868D01*
X23915Y20865D02*
X23949Y20699D01*
X23834Y20673D02*
X23949Y20696D01*
X23645Y20636D02*
X23758Y20658D01*
X23611Y20805D02*
X23645Y20638D01*
X23462Y21299D02*
X23566Y21335D01*
X23463Y21297D02*
X23519Y21136D01*
X23519Y21134D02*
X23626Y21171D01*
X23713Y21201D02*
X23817Y21237D01*
X23760Y21400D02*
X23816Y21240D01*
X23655Y21367D02*
X23759Y21403D01*
X23384Y21496D02*
X23493Y21541D01*
X23562Y21570D02*
X23670Y21615D01*
X23671Y21613D02*
X23736Y21456D01*
X23629Y21408D02*
X23737Y21453D01*
X23451Y21335D02*
X23557Y21379D01*
X23385Y21494D02*
X23450Y21337D01*
X23142Y21949D02*
X23237Y22005D01*
X23143Y21947D02*
X23229Y21801D01*
X23231Y21799D02*
X23328Y21856D01*
X23407Y21903D02*
X23502Y21958D01*
X23415Y22107D02*
X23501Y21961D01*
X23319Y22053D02*
X23413Y22109D01*
X23027Y22128D02*
X23125Y22193D01*
X23187Y22235D02*
X23285Y22300D01*
X23286Y22298D02*
X23381Y22157D01*
X23284Y22089D02*
X23382Y22155D01*
X23124Y21982D02*
X23220Y22046D01*
X23028Y22126D02*
X23123Y21984D01*
X22884Y22318D02*
X22970Y22387D01*
X22885Y22316D02*
X22991Y22183D01*
X22993Y22181D02*
X23081Y22252D01*
X23153Y22309D02*
X23239Y22378D01*
X23132Y22513D02*
X23238Y22380D01*
X23044Y22446D02*
X23130Y22515D01*
X21982Y23124D02*
X22048Y23222D01*
X22089Y23284D02*
X22155Y23382D01*
X22157Y23381D02*
X22298Y23286D01*
X22235Y23187D02*
X22300Y23285D01*
X22128Y23027D02*
X22192Y23123D01*
X21984Y23123D02*
X22126Y23028D01*
X22157Y23003D02*
X22223Y23091D01*
X22159Y23002D02*
X22294Y22899D01*
X22296Y22898D02*
X22364Y22988D01*
X22420Y23062D02*
X22486Y23150D01*
X22348Y23253D02*
X22484Y23151D01*
X22280Y23167D02*
X22346Y23255D01*
X21335Y23451D02*
X21380Y23559D01*
X21408Y23629D02*
X21453Y23737D01*
X21456Y23736D02*
X21613Y23671D01*
X21570Y23562D02*
X21615Y23670D01*
X21496Y23384D02*
X21540Y23490D01*
X21337Y23450D02*
X21494Y23385D01*
X21529Y23366D02*
X21577Y23465D01*
X21532Y23365D02*
X21685Y23291D01*
X21687Y23290D02*
X21736Y23392D01*
X21776Y23475D02*
X21824Y23574D01*
X21668Y23649D02*
X21822Y23575D01*
X21618Y23551D02*
X21666Y23650D01*
X20636Y23645D02*
X20659Y23760D01*
X20673Y23834D02*
X20696Y23949D01*
X20699Y23949D02*
X20865Y23915D01*
X20845Y23800D02*
X20868Y23915D01*
X20807Y23611D02*
X20830Y23724D01*
X20638Y23645D02*
X20805Y23611D01*
X20843Y23600D02*
X20871Y23707D01*
X20846Y23599D02*
X21010Y23557D01*
X21013Y23556D02*
X21041Y23665D01*
X21064Y23755D02*
X21092Y23861D01*
X20925Y23904D02*
X21089Y23862D01*
X20895Y23799D02*
X20922Y23905D01*
X20122Y23698D02*
X20129Y23815D01*
X20133Y23890D02*
X20140Y24008D01*
X20142Y24007D02*
X20312Y23998D01*
X20308Y23880D02*
X20315Y23998D01*
X20297Y23688D02*
X20304Y23803D01*
X20125Y23698D02*
X20295Y23688D01*
X20305Y23638D02*
X20423D01*
X20498Y23638D02*
X20615D01*
X20615Y23465D02*
Y23635D01*
X20498Y23462D02*
X20615D01*
X20305Y23462D02*
X20420D01*
X20305Y23465D02*
Y23635D01*
X19915Y23697D02*
X19915Y23807D01*
X19918Y23697D02*
X20088D01*
X20090Y23697D02*
Y23809D01*
Y23902D02*
X20090Y24012D01*
X19918Y24012D02*
X20088Y24012D01*
X19915Y23902D02*
X19915Y24012D01*
X19386Y23758D02*
X19401Y23649D01*
X19404Y23649D02*
X19572Y23673D01*
X19559Y23784D02*
X19575Y23673D01*
X19531Y23985D02*
X19546Y23876D01*
X19360Y23961D02*
X19528Y23985D01*
X19358Y23961D02*
X19373Y23852D01*
X19170Y23726D02*
X19193Y23611D01*
X19132Y23915D02*
X19155Y23800D01*
X19135Y23915D02*
X19301Y23949D01*
X19304Y23949D02*
X19327Y23834D01*
X19342Y23758D02*
X19364Y23645D01*
X19195Y23611D02*
X19362Y23645D01*
X18864Y23645D02*
X18896Y23532D01*
X18811Y23830D02*
X18843Y23717D01*
X18813Y23830D02*
X18977Y23877D01*
X18979Y23878D02*
X19011Y23765D01*
X19033Y23690D02*
X19065Y23580D01*
X18899Y23532D02*
X19062Y23579D01*
X18665Y23566D02*
X18701Y23462D01*
X18703Y23463D02*
X18864Y23519D01*
X18829Y23626D02*
X18866Y23519D01*
X18762Y23817D02*
X18799Y23713D01*
X18600Y23760D02*
X18760Y23816D01*
X18597Y23759D02*
X18633Y23655D01*
X17566Y17798D02*
X17653Y17720D01*
X17709Y17670D02*
X17796Y17591D01*
X17681Y17463D02*
X17795Y17589D01*
X17592Y17539D02*
X17679Y17461D01*
X17449Y17668D02*
X17534Y17591D01*
X17450Y17670D02*
X17564Y17796D01*
X16795Y17877D02*
X16893Y17942D01*
X16635Y17770D02*
X16733Y17835D01*
X16539Y17913D02*
X16634Y17772D01*
X16538Y17915D02*
X16636Y17981D01*
X16700Y18024D02*
X16796Y18088D01*
X16797Y18086D02*
X16892Y17944D01*
X16683Y18065D02*
X16778Y18121D01*
X16691Y18269D02*
X16777Y18123D01*
X16592Y18214D02*
X16689Y18271D01*
X16418Y18112D02*
X16513Y18167D01*
X16419Y18109D02*
X16505Y17963D01*
X16507Y17961D02*
X16601Y18017D01*
X16507Y18459D02*
X16616Y18504D01*
X16330Y18385D02*
X16438Y18430D01*
X16264Y18544D02*
X16329Y18387D01*
X16263Y18547D02*
X16371Y18592D01*
X16443Y18621D02*
X16549Y18665D01*
X16550Y18663D02*
X16615Y18506D01*
X16438Y18666D02*
X16542Y18702D01*
X16485Y18865D02*
X16541Y18705D01*
X16378Y18830D02*
X16484Y18868D01*
X16187Y18764D02*
X16291Y18800D01*
X16188Y18761D02*
X16244Y18601D01*
X16245Y18599D02*
X16348Y18635D01*
X16274Y19170D02*
X16389Y19193D01*
X16085Y19132D02*
X16200Y19155D01*
X16051Y19301D02*
X16085Y19135D01*
X16051Y19304D02*
X16166Y19327D01*
X16242Y19342D02*
X16355Y19364D01*
X16355Y19362D02*
X16389Y19195D01*
X16246Y19387D02*
X16355Y19402D01*
X16331Y19573D02*
X16355Y19404D01*
X16220Y19560D02*
X16331Y19575D01*
X16019Y19531D02*
X16128Y19547D01*
X16019Y19529D02*
X16043Y19361D01*
X16043Y19358D02*
X16152Y19373D01*
X16199Y20131D02*
X16309Y20124D01*
X16309Y20127D02*
X16318Y20297D01*
X16206Y20306D02*
X16319Y20299D01*
X16004Y20317D02*
X16114Y20311D01*
X15994Y20145D02*
X16004Y20315D01*
X15994Y20142D02*
X16104Y20136D01*
X16198Y20345D02*
X16315Y20332D01*
X16007Y20367D02*
X16124Y20354D01*
X16007Y20369D02*
X16026Y20538D01*
X16027Y20541D02*
X16143Y20527D01*
X16220Y20519D02*
X16335Y20506D01*
X16315Y20334D02*
X16334Y20503D01*
X16297Y20870D02*
X16404Y20842D01*
X16404Y20845D02*
X16447Y21009D01*
X16339Y21040D02*
X16448Y21012D01*
X16143Y21091D02*
X16249Y21063D01*
X16099Y20924D02*
X16142Y21088D01*
X16099Y20921D02*
X16205Y20894D01*
X16339Y21080D02*
X16450Y21044D01*
X16155Y21139D02*
X16267Y21103D01*
X16156Y21141D02*
X16208Y21303D01*
X16209Y21306D02*
X16320Y21270D01*
X16394Y21246D02*
X16504Y21211D01*
X16451Y21047D02*
X16503Y21209D01*
X16535Y21577D02*
X16634Y21529D01*
X16635Y21532D02*
X16709Y21685D01*
X16608Y21736D02*
X16710Y21687D01*
X16426Y21824D02*
X16525Y21776D01*
X16351Y21668D02*
X16425Y21822D01*
X16350Y21666D02*
X16449Y21618D01*
X16620Y21774D02*
X16722Y21717D01*
X16451Y21867D02*
X16554Y21810D01*
X16452Y21869D02*
X16535Y22018D01*
X16536Y22020D02*
X16639Y21963D01*
X16707Y21926D02*
X16807Y21870D01*
X16724Y21719D02*
X16806Y21868D01*
X16788Y22044D02*
X16879Y21983D01*
X16881Y21985D02*
X16975Y22126D01*
X16883Y22191D02*
X16976Y22128D01*
X16715Y22304D02*
X16806Y22242D01*
X16619Y22160D02*
X16713Y22301D01*
X16617Y22158D02*
X16709Y22097D01*
X16899Y22227D02*
X16993Y22156D01*
X16746Y22343D02*
X16839Y22272D01*
X16747Y22345D02*
X16849Y22481D01*
X16851Y22483D02*
X16945Y22412D01*
X17007Y22365D02*
X17099Y22296D01*
X16995Y22158D02*
X17097Y22294D01*
X17679Y22986D02*
X17748Y22900D01*
X17750Y22901D02*
X17882Y23007D01*
X17814Y23097D02*
X17884Y23009D01*
X17688Y23255D02*
X17757Y23169D01*
X17553Y23148D02*
X17686Y23253D01*
X17551Y23146D02*
X17620Y23060D01*
X17856Y23135D02*
X17924Y23039D01*
X17745Y23292D02*
X17813Y23196D01*
X17747Y23293D02*
X17886Y23391D01*
X17888Y23393D02*
X17956Y23297D01*
X18000Y23234D02*
X18067Y23140D01*
X17926Y23040D02*
X18065Y23138D01*
X18081Y23272D02*
X18137Y23178D01*
X18139Y23179D02*
X18285Y23265D01*
X18230Y23363D02*
X18287Y23266D01*
X18127Y23538D02*
X18183Y23443D01*
X17979Y23450D02*
X18125Y23537D01*
X17977Y23449D02*
X18033Y23354D01*
X18261Y23389D02*
X18314Y23284D01*
X18173Y23560D02*
X18226Y23455D01*
X18175Y23561D02*
X18326Y23639D01*
X18328Y23640D02*
X18382Y23535D01*
X18417Y23466D02*
X18470Y23364D01*
X18317Y23285D02*
X18468Y23363D01*
X19895Y16507D02*
X20012D01*
X20088D02*
X20205D01*
Y16335D02*
Y16505D01*
X20088Y16332D02*
X20205D01*
X19895D02*
X20010D01*
X19895Y16505D02*
X19895Y16335D01*
X19710Y17398D02*
X20290Y17398D01*
X19710Y17398D02*
X19710Y17365D01*
X20290Y17398D02*
X20290Y17365D01*
X20290Y16560D02*
X20290Y16528D01*
X19710Y16560D02*
X19710Y16528D01*
X20290Y16528D01*
X19710Y22602D02*
X20290D01*
Y22635D01*
X19710Y22635D02*
X19710Y22602D01*
X19710Y23440D02*
Y23472D01*
X20290Y23472D02*
X20290Y23440D01*
X19710Y23472D02*
X20290Y23472D01*
X16950Y17673D02*
X17036Y17742D01*
X16929Y17877D02*
X17035Y17743D01*
X16839Y17808D02*
X16927Y17878D01*
X16681Y17682D02*
X16767Y17751D01*
X16682Y17680D02*
X16788Y17547D01*
X16790Y17545D02*
X16876Y17614D01*
D71*
X23180Y19767D02*
X22847D01*
X22680Y19933D01*
X22847Y20100D01*
X23180D01*
X22930D01*
Y19767D01*
X22570Y20301D02*
X22741D01*
X22613Y20230D02*
X22699Y20373D01*
X22613D02*
X22699Y20230D01*
%TF.MD5,69c3fba34756040dcac9761695173340*%
M02*
