%TF.GenerationSoftware,Altium Limited,Altium Designer,21.8.1 (53)*%
G04 Layer_Color=65535*
%FSLAX42Y42*%
%MOMM*%
%TF.SameCoordinates,15406810-5A1E-4B15-B108-3B776D23A55A*%
%TF.FilePolarity,Positive*%
%TF.FileFunction,Legend,Bot*%
%TF.Part,Single*%
G01*
G75*
%TA.AperFunction,NonConductor*%
%ADD60C,0.20*%
%ADD61C,0.15*%
%ADD62C,0.13*%
%ADD63C,0.30*%
D60*
X17110Y21195D02*
G03*
X17110Y21195I-10J0D01*
G01*
X16696Y20891D02*
X16706Y20887D01*
X16715Y20877D01*
X16720Y20868D01*
Y20849D01*
X16715Y20839D01*
X16706Y20830D01*
X16696Y20825D01*
X16682Y20820D01*
X16658D01*
X16644Y20825D01*
X16634Y20830D01*
X16625Y20839D01*
X16620Y20849D01*
Y20868D01*
X16625Y20877D01*
X16634Y20887D01*
X16644Y20891D01*
X16658D01*
Y20868D02*
Y20891D01*
X16720Y20914D02*
X16620D01*
X16720D02*
X16620Y20981D01*
X16720D02*
X16620D01*
X16720Y21009D02*
X16620D01*
X16720D02*
Y21042D01*
X16715Y21056D01*
X16706Y21066D01*
X16696Y21070D01*
X16682Y21075D01*
X16658D01*
X16644Y21070D01*
X16634Y21066D01*
X16625Y21056D01*
X16620Y21042D01*
Y21009D01*
X16720Y20610D02*
X16620D01*
X16701Y20631D02*
X16706Y20640D01*
X16720Y20655D01*
X16620D01*
X16720Y20330D02*
X16620D01*
X16696Y20356D02*
X16701D01*
X16710Y20360D01*
X16715Y20365D01*
X16720Y20375D01*
Y20394D01*
X16715Y20403D01*
X16710Y20408D01*
X16701Y20413D01*
X16691D01*
X16682Y20408D01*
X16668Y20399D01*
X16620Y20351D01*
Y20418D01*
X16720Y20090D02*
X16620D01*
X16720Y20120D02*
Y20173D01*
X16682Y20144D01*
Y20159D01*
X16677Y20168D01*
X16672Y20173D01*
X16658Y20178D01*
X16649D01*
X16634Y20173D01*
X16625Y20163D01*
X16620Y20149D01*
Y20135D01*
X16625Y20120D01*
X16630Y20116D01*
X16639Y20111D01*
X16720Y19840D02*
X16620D01*
X16720Y19909D02*
X16653Y19861D01*
Y19932D01*
X16720Y19909D02*
X16620D01*
X16720Y19599D02*
X16715Y19589D01*
X16706Y19580D01*
X16696Y19575D01*
X16682Y19570D01*
X16658D01*
X16644Y19575D01*
X16634Y19580D01*
X16625Y19589D01*
X16620Y19599D01*
Y19618D01*
X16625Y19627D01*
X16634Y19637D01*
X16644Y19641D01*
X16658Y19646D01*
X16682D01*
X16696Y19641D01*
X16706Y19637D01*
X16715Y19627D01*
X16720Y19618D01*
Y19599D01*
X16701Y19670D02*
X16706Y19679D01*
X16720Y19693D01*
X16620D01*
X16720Y19319D02*
X16715Y19309D01*
X16706Y19300D01*
X16696Y19295D01*
X16682Y19290D01*
X16658D01*
X16644Y19295D01*
X16634Y19300D01*
X16625Y19309D01*
X16620Y19319D01*
Y19338D01*
X16625Y19347D01*
X16634Y19357D01*
X16644Y19361D01*
X16658Y19366D01*
X16682D01*
X16696Y19361D01*
X16706Y19357D01*
X16715Y19347D01*
X16720Y19338D01*
Y19319D01*
X16696Y19394D02*
X16701D01*
X16710Y19399D01*
X16715Y19404D01*
X16720Y19413D01*
Y19432D01*
X16715Y19442D01*
X16710Y19447D01*
X16701Y19451D01*
X16691D01*
X16682Y19447D01*
X16668Y19437D01*
X16620Y19390D01*
Y19456D01*
X16720Y18890D02*
X16620Y18928D01*
X16720Y18966D02*
X16620Y18928D01*
X16696Y19050D02*
X16706Y19046D01*
X16715Y19036D01*
X16720Y19027D01*
Y19008D01*
X16715Y18998D01*
X16706Y18989D01*
X16696Y18984D01*
X16682Y18979D01*
X16658D01*
X16644Y18984D01*
X16634Y18989D01*
X16625Y18998D01*
X16620Y19008D01*
Y19027D01*
X16625Y19036D01*
X16634Y19046D01*
X16644Y19050D01*
X16696Y19150D02*
X16706Y19145D01*
X16715Y19136D01*
X16720Y19126D01*
Y19107D01*
X16715Y19098D01*
X16706Y19088D01*
X16696Y19083D01*
X16682Y19079D01*
X16658D01*
X16644Y19083D01*
X16634Y19088D01*
X16625Y19098D01*
X16620Y19107D01*
Y19126D01*
X16625Y19136D01*
X16634Y19145D01*
X16644Y19150D01*
X15897Y19710D02*
Y19610D01*
X15947D01*
X15963Y19627D01*
Y19660D01*
X15947Y19677D01*
X15897D01*
X15930D02*
X15963Y19710D01*
X15997Y19627D02*
X16013Y19610D01*
X16047D01*
X16063Y19627D01*
Y19643D01*
X16047Y19660D01*
X16030D01*
X16047D01*
X16063Y19677D01*
Y19693D01*
X16047Y19710D01*
X16013D01*
X15997Y19693D01*
X16097Y19610D02*
X16163D01*
Y19627D01*
X16097Y19693D01*
Y19710D01*
X15907Y19390D02*
Y19457D01*
X15940Y19490D01*
X15973Y19457D01*
Y19390D01*
X16073Y19407D02*
X16057Y19390D01*
X16023D01*
X16007Y19407D01*
Y19473D01*
X16023Y19490D01*
X16057D01*
X16073Y19473D01*
X16173Y19407D02*
X16157Y19390D01*
X16123D01*
X16107Y19407D01*
Y19473D01*
X16123Y19490D01*
X16157D01*
X16173Y19473D01*
X15897Y19930D02*
Y19830D01*
X15947D01*
X15963Y19847D01*
Y19880D01*
X15947Y19897D01*
X15897D01*
X15930D02*
X15963Y19930D01*
X15997Y19847D02*
X16013Y19830D01*
X16047D01*
X16063Y19847D01*
Y19863D01*
X16047Y19880D01*
X16030D01*
X16047D01*
X16063Y19897D01*
Y19913D01*
X16047Y19930D01*
X16013D01*
X15997Y19913D01*
X16163Y19830D02*
X16130Y19847D01*
X16097Y19880D01*
Y19913D01*
X16113Y19930D01*
X16147D01*
X16163Y19913D01*
Y19897D01*
X16147Y19880D01*
X16097D01*
X15897Y20180D02*
Y20080D01*
X15947D01*
X15963Y20097D01*
Y20130D01*
X15947Y20147D01*
X15897D01*
X15930D02*
X15963Y20180D01*
X15997Y20097D02*
X16013Y20080D01*
X16047D01*
X16063Y20097D01*
Y20113D01*
X16047Y20130D01*
X16030D01*
X16047D01*
X16063Y20147D01*
Y20163D01*
X16047Y20180D01*
X16013D01*
X15997Y20163D01*
X16163Y20080D02*
X16097D01*
Y20130D01*
X16130Y20113D01*
X16147D01*
X16163Y20130D01*
Y20163D01*
X16147Y20180D01*
X16113D01*
X16097Y20163D01*
X15897Y20430D02*
Y20330D01*
X15947D01*
X15963Y20347D01*
Y20380D01*
X15947Y20397D01*
X15897D01*
X15930D02*
X15963Y20430D01*
X15997Y20347D02*
X16013Y20330D01*
X16047D01*
X16063Y20347D01*
Y20363D01*
X16047Y20380D01*
X16030D01*
X16047D01*
X16063Y20397D01*
Y20413D01*
X16047Y20430D01*
X16013D01*
X15997Y20413D01*
X16147Y20430D02*
Y20330D01*
X16097Y20380D01*
X16163D01*
X15887Y20680D02*
Y20580D01*
X15937D01*
X15953Y20597D01*
Y20630D01*
X15937Y20647D01*
X15887D01*
X15920D02*
X15953Y20680D01*
X15987Y20597D02*
X16003Y20580D01*
X16037D01*
X16053Y20597D01*
Y20613D01*
X16037Y20630D01*
X16020D01*
X16037D01*
X16053Y20647D01*
Y20663D01*
X16037Y20680D01*
X16003D01*
X15987Y20663D01*
X16087Y20597D02*
X16103Y20580D01*
X16137D01*
X16153Y20597D01*
Y20613D01*
X16137Y20630D01*
X16120D01*
X16137D01*
X16153Y20647D01*
Y20663D01*
X16137Y20680D01*
X16103D01*
X16087Y20663D01*
X16313Y19143D02*
X16330Y19127D01*
Y19093D01*
X16313Y19077D01*
X16247D01*
X16230Y19093D01*
Y19127D01*
X16247Y19143D01*
X16313Y19177D02*
X16330Y19193D01*
Y19227D01*
X16313Y19243D01*
X16297D01*
X16280Y19227D01*
Y19210D01*
Y19227D01*
X16263Y19243D01*
X16247D01*
X16230Y19227D01*
Y19193D01*
X16247Y19177D01*
X16313Y19277D02*
X16330Y19293D01*
Y19327D01*
X16313Y19343D01*
X16297D01*
X16280Y19327D01*
Y19310D01*
Y19327D01*
X16263Y19343D01*
X16247D01*
X16230Y19327D01*
Y19293D01*
X16247Y19277D01*
D61*
X16207Y19740D02*
X16323D01*
X16207Y19555D02*
Y19740D01*
X16418D02*
X16532D01*
Y19555D02*
Y19740D01*
X16415Y19555D02*
X16532D01*
X16207D02*
X16323D01*
X16412Y19387D02*
X16503D01*
X16412Y19533D02*
X16503D01*
X16237D02*
X16330D01*
X16237Y19387D02*
X16327D01*
X16503D02*
Y19533D01*
X16237Y19387D02*
Y19533D01*
X16348Y19405D02*
Y19515D01*
X16212Y20035D02*
X16323D01*
X16212Y20038D02*
Y20207D01*
Y20210D02*
X16325D01*
X16418D02*
X16527D01*
Y20038D02*
Y20207D01*
X16418Y20035D02*
X16527D01*
X16212Y20285D02*
X16323D01*
X16212Y20288D02*
Y20457D01*
Y20460D02*
X16325D01*
X16418D02*
X16527D01*
Y20288D02*
Y20457D01*
X16418Y20285D02*
X16527D01*
X16202Y20535D02*
X16312D01*
X16202Y20538D02*
Y20707D01*
Y20710D02*
X16315D01*
X16407D02*
X16518D01*
Y20538D02*
Y20707D01*
X16407Y20535D02*
X16518D01*
X16212Y19785D02*
X16323D01*
X16212Y19788D02*
Y19957D01*
Y19960D02*
X16325D01*
X16418D02*
X16527D01*
Y19788D02*
Y19957D01*
X16418Y19785D02*
X16527D01*
X16558Y19055D02*
Y19173D01*
X16557Y19248D02*
Y19365D01*
X16385Y19365D02*
X16555D01*
X16382Y19248D02*
Y19365D01*
X16382Y19055D02*
Y19170D01*
X16385Y19055D02*
X16555D01*
D62*
X16760Y18880D02*
X17335Y18880D01*
X17335Y21120D02*
X17335Y18880D01*
X16760Y21120D02*
X17335Y21120D01*
X16760Y18880D02*
Y21120D01*
D63*
X23268Y20980D02*
X23168D01*
X23118Y20930D01*
X23168Y20880D01*
X23268D01*
X23193D01*
Y20980D01*
X23268Y20830D02*
Y20755D01*
X23243Y20730D01*
X23218Y20755D01*
Y20805D01*
X23193Y20830D01*
X23168Y20805D01*
Y20730D01*
X23143Y20655D02*
X23168D01*
Y20680D01*
Y20630D01*
Y20655D01*
X23243D01*
X23268Y20630D01*
Y20480D02*
Y20530D01*
X23243Y20555D01*
X23193D01*
X23168Y20530D01*
Y20480D01*
X23193Y20455D01*
X23218D01*
Y20555D01*
X23168Y20405D02*
X23268D01*
X23218D01*
X23193Y20380D01*
X23168Y20355D01*
Y20330D01*
X23268Y20255D02*
Y20205D01*
Y20230D01*
X23168D01*
Y20255D01*
X23268Y20130D02*
Y20055D01*
X23243Y20030D01*
X23218Y20055D01*
Y20105D01*
X23193Y20130D01*
X23168Y20105D01*
Y20030D01*
X23268Y19980D02*
X23118D01*
X23218D02*
X23168Y19905D01*
X23218Y19980D02*
X23268Y19905D01*
X23143Y19505D02*
X23168D01*
Y19530D01*
Y19480D01*
Y19505D01*
X23243D01*
X23268Y19480D01*
Y19331D02*
Y19381D01*
X23243Y19406D01*
X23193D01*
X23168Y19381D01*
Y19331D01*
X23193Y19306D01*
X23218D01*
Y19406D01*
X23168Y19231D02*
Y19181D01*
X23193Y19156D01*
X23268D01*
Y19231D01*
X23243Y19256D01*
X23218Y19231D01*
Y19156D01*
X23268Y19106D02*
X23168D01*
Y19081D01*
X23193Y19056D01*
X23268D01*
X23193D01*
X23168Y19031D01*
X23193Y19006D01*
X23268D01*
X23520Y20880D02*
Y20980D01*
X23420Y20880D01*
X23395D01*
X23370Y20905D01*
Y20955D01*
X23395Y20980D01*
Y20830D02*
X23370Y20805D01*
Y20755D01*
X23395Y20730D01*
X23495D01*
X23520Y20755D01*
Y20805D01*
X23495Y20830D01*
X23395D01*
X23520Y20580D02*
Y20680D01*
X23420Y20580D01*
X23395D01*
X23370Y20605D01*
Y20655D01*
X23395Y20680D01*
X23520Y20455D02*
X23370D01*
X23445Y20530D01*
Y20430D01*
X23074Y19804D02*
X23160D01*
X23096Y19840D02*
X23139Y19769D01*
X23096D02*
X23139Y19840D01*
%TF.MD5,fffaae50f366f9821631b4fd24e3f37f*%
M02*
