%TF.GenerationSoftware,Altium Limited,Altium Designer,21.8.1 (53)*%
G04 Layer_Color=8388736*
%FSLAX42Y42*%
%MOMM*%
%TF.SameCoordinates,15406810-5A1E-4B15-B108-3B776D23A55A*%
%TF.FilePolarity,Negative*%
%TF.FileFunction,Soldermask,Top*%
%TF.Part,Single*%
G01*
G75*
%TA.AperFunction,SMDPad,CuDef*%
%ADD64R,1.00X1.50*%
%ADD66R,1.50X1.00*%
%TA.AperFunction,ViaPad*%
%ADD67C,5.90*%
%TA.AperFunction,ComponentPad*%
%ADD68C,1.60*%
%ADD69R,1.61X1.61*%
%ADD70C,1.61*%
%TA.AperFunction,SMDPad,CuDef*%
G04:AMPARAMS|DCode=72|XSize=1mm|YSize=1.5mm|CornerRadius=0mm|HoleSize=0mm|Usage=FLASHONLY|Rotation=316.587|XOffset=0mm|YOffset=0mm|HoleType=Round|Shape=Rectangle|*
%AMROTATEDRECTD72*
4,1,4,-0.88,-0.20,0.15,0.89,0.88,0.20,-0.15,-0.89,-0.88,-0.20,0.0*
%
%ADD72ROTATEDRECTD72*%

G04:AMPARAMS|DCode=73|XSize=1mm|YSize=1.5mm|CornerRadius=0mm|HoleSize=0mm|Usage=FLASHONLY|Rotation=289.250|XOffset=0mm|YOffset=0mm|HoleType=Round|Shape=Rectangle|*
%AMROTATEDRECTD73*
4,1,4,-0.87,0.23,0.54,0.72,0.87,-0.23,-0.54,-0.72,-0.87,0.23,0.0*
%
%ADD73ROTATEDRECTD73*%

G04:AMPARAMS|DCode=74|XSize=1mm|YSize=1.5mm|CornerRadius=0mm|HoleSize=0mm|Usage=FLASHONLY|Rotation=106.000|XOffset=0mm|YOffset=0mm|HoleType=Round|Shape=Rectangle|*
%AMROTATEDRECTD74*
4,1,4,0.86,-0.27,-0.58,-0.69,-0.86,0.27,0.58,0.69,0.86,-0.27,0.0*
%
%ADD74ROTATEDRECTD74*%

G04:AMPARAMS|DCode=75|XSize=1mm|YSize=1.5mm|CornerRadius=0mm|HoleSize=0mm|Usage=FLASHONLY|Rotation=278.000|XOffset=0mm|YOffset=0mm|HoleType=Round|Shape=Rectangle|*
%AMROTATEDRECTD75*
4,1,4,-0.81,0.39,0.67,0.60,0.81,-0.39,-0.67,-0.60,-0.81,0.39,0.0*
%
%ADD75ROTATEDRECTD75*%

G04:AMPARAMS|DCode=76|XSize=1mm|YSize=1.5mm|CornerRadius=0mm|HoleSize=0mm|Usage=FLASHONLY|Rotation=94.750|XOffset=0mm|YOffset=0mm|HoleType=Round|Shape=Rectangle|*
%AMROTATEDRECTD76*
4,1,4,0.79,-0.44,-0.70,-0.56,-0.79,0.44,0.70,0.56,0.79,-0.44,0.0*
%
%ADD76ROTATEDRECTD76*%

G04:AMPARAMS|DCode=77|XSize=1mm|YSize=1.5mm|CornerRadius=0mm|HoleSize=0mm|Usage=FLASHONLY|Rotation=300.471|XOffset=0mm|YOffset=0mm|HoleType=Round|Shape=Rectangle|*
%AMROTATEDRECTD77*
4,1,4,-0.90,0.05,0.39,0.81,0.90,-0.05,-0.39,-0.81,-0.90,0.05,0.0*
%
%ADD77ROTATEDRECTD77*%

G04:AMPARAMS|DCode=78|XSize=1mm|YSize=1.5mm|CornerRadius=0mm|HoleSize=0mm|Usage=FLASHONLY|Rotation=125.250|XOffset=0mm|YOffset=0mm|HoleType=Round|Shape=Rectangle|*
%AMROTATEDRECTD78*
4,1,4,0.90,0.02,-0.32,-0.84,-0.90,-0.02,0.32,0.84,0.90,0.02,0.0*
%
%ADD78ROTATEDRECTD78*%

G04:AMPARAMS|DCode=79|XSize=1mm|YSize=1.5mm|CornerRadius=0mm|HoleSize=0mm|Usage=FLASHONLY|Rotation=308.500|XOffset=0mm|YOffset=0mm|HoleType=Round|Shape=Rectangle|*
%AMROTATEDRECTD79*
4,1,4,-0.90,-0.07,0.27,0.86,0.90,0.07,-0.27,-0.86,-0.90,-0.07,0.0*
%
%ADD79ROTATEDRECTD79*%

G04:AMPARAMS|DCode=80|XSize=1mm|YSize=1.5mm|CornerRadius=0mm|HoleSize=0mm|Usage=FLASHONLY|Rotation=117.259|XOffset=0mm|YOffset=0mm|HoleType=Round|Shape=Rectangle|*
%AMROTATEDRECTD80*
4,1,4,0.89,-0.10,-0.44,-0.79,-0.89,0.10,0.44,0.79,0.89,-0.10,0.0*
%
%ADD80ROTATEDRECTD80*%

G04:AMPARAMS|DCode=81|XSize=1mm|YSize=1.5mm|CornerRadius=0mm|HoleSize=0mm|Usage=FLASHONLY|Rotation=326.250|XOffset=0mm|YOffset=0mm|HoleType=Round|Shape=Rectangle|*
%AMROTATEDRECTD81*
4,1,4,-0.83,-0.34,0.00,0.90,0.83,0.34,-0.00,-0.90,-0.83,-0.34,0.0*
%
%ADD81ROTATEDRECTD81*%

G04:AMPARAMS|DCode=82|XSize=1mm|YSize=1.5mm|CornerRadius=0mm|HoleSize=0mm|Usage=FLASHONLY|Rotation=143.000|XOffset=0mm|YOffset=0mm|HoleType=Round|Shape=Rectangle|*
%AMROTATEDRECTD82*
4,1,4,0.85,0.30,-0.05,-0.90,-0.85,-0.30,0.05,0.90,0.85,0.30,0.0*
%
%ADD82ROTATEDRECTD82*%

G04:AMPARAMS|DCode=83|XSize=1mm|YSize=1.5mm|CornerRadius=0mm|HoleSize=0mm|Usage=FLASHONLY|Rotation=334.250|XOffset=0mm|YOffset=0mm|HoleType=Round|Shape=Rectangle|*
%AMROTATEDRECTD83*
4,1,4,-0.78,-0.46,-0.13,0.89,0.78,0.46,0.13,-0.89,-0.78,-0.46,0.0*
%
%ADD83ROTATEDRECTD83*%

G04:AMPARAMS|DCode=84|XSize=1mm|YSize=1.5mm|CornerRadius=0mm|HoleSize=0mm|Usage=FLASHONLY|Rotation=151.000|XOffset=0mm|YOffset=0mm|HoleType=Round|Shape=Rectangle|*
%AMROTATEDRECTD84*
4,1,4,0.80,0.41,0.07,-0.90,-0.80,-0.41,-0.07,0.90,0.80,0.41,0.0*
%
%ADD84ROTATEDRECTD84*%

G04:AMPARAMS|DCode=85|XSize=1mm|YSize=1.5mm|CornerRadius=0mm|HoleSize=0mm|Usage=FLASHONLY|Rotation=345.500|XOffset=0mm|YOffset=0mm|HoleType=Round|Shape=Rectangle|*
%AMROTATEDRECTD85*
4,1,4,-0.67,-0.60,-0.30,0.85,0.67,0.60,0.30,-0.85,-0.67,-0.60,0.0*
%
%ADD85ROTATEDRECTD85*%

G04:AMPARAMS|DCode=86|XSize=1mm|YSize=1.5mm|CornerRadius=0mm|HoleSize=0mm|Usage=FLASHONLY|Rotation=162.250|XOffset=0mm|YOffset=0mm|HoleType=Round|Shape=Rectangle|*
%AMROTATEDRECTD86*
4,1,4,0.70,0.56,0.25,-0.87,-0.70,-0.56,-0.25,0.87,0.70,0.56,0.0*
%
%ADD86ROTATEDRECTD86*%

G04:AMPARAMS|DCode=87|XSize=1mm|YSize=1.5mm|CornerRadius=0mm|HoleSize=0mm|Usage=FLASHONLY|Rotation=83.500|XOffset=0mm|YOffset=0mm|HoleType=Round|Shape=Rectangle|*
%AMROTATEDRECTD87*
4,1,4,0.69,-0.58,-0.80,-0.41,-0.69,0.58,0.80,0.41,0.69,-0.58,0.0*
%
%ADD87ROTATEDRECTD87*%

G04:AMPARAMS|DCode=88|XSize=1mm|YSize=1.5mm|CornerRadius=0mm|HoleSize=0mm|Usage=FLASHONLY|Rotation=266.750|XOffset=0mm|YOffset=0mm|HoleType=Round|Shape=Rectangle|*
%AMROTATEDRECTD88*
4,1,4,-0.72,0.54,0.78,0.46,0.72,-0.54,-0.78,-0.46,-0.72,0.54,0.0*
%
%ADD88ROTATEDRECTD88*%

G04:AMPARAMS|DCode=89|XSize=1mm|YSize=1.5mm|CornerRadius=0mm|HoleSize=0mm|Usage=FLASHONLY|Rotation=255.500|XOffset=0mm|YOffset=0mm|HoleType=Round|Shape=Rectangle|*
%AMROTATEDRECTD89*
4,1,4,-0.60,0.67,0.85,0.30,0.60,-0.67,-0.85,-0.30,-0.60,0.67,0.0*
%
%ADD89ROTATEDRECTD89*%

G04:AMPARAMS|DCode=90|XSize=1mm|YSize=1.5mm|CornerRadius=0mm|HoleSize=0mm|Usage=FLASHONLY|Rotation=78.750|XOffset=0mm|YOffset=0mm|HoleType=Round|Shape=Rectangle|*
%AMROTATEDRECTD90*
4,1,4,0.64,-0.64,-0.83,-0.34,-0.64,0.64,0.83,0.34,0.64,-0.64,0.0*
%
%ADD90ROTATEDRECTD90*%

G04:AMPARAMS|DCode=91|XSize=1mm|YSize=1.5mm|CornerRadius=0mm|HoleSize=0mm|Usage=FLASHONLY|Rotation=67.500|XOffset=0mm|YOffset=0mm|HoleType=Round|Shape=Rectangle|*
%AMROTATEDRECTD91*
4,1,4,0.50,-0.75,-0.88,-0.18,-0.50,0.75,0.88,0.18,0.50,-0.75,0.0*
%
%ADD91ROTATEDRECTD91*%

G04:AMPARAMS|DCode=92|XSize=1mm|YSize=1.5mm|CornerRadius=0mm|HoleSize=0mm|Usage=FLASHONLY|Rotation=244.250|XOffset=0mm|YOffset=0mm|HoleType=Round|Shape=Rectangle|*
%AMROTATEDRECTD92*
4,1,4,-0.46,0.78,0.89,0.13,0.46,-0.78,-0.89,-0.13,-0.46,0.78,0.0*
%
%ADD92ROTATEDRECTD92*%

G04:AMPARAMS|DCode=93|XSize=1mm|YSize=1.5mm|CornerRadius=0mm|HoleSize=0mm|Usage=FLASHONLY|Rotation=56.250|XOffset=0mm|YOffset=0mm|HoleType=Round|Shape=Rectangle|*
%AMROTATEDRECTD93*
4,1,4,0.34,-0.83,-0.90,0.00,-0.34,0.83,0.90,-0.00,0.34,-0.83,0.0*
%
%ADD93ROTATEDRECTD93*%

G04:AMPARAMS|DCode=94|XSize=1mm|YSize=1.5mm|CornerRadius=0mm|HoleSize=0mm|Usage=FLASHONLY|Rotation=233.000|XOffset=0mm|YOffset=0mm|HoleType=Round|Shape=Rectangle|*
%AMROTATEDRECTD94*
4,1,4,-0.30,0.85,0.90,-0.05,0.30,-0.85,-0.90,0.05,-0.30,0.85,0.0*
%
%ADD94ROTATEDRECTD94*%

G04:AMPARAMS|DCode=95|XSize=1mm|YSize=1.5mm|CornerRadius=0mm|HoleSize=0mm|Usage=FLASHONLY|Rotation=173.500|XOffset=0mm|YOffset=0mm|HoleType=Round|Shape=Rectangle|*
%AMROTATEDRECTD95*
4,1,4,0.58,0.69,0.41,-0.80,-0.58,-0.69,-0.41,0.80,0.58,0.69,0.0*
%
%ADD95ROTATEDRECTD95*%

G04:AMPARAMS|DCode=96|XSize=1mm|YSize=1.5mm|CornerRadius=0mm|HoleSize=0mm|Usage=FLASHONLY|Rotation=8.000|XOffset=0mm|YOffset=0mm|HoleType=Round|Shape=Rectangle|*
%AMROTATEDRECTD96*
4,1,4,-0.39,-0.81,-0.60,0.67,0.39,0.81,0.60,-0.67,-0.39,-0.81,0.0*
%
%ADD96ROTATEDRECTD96*%

G04:AMPARAMS|DCode=97|XSize=1mm|YSize=1.5mm|CornerRadius=0mm|HoleSize=0mm|Usage=FLASHONLY|Rotation=191.250|XOffset=0mm|YOffset=0mm|HoleType=Round|Shape=Rectangle|*
%AMROTATEDRECTD97*
4,1,4,0.34,0.83,0.64,-0.64,-0.34,-0.83,-0.64,0.64,0.34,0.83,0.0*
%
%ADD97ROTATEDRECTD97*%

G04:AMPARAMS|DCode=98|XSize=1mm|YSize=1.5mm|CornerRadius=0mm|HoleSize=0mm|Usage=FLASHONLY|Rotation=19.221|XOffset=0mm|YOffset=0mm|HoleType=Round|Shape=Rectangle|*
%AMROTATEDRECTD98*
4,1,4,-0.23,-0.87,-0.72,0.54,0.23,0.87,0.72,-0.54,-0.23,-0.87,0.0*
%
%ADD98ROTATEDRECTD98*%

G04:AMPARAMS|DCode=99|XSize=1mm|YSize=1.5mm|CornerRadius=0mm|HoleSize=0mm|Usage=FLASHONLY|Rotation=202.500|XOffset=0mm|YOffset=0mm|HoleType=Round|Shape=Rectangle|*
%AMROTATEDRECTD99*
4,1,4,0.18,0.88,0.75,-0.50,-0.18,-0.88,-0.75,0.50,0.18,0.88,0.0*
%
%ADD99ROTATEDRECTD99*%

G04:AMPARAMS|DCode=100|XSize=1mm|YSize=1.5mm|CornerRadius=0mm|HoleSize=0mm|Usage=FLASHONLY|Rotation=30.500|XOffset=0mm|YOffset=0mm|HoleType=Round|Shape=Rectangle|*
%AMROTATEDRECTD100*
4,1,4,-0.05,-0.90,-0.81,0.39,0.05,0.90,0.81,-0.39,-0.05,-0.90,0.0*
%
%ADD100ROTATEDRECTD100*%

G04:AMPARAMS|DCode=101|XSize=1mm|YSize=1.5mm|CornerRadius=0mm|HoleSize=0mm|Usage=FLASHONLY|Rotation=213.750|XOffset=0mm|YOffset=0mm|HoleType=Round|Shape=Rectangle|*
%AMROTATEDRECTD101*
4,1,4,-0.00,0.90,0.83,-0.34,0.00,-0.90,-0.83,0.34,-0.00,0.90,0.0*
%
%ADD101ROTATEDRECTD101*%

G04:AMPARAMS|DCode=102|XSize=1mm|YSize=1.5mm|CornerRadius=0mm|HoleSize=0mm|Usage=FLASHONLY|Rotation=38.529|XOffset=0mm|YOffset=0mm|HoleType=Round|Shape=Rectangle|*
%AMROTATEDRECTD102*
4,1,4,0.08,-0.90,-0.86,0.27,-0.08,0.90,0.86,-0.27,0.08,-0.90,0.0*
%
%ADD102ROTATEDRECTD102*%

G04:AMPARAMS|DCode=103|XSize=1mm|YSize=1.5mm|CornerRadius=0mm|HoleSize=0mm|Usage=FLASHONLY|Rotation=247.500|XOffset=0mm|YOffset=0mm|HoleType=Round|Shape=Rectangle|*
%AMROTATEDRECTD103*
4,1,4,-0.50,0.75,0.88,0.18,0.50,-0.75,-0.88,-0.18,-0.50,0.75,0.0*
%
%ADD103ROTATEDRECTD103*%

G04:AMPARAMS|DCode=104|XSize=1mm|YSize=1.5mm|CornerRadius=0mm|HoleSize=0mm|Usage=FLASHONLY|Rotation=266.750|XOffset=0mm|YOffset=0mm|HoleType=Round|Shape=Rectangle|*
%AMROTATEDRECTD104*
4,1,4,-0.72,0.54,0.78,0.46,0.72,-0.54,-0.78,-0.46,-0.72,0.54,0.0*
%
%ADD104ROTATEDRECTD104*%

G04:AMPARAMS|DCode=105|XSize=1mm|YSize=1.5mm|CornerRadius=0mm|HoleSize=0mm|Usage=FLASHONLY|Rotation=281.250|XOffset=0mm|YOffset=0mm|HoleType=Round|Shape=Rectangle|*
%AMROTATEDRECTD105*
4,1,4,-0.83,0.34,0.64,0.64,0.83,-0.34,-0.64,-0.64,-0.83,0.34,0.0*
%
%ADD105ROTATEDRECTD105*%

G04:AMPARAMS|DCode=106|XSize=1mm|YSize=1.5mm|CornerRadius=0mm|HoleSize=0mm|Usage=FLASHONLY|Rotation=138.090|XOffset=0mm|YOffset=0mm|HoleType=Round|Shape=Rectangle|*
%AMROTATEDRECTD106*
4,1,4,0.87,0.22,-0.13,-0.89,-0.87,-0.22,0.13,0.89,0.87,0.22,0.0*
%
%ADD106ROTATEDRECTD106*%

G04:AMPARAMS|DCode=107|XSize=1mm|YSize=1.5mm|CornerRadius=0mm|HoleSize=0mm|Usage=FLASHONLY|Rotation=176.750|XOffset=0mm|YOffset=0mm|HoleType=Round|Shape=Rectangle|*
%AMROTATEDRECTD107*
4,1,4,0.54,0.72,0.46,-0.78,-0.54,-0.72,-0.46,0.78,0.54,0.72,0.0*
%
%ADD107ROTATEDRECTD107*%

G04:AMPARAMS|DCode=108|XSize=1mm|YSize=1.5mm|CornerRadius=0mm|HoleSize=0mm|Usage=FLASHONLY|Rotation=128.530|XOffset=0mm|YOffset=0mm|HoleType=Round|Shape=Rectangle|*
%AMROTATEDRECTD108*
4,1,4,0.90,0.08,-0.27,-0.86,-0.90,-0.08,0.27,0.86,0.90,0.08,0.0*
%
%ADD108ROTATEDRECTD108*%

G04:AMPARAMS|DCode=109|XSize=2mm|YSize=0.58mm|CornerRadius=0.11mm|HoleSize=0mm|Usage=FLASHONLY|Rotation=180.000|XOffset=0mm|YOffset=0mm|HoleType=Round|Shape=RoundedRectangle|*
%AMROUNDEDRECTD109*
21,1,2.00,0.36,0,0,180.0*
21,1,1.78,0.58,0,0,180.0*
1,1,0.22,-0.89,0.18*
1,1,0.22,0.89,0.18*
1,1,0.22,0.89,-0.18*
1,1,0.22,-0.89,-0.18*
%
%ADD109ROUNDEDRECTD109*%
G04:AMPARAMS|DCode=110|XSize=1mm|YSize=1.5mm|CornerRadius=0mm|HoleSize=0mm|Usage=FLASHONLY|Rotation=218.500|XOffset=0mm|YOffset=0mm|HoleType=Round|Shape=Rectangle|*
%AMROTATEDRECTD110*
4,1,4,-0.07,0.90,0.86,-0.27,0.07,-0.90,-0.86,0.27,-0.07,0.90,0.0*
%
%ADD110ROTATEDRECTD110*%

D64*
X23750Y19780D02*
D03*
X23938Y19779D02*
D03*
X20553Y23549D02*
D03*
X20367D02*
D03*
X20143Y16419D02*
D03*
X19957D02*
D03*
D66*
X20002Y23760D02*
D03*
X20002Y23948D02*
D03*
D67*
X22758Y22758D02*
D03*
X17242Y17242D02*
D03*
X22758Y17242D02*
D03*
X17242Y22758D02*
D03*
D68*
X22233Y16200D02*
D03*
X22656Y16483D02*
D03*
X22445Y16342D02*
D03*
X21449Y15838D02*
D03*
X21918Y16032D02*
D03*
X21684Y15935D02*
D03*
X24365Y20609D02*
D03*
X24266Y21108D02*
D03*
X24315Y20858D02*
D03*
X24162Y21449D02*
D03*
X23968Y21918D02*
D03*
X24065Y21684D02*
D03*
X23800Y22233D02*
D03*
X23517Y22656D02*
D03*
X23658Y22445D02*
D03*
X23291Y22932D02*
D03*
X22932Y23291D02*
D03*
X23111Y23111D02*
D03*
X22656Y23517D02*
D03*
X22233Y23800D02*
D03*
X22445Y23658D02*
D03*
X21918Y23968D02*
D03*
X21449Y24162D02*
D03*
X21684Y24065D02*
D03*
X21108Y24266D02*
D03*
X20609Y24365D02*
D03*
X20858Y24315D02*
D03*
X20254Y24400D02*
D03*
X19746D02*
D03*
X20000D02*
D03*
X19391Y24365D02*
D03*
X18892Y24266D02*
D03*
X19142Y24315D02*
D03*
X18551Y24162D02*
D03*
X18082Y23968D02*
D03*
X18316Y24065D02*
D03*
X17767Y23800D02*
D03*
X17344Y23517D02*
D03*
X17555Y23658D02*
D03*
X17068Y23291D02*
D03*
X16709Y22932D02*
D03*
X16889Y23111D02*
D03*
X16483Y22656D02*
D03*
X16200Y22233D02*
D03*
X16342Y22445D02*
D03*
X16032Y21918D02*
D03*
X15838Y21449D02*
D03*
X15935Y21684D02*
D03*
X15734Y21108D02*
D03*
X15635Y20609D02*
D03*
X15685Y20858D02*
D03*
X15600Y20254D02*
D03*
Y19746D02*
D03*
Y20000D02*
D03*
X15635Y19391D02*
D03*
X15734Y18892D02*
D03*
X15685Y19142D02*
D03*
X15838Y18551D02*
D03*
X16032Y18082D02*
D03*
X15935Y18316D02*
D03*
X16200Y17767D02*
D03*
X16483Y17344D02*
D03*
X16342Y17555D02*
D03*
X16709Y17068D02*
D03*
X17068Y16709D02*
D03*
X16889Y16889D02*
D03*
X17344Y16483D02*
D03*
X17767Y16200D02*
D03*
X17555Y16342D02*
D03*
X18082Y16032D02*
D03*
X18551Y15838D02*
D03*
X18316Y15935D02*
D03*
X18892Y15734D02*
D03*
X19391Y15635D02*
D03*
X19142Y15685D02*
D03*
X19746Y15600D02*
D03*
X20254D02*
D03*
X20000D02*
D03*
X20609Y15635D02*
D03*
X21108Y15734D02*
D03*
X20858Y15685D02*
D03*
X22932Y16709D02*
D03*
X23291Y17068D02*
D03*
X23111Y16889D02*
D03*
X23517Y17344D02*
D03*
X23800Y17767D02*
D03*
X23658Y17555D02*
D03*
X23968Y18082D02*
D03*
X24162Y18551D02*
D03*
X24065Y18316D02*
D03*
X24266Y18892D02*
D03*
X24365Y19391D02*
D03*
X24315Y19142D02*
D03*
X24400Y19746D02*
D03*
Y20254D02*
D03*
Y20000D02*
D03*
D69*
X17100Y20875D02*
D03*
D70*
Y20625D02*
D03*
Y20375D02*
D03*
Y20125D02*
D03*
Y19875D02*
D03*
X17100Y19625D02*
D03*
X17100Y19375D02*
D03*
X17100Y19125D02*
D03*
D72*
X22305Y22436D02*
D03*
X22440Y22308D02*
D03*
D73*
X21236Y16453D02*
D03*
X21298Y16276D02*
D03*
X18762Y23551D02*
D03*
X18700Y23728D02*
D03*
D74*
X21087Y16206D02*
D03*
X21036Y16385D02*
D03*
X18913Y23794D02*
D03*
X18964Y23615D02*
D03*
D75*
X20521Y16280D02*
D03*
X20547Y16094D02*
D03*
X19479Y23724D02*
D03*
X19453Y23910D02*
D03*
D76*
X20326Y16067D02*
D03*
X20311Y16252D02*
D03*
D77*
X21835Y16713D02*
D03*
X21930Y16550D02*
D03*
X18179Y23277D02*
D03*
X18084Y23439D02*
D03*
D78*
X22207Y16726D02*
D03*
X22100Y16878D02*
D03*
X17853Y23292D02*
D03*
X17960Y23140D02*
D03*
D79*
X22269Y17006D02*
D03*
X22386Y16859D02*
D03*
D80*
X21737Y16441D02*
D03*
X21651Y16606D02*
D03*
X18279Y23545D02*
D03*
X18364Y23379D02*
D03*
D81*
X23122Y17911D02*
D03*
X23278Y17807D02*
D03*
X16875Y22091D02*
D03*
X16718Y22195D02*
D03*
D82*
X23152Y17624D02*
D03*
X23003Y17736D02*
D03*
X16848Y22376D02*
D03*
X16997Y22264D02*
D03*
D83*
X23382Y18366D02*
D03*
X23552Y18285D02*
D03*
X16614Y21635D02*
D03*
X16445Y21717D02*
D03*
D84*
X23452Y18086D02*
D03*
X23289Y18176D02*
D03*
X16548Y21914D02*
D03*
X16711Y21824D02*
D03*
D85*
X23636Y19058D02*
D03*
X23818Y19010D02*
D03*
X16364Y20942D02*
D03*
X16182Y20990D02*
D03*
D86*
X23759Y18796D02*
D03*
X23582Y18853D02*
D03*
X16241Y21204D02*
D03*
X16418Y21147D02*
D03*
D87*
X19553Y16079D02*
D03*
X19574Y16263D02*
D03*
D88*
X19785Y16250D02*
D03*
X19774Y16062D02*
D03*
D89*
X19058Y16364D02*
D03*
X19010Y16182D02*
D03*
X20943Y23640D02*
D03*
X20991Y23822D02*
D03*
D90*
X19229Y16129D02*
D03*
X19266Y16311D02*
D03*
X20771Y23871D02*
D03*
X20734Y23689D02*
D03*
D91*
X18489Y16354D02*
D03*
X18560Y16526D02*
D03*
D92*
X18366Y16618D02*
D03*
X18285Y16448D02*
D03*
X21635Y23386D02*
D03*
X21717Y23555D02*
D03*
D93*
X17807Y16719D02*
D03*
X17910Y16873D02*
D03*
X22193Y23281D02*
D03*
X22090Y23127D02*
D03*
D94*
X17738Y17001D02*
D03*
X17625Y16851D02*
D03*
X22265Y23002D02*
D03*
X22378Y23152D02*
D03*
D95*
X23917Y19553D02*
D03*
X23733Y19574D02*
D03*
X16079Y20447D02*
D03*
X16263Y20426D02*
D03*
D96*
X23724Y20521D02*
D03*
X23910Y20547D02*
D03*
X16280Y19479D02*
D03*
X16094Y19453D02*
D03*
D97*
X23871Y20769D02*
D03*
X23689Y20733D02*
D03*
X16129Y19231D02*
D03*
X16311Y19267D02*
D03*
D98*
X23551Y21238D02*
D03*
X23728Y21300D02*
D03*
X16453Y18764D02*
D03*
X16276Y18702D02*
D03*
D99*
X23647Y21510D02*
D03*
X23475Y21439D02*
D03*
X16353Y18490D02*
D03*
X16525Y18561D02*
D03*
D100*
X23241Y21907D02*
D03*
X23403Y22002D02*
D03*
X16679Y18163D02*
D03*
X16517Y18068D02*
D03*
D101*
X23282Y22192D02*
D03*
X23127Y22089D02*
D03*
X16638Y17878D02*
D03*
X16793Y17981D02*
D03*
D102*
X22988Y22290D02*
D03*
X23135Y22407D02*
D03*
D103*
X21511Y23646D02*
D03*
X21440Y23474D02*
D03*
D104*
X20224Y23941D02*
D03*
X20214Y23755D02*
D03*
D105*
X19231Y23871D02*
D03*
X19267Y23689D02*
D03*
D106*
X17691Y17567D02*
D03*
X17553Y17691D02*
D03*
D107*
X16250Y20215D02*
D03*
X16062Y20226D02*
D03*
D108*
X17776Y23004D02*
D03*
X17659Y23151D02*
D03*
D109*
X19649Y16605D02*
D03*
X19649Y16670D02*
D03*
X19649Y16735D02*
D03*
X19649Y16800D02*
D03*
X19649Y16865D02*
D03*
X19649Y16930D02*
D03*
X19649Y16995D02*
D03*
X19649Y17060D02*
D03*
X19650Y17125D02*
D03*
X19649Y17190D02*
D03*
X19649Y17255D02*
D03*
X19649Y17320D02*
D03*
X20350Y17320D02*
D03*
X20351Y17255D02*
D03*
X20351Y17190D02*
D03*
X20350Y17125D02*
D03*
X20351Y17060D02*
D03*
X20351Y16995D02*
D03*
X20351Y16930D02*
D03*
X20350Y16865D02*
D03*
X20351Y16800D02*
D03*
X20351Y16735D02*
D03*
X20350Y16670D02*
D03*
X20351Y16605D02*
D03*
X20351Y23395D02*
D03*
Y23330D02*
D03*
X20351Y23265D02*
D03*
Y23200D02*
D03*
X20350Y23135D02*
D03*
X20351Y23070D02*
D03*
X20350Y23005D02*
D03*
Y22940D02*
D03*
X20351Y22875D02*
D03*
X20351Y22810D02*
D03*
X20350Y22745D02*
D03*
X20351Y22680D02*
D03*
X19649Y22680D02*
D03*
X19649Y22745D02*
D03*
X19649Y22810D02*
D03*
X19649Y22875D02*
D03*
X19649Y22940D02*
D03*
X19649Y23005D02*
D03*
X19649Y23070D02*
D03*
X19650Y23135D02*
D03*
X19649Y23200D02*
D03*
X19649Y23265D02*
D03*
X19649Y23330D02*
D03*
X19649Y23395D02*
D03*
D110*
X16932Y17770D02*
D03*
X16785Y17653D02*
D03*
%TF.MD5,47384f9b32185616ecb6c0b817958e4f*%
M02*
