%TF.GenerationSoftware,Altium Limited,Altium Designer,21.8.1 (53)*%
G04 Layer_Color=16711935*
%FSLAX42Y42*%
%MOMM*%
%TF.SameCoordinates,15406810-5A1E-4B15-B108-3B776D23A55A*%
%TF.FilePolarity,Negative*%
%TF.FileFunction,Soldermask,Bot*%
%TF.Part,Single*%
G01*
G75*
%TA.AperFunction,SMDPad,CuDef*%
%ADD64R,1.00X1.50*%
%ADD65R,0.80X1.10*%
%ADD66R,1.50X1.00*%
%TA.AperFunction,ViaPad*%
%ADD67C,5.90*%
%TA.AperFunction,ComponentPad*%
%ADD68C,1.60*%
%ADD69R,1.61X1.61*%
%ADD70C,1.61*%
D64*
X16464Y19648D02*
D03*
X16276Y19648D02*
D03*
X16276Y20122D02*
D03*
X16464Y20122D02*
D03*
X16276Y20372D02*
D03*
X16464Y20372D02*
D03*
X16266Y20622D02*
D03*
X16454Y20622D02*
D03*
X16276Y19872D02*
D03*
X16464Y19872D02*
D03*
D65*
X16295Y19460D02*
D03*
X16445D02*
D03*
D66*
X16469Y19303D02*
D03*
Y19117D02*
D03*
D67*
X22758Y22758D02*
D03*
X17242Y17242D02*
D03*
X22758Y17242D02*
D03*
X17242Y22758D02*
D03*
D68*
X22233Y16200D02*
D03*
X22656Y16483D02*
D03*
X22445Y16342D02*
D03*
X21449Y15838D02*
D03*
X21918Y16032D02*
D03*
X21684Y15935D02*
D03*
X24365Y20609D02*
D03*
X24266Y21108D02*
D03*
X24315Y20858D02*
D03*
X24162Y21449D02*
D03*
X23968Y21918D02*
D03*
X24065Y21684D02*
D03*
X23800Y22233D02*
D03*
X23517Y22656D02*
D03*
X23658Y22445D02*
D03*
X23291Y22932D02*
D03*
X22932Y23291D02*
D03*
X23111Y23111D02*
D03*
X22656Y23517D02*
D03*
X22233Y23800D02*
D03*
X22445Y23658D02*
D03*
X21918Y23968D02*
D03*
X21449Y24162D02*
D03*
X21684Y24065D02*
D03*
X21108Y24266D02*
D03*
X20609Y24365D02*
D03*
X20858Y24315D02*
D03*
X20254Y24400D02*
D03*
X19746D02*
D03*
X20000D02*
D03*
X19391Y24365D02*
D03*
X18892Y24266D02*
D03*
X19142Y24315D02*
D03*
X18551Y24162D02*
D03*
X18082Y23968D02*
D03*
X18316Y24065D02*
D03*
X17767Y23800D02*
D03*
X17344Y23517D02*
D03*
X17555Y23658D02*
D03*
X17068Y23291D02*
D03*
X16709Y22932D02*
D03*
X16889Y23111D02*
D03*
X16483Y22656D02*
D03*
X16200Y22233D02*
D03*
X16342Y22445D02*
D03*
X16032Y21918D02*
D03*
X15838Y21449D02*
D03*
X15935Y21684D02*
D03*
X15734Y21108D02*
D03*
X15635Y20609D02*
D03*
X15685Y20858D02*
D03*
X15600Y20254D02*
D03*
Y19746D02*
D03*
Y20000D02*
D03*
X15635Y19391D02*
D03*
X15734Y18892D02*
D03*
X15685Y19142D02*
D03*
X15838Y18551D02*
D03*
X16032Y18082D02*
D03*
X15935Y18316D02*
D03*
X16200Y17767D02*
D03*
X16483Y17344D02*
D03*
X16342Y17555D02*
D03*
X16709Y17068D02*
D03*
X17068Y16709D02*
D03*
X16889Y16889D02*
D03*
X17344Y16483D02*
D03*
X17767Y16200D02*
D03*
X17555Y16342D02*
D03*
X18082Y16032D02*
D03*
X18551Y15838D02*
D03*
X18316Y15935D02*
D03*
X18892Y15734D02*
D03*
X19391Y15635D02*
D03*
X19142Y15685D02*
D03*
X19746Y15600D02*
D03*
X20254D02*
D03*
X20000D02*
D03*
X20609Y15635D02*
D03*
X21108Y15734D02*
D03*
X20858Y15685D02*
D03*
X22932Y16709D02*
D03*
X23291Y17068D02*
D03*
X23111Y16889D02*
D03*
X23517Y17344D02*
D03*
X23800Y17767D02*
D03*
X23658Y17555D02*
D03*
X23968Y18082D02*
D03*
X24162Y18551D02*
D03*
X24065Y18316D02*
D03*
X24266Y18892D02*
D03*
X24365Y19391D02*
D03*
X24315Y19142D02*
D03*
X24400Y19746D02*
D03*
Y20254D02*
D03*
Y20000D02*
D03*
D69*
X17100Y20875D02*
D03*
D70*
Y20625D02*
D03*
Y20375D02*
D03*
Y20125D02*
D03*
Y19875D02*
D03*
X17100Y19625D02*
D03*
X17100Y19375D02*
D03*
X17100Y19125D02*
D03*
%TF.MD5,ec33b45f40b554b46f9ec5381731e02d*%
M02*
