%TF.GenerationSoftware,Altium Limited,Altium Designer,21.8.1 (53)*%
G04 Layer_Color=65535*
%FSLAX42Y42*%
%MOMM*%
%TF.SameCoordinates,C9F6AB32-9906-4CC4-A0B2-EEC73C5AD028*%
%TF.FilePolarity,Positive*%
%TF.FileFunction,Legend,Bot*%
%TF.Part,Single*%
G01*
G75*
%TA.AperFunction,NonConductor*%
%ADD79C,0.20*%
%ADD80C,0.25*%
%ADD81C,0.13*%
%ADD82C,0.15*%
%ADD83C,0.25*%
%ADD84C,0.12*%
%ADD85C,0.30*%
G36*
X21471Y15016D02*
X21472Y15015D01*
X21472Y15014D01*
X21475Y15013D01*
X21476Y15012D01*
X21478Y15011D01*
X21479Y15012D01*
X21479Y15013D01*
X21480Y15015D01*
X21483Y15013D01*
X21488Y15008D01*
X21491Y15007D01*
X21492Y15006D01*
X21494Y15005D01*
X21495Y15004D01*
X21496Y15003D01*
X21499Y15001D01*
X21500Y15000D01*
X21501Y14999D01*
X21502Y14999D01*
X21503Y14998D01*
X21503Y14997D01*
X21505Y14996D01*
X21505Y14995D01*
X21506Y14995D01*
X21506Y14994D01*
X21507Y14993D01*
X21508Y14992D01*
X21509Y14991D01*
X21513Y14982D01*
X21514Y14978D01*
X21515Y14976D01*
X21515Y14972D01*
X21516Y14965D01*
X21515Y14951D01*
X21515Y14949D01*
X21513Y14947D01*
X21512Y14942D01*
X21512Y14941D01*
X21512Y14933D01*
X21511Y14932D01*
X21510Y14930D01*
X21509Y14929D01*
X21508Y14926D01*
X21507Y14924D01*
X21507Y14923D01*
X21505Y14922D01*
X21505Y14921D01*
X21504Y14920D01*
X21501Y14920D01*
X21497Y14920D01*
X21494Y14922D01*
X21493Y14922D01*
X21491Y14921D01*
X21491Y14919D01*
X21492Y14919D01*
X21494Y14918D01*
X21497Y14916D01*
X21501Y14913D01*
X21503Y14912D01*
X21504Y14911D01*
X21506Y14909D01*
X21507Y14908D01*
X21508Y14907D01*
X21508Y14906D01*
X21509Y14905D01*
X21510Y14903D01*
X21513Y14897D01*
X21515Y14893D01*
X21515Y14891D01*
X21516Y14884D01*
X21517Y14881D01*
X21517Y14878D01*
X21517Y14874D01*
X21518Y14871D01*
X21518Y14869D01*
X21519Y14867D01*
X21519Y14862D01*
X21520Y14857D01*
X21520Y14855D01*
X21521Y14853D01*
X21521Y14849D01*
X21522Y14844D01*
X21522Y14842D01*
X21523Y14840D01*
X21523Y14834D01*
X21524Y14828D01*
X21525Y14822D01*
X21525Y14819D01*
X21526Y14812D01*
X21526Y14807D01*
X21526Y14804D01*
X21527Y14800D01*
X21527Y14787D01*
X21527Y14759D01*
X21527Y14758D01*
X21526Y14755D01*
X21525Y14751D01*
X21524Y14750D01*
X21523Y14748D01*
X21522Y14747D01*
X21522Y14746D01*
X21518Y14743D01*
X21517Y14742D01*
X21516Y14740D01*
X21516Y14737D01*
X21516Y14736D01*
X21517Y14734D01*
X21517Y14731D01*
X21518Y14728D01*
X21518Y14727D01*
X21519Y14724D01*
X21520Y14718D01*
X21521Y14714D01*
X21522Y14708D01*
X21523Y14706D01*
X21523Y14705D01*
X21524Y14701D01*
X21525Y14696D01*
X21526Y14692D01*
X21527Y14690D01*
X21527Y14688D01*
X21528Y14686D01*
X21529Y14683D01*
X21530Y14680D01*
X21532Y14676D01*
X21533Y14674D01*
X21534Y14672D01*
X21536Y14668D01*
X21537Y14666D01*
X21541Y14658D01*
X21543Y14655D01*
X21544Y14654D01*
X21544Y14653D01*
X21545Y14652D01*
X21546Y14651D01*
X21547Y14650D01*
X21547Y14649D01*
X21549Y14647D01*
X21552Y14645D01*
X21554Y14645D01*
X21557Y14645D01*
X21559Y14643D01*
X21561Y14643D01*
X21564Y14642D01*
X21564Y14642D01*
X21566Y14641D01*
X21568Y14640D01*
X21569Y14639D01*
X21572Y14638D01*
X21573Y14637D01*
X21576Y14635D01*
X21579Y14633D01*
X21581Y14631D01*
X21582Y14631D01*
X21583Y14630D01*
X21584Y14629D01*
X21585Y14628D01*
X21588Y14626D01*
X21588Y14626D01*
X21589Y14625D01*
X21590Y14624D01*
X21590Y14624D01*
X21591Y14623D01*
X21595Y14619D01*
X21595Y14618D01*
X21596Y14617D01*
X21597Y14616D01*
X21599Y14614D01*
X21600Y14612D01*
X21600Y14611D01*
X21602Y14609D01*
X21603Y14608D01*
X21604Y14606D01*
X21606Y14603D01*
X21606Y14602D01*
X21610Y14595D01*
X21612Y14591D01*
X21615Y14587D01*
X21616Y14586D01*
X21617Y14585D01*
X21620Y14579D01*
X21621Y14578D01*
X21624Y14572D01*
X21625Y14571D01*
X21626Y14570D01*
X21627Y14568D01*
X21629Y14565D01*
X21631Y14562D01*
X21635Y14554D01*
X21636Y14552D01*
X21636Y14551D01*
X21637Y14550D01*
X21638Y14547D01*
X21640Y14545D01*
X21640Y14542D01*
X21641Y14542D01*
X21642Y14539D01*
X21643Y14536D01*
X21644Y14533D01*
X21645Y14531D01*
X21645Y14530D01*
X21646Y14530D01*
X21648Y14529D01*
X21650Y14529D01*
X21652Y14528D01*
X21655Y14527D01*
X21658Y14526D01*
X21659Y14525D01*
X21663Y14524D01*
X21663Y14523D01*
X21666Y14522D01*
X21667Y14521D01*
X21669Y14520D01*
X21671Y14518D01*
X21672Y14518D01*
X21672Y14517D01*
X21673Y14517D01*
X21675Y14514D01*
X21677Y14513D01*
X21678Y14512D01*
X21679Y14511D01*
X21679Y14511D01*
X21681Y14509D01*
X21681Y14509D01*
X21682Y14508D01*
X21683Y14507D01*
X21683Y14507D01*
X21684Y14506D01*
X21685Y14506D01*
X21685Y14505D01*
X21687Y14503D01*
X21687Y14502D01*
X21688Y14502D01*
X21689Y14499D01*
X21690Y14498D01*
X21692Y14496D01*
X21695Y14492D01*
X21695Y14490D01*
X21696Y14489D01*
X21697Y14486D01*
X21698Y14484D01*
X21699Y14481D01*
X21700Y14480D01*
X21701Y14478D01*
X21702Y14477D01*
X21703Y14475D01*
X21704Y14474D01*
X21706Y14471D01*
X21708Y14467D01*
X21709Y14466D01*
X21709Y14465D01*
X21711Y14463D01*
X21712Y14461D01*
X21714Y14458D01*
X21715Y14457D01*
X21715Y14455D01*
X21716Y14454D01*
X21717Y14452D01*
X21718Y14451D01*
X21718Y14450D01*
X21723Y14440D01*
X21724Y14438D01*
X21724Y14438D01*
X21725Y14435D01*
X21727Y14431D01*
X21727Y14429D01*
X21729Y14425D01*
X21730Y14423D01*
X21731Y14419D01*
X21732Y14417D01*
X21733Y14415D01*
X21733Y14413D01*
X21734Y14411D01*
X21735Y14408D01*
X21736Y14405D01*
X21737Y14403D01*
X21737Y14400D01*
X21738Y14397D01*
X21739Y14393D01*
X21739Y14391D01*
X21740Y14386D01*
X21741Y14381D01*
X21741Y14375D01*
X21742Y14372D01*
X21742Y14369D01*
X21742Y14368D01*
X21743Y14365D01*
X21744Y14361D01*
X21744Y14360D01*
X21745Y14355D01*
X21746Y14349D01*
X21747Y14345D01*
X21748Y14341D01*
X21749Y14339D01*
X21749Y14337D01*
X21750Y14332D01*
X21751Y14329D01*
X21752Y14326D01*
X21752Y14324D01*
X21753Y14322D01*
X21754Y14317D01*
X21754Y14316D01*
X21755Y14313D01*
X21756Y14310D01*
X21757Y14307D01*
X21758Y14305D01*
X21758Y14302D01*
X21759Y14300D01*
X21760Y14296D01*
X21761Y14293D01*
X21762Y14292D01*
X21762Y14289D01*
X21763Y14289D01*
X21764Y14285D01*
X21766Y14281D01*
X21766Y14280D01*
X21768Y14276D01*
X21769Y14273D01*
X21769Y14273D01*
X21770Y14271D01*
X21775Y14261D01*
X21776Y14260D01*
X21776Y14258D01*
X21778Y14257D01*
X21779Y14255D01*
X21782Y14251D01*
X21784Y14249D01*
X21784Y14249D01*
X21785Y14248D01*
X21785Y14248D01*
X21786Y14247D01*
X21790Y14244D01*
X21790Y14243D01*
X21795Y14239D01*
X21796Y14239D01*
X21805Y14230D01*
X21805Y14229D01*
X21806Y14229D01*
X21806Y14228D01*
X21807Y14227D01*
X21807Y14226D01*
X21808Y14226D01*
X21808Y14225D01*
X21811Y14223D01*
X21811Y14222D01*
X21813Y14220D01*
X21814Y14219D01*
X21815Y14218D01*
X21815Y14217D01*
X21816Y14217D01*
X21818Y14214D01*
X21819Y14213D01*
X21822Y14208D01*
X21825Y14205D01*
X21826Y14204D01*
X21830Y14200D01*
X21831Y14200D01*
X21831Y14199D01*
X21832Y14198D01*
X21832Y14198D01*
X21838Y14192D01*
X21839Y14192D01*
X21842Y14189D01*
X21843Y14188D01*
X21845Y14187D01*
X21846Y14186D01*
X21847Y14184D01*
X21848Y14184D01*
X21849Y14183D01*
X21852Y14181D01*
X21852Y14180D01*
X21850Y14178D01*
X21848Y14176D01*
X21843Y14174D01*
X21840Y14170D01*
X21838Y14170D01*
X21834Y14172D01*
X21831Y14173D01*
X21829Y14174D01*
X21827Y14174D01*
X21823Y14176D01*
X21821Y14175D01*
X21820Y14173D01*
X21822Y14170D01*
X21823Y14170D01*
X21824Y14168D01*
X21826Y14167D01*
X21827Y14166D01*
X21829Y14165D01*
X21830Y14164D01*
X21834Y14163D01*
X21837Y14162D01*
X21838Y14161D01*
X21837Y14160D01*
X21832Y14160D01*
X21832Y14158D01*
X21832Y14158D01*
X21835Y14156D01*
X21838Y14156D01*
X21840Y14155D01*
X21840Y14155D01*
X21839Y14154D01*
X21833Y14153D01*
X21830Y14152D01*
X21829Y14152D01*
X21826Y14151D01*
X21825Y14150D01*
X21828Y14142D01*
X21828Y14140D01*
X21824Y14139D01*
X21822Y14138D01*
X21819Y14138D01*
X21811Y14138D01*
X21807Y14139D01*
X21806Y14138D01*
X21804Y14137D01*
X21803Y14136D01*
X21804Y14135D01*
X21805Y14134D01*
X21805Y14132D01*
X21805Y14131D01*
X21803Y14130D01*
X21801Y14130D01*
X21798Y14129D01*
X21793Y14129D01*
X21787Y14128D01*
X21776Y14128D01*
X21775Y14129D01*
X21770Y14129D01*
X21767Y14130D01*
X21766Y14130D01*
X21767Y14128D01*
X21769Y14126D01*
X21770Y14124D01*
X21771Y14124D01*
X21772Y14123D01*
X21772Y14122D01*
X21774Y14120D01*
X21775Y14119D01*
X21776Y14119D01*
X21776Y14118D01*
X21777Y14117D01*
X21793Y14101D01*
X21794Y14100D01*
X21798Y14097D01*
X21798Y14096D01*
X21800Y14094D01*
X21801Y14094D01*
X21801Y14093D01*
X21802Y14093D01*
X21805Y14091D01*
X21806Y14090D01*
X21807Y14088D01*
X21808Y14088D01*
X21810Y14087D01*
X21812Y14086D01*
X21812Y14085D01*
X21815Y14083D01*
X21815Y14083D01*
X21818Y14081D01*
X21818Y14080D01*
X21821Y14079D01*
X21824Y14077D01*
X21824Y14077D01*
X21826Y14076D01*
X21827Y14075D01*
X21829Y14074D01*
X21830Y14074D01*
X21831Y14073D01*
X21834Y14072D01*
X21837Y14070D01*
X21838Y14070D01*
X21839Y14068D01*
X21840Y14066D01*
X21841Y14065D01*
X21842Y14063D01*
X21845Y14059D01*
X21847Y14057D01*
X21851Y14050D01*
X21854Y14046D01*
X21854Y14045D01*
X21855Y14044D01*
X21856Y14042D01*
X21857Y14041D01*
X21859Y14038D01*
X21862Y14034D01*
X21862Y14033D01*
X21863Y14032D01*
X21865Y14029D01*
X21868Y14024D01*
X21868Y14023D01*
X21870Y14022D01*
X21870Y14020D01*
X21872Y14019D01*
X21873Y14016D01*
X21875Y14014D01*
X21876Y14013D01*
X21876Y14011D01*
X21878Y14009D01*
X21878Y14007D01*
X21880Y14006D01*
X21880Y14004D01*
X21882Y14003D01*
X21882Y14001D01*
X21884Y13999D01*
X21885Y13997D01*
X21887Y13994D01*
X21888Y13993D01*
X21891Y13987D01*
X21892Y13986D01*
X21897Y13977D01*
X21898Y13976D01*
X21903Y13967D01*
X21904Y13966D01*
X21905Y13964D01*
X21906Y13963D01*
X21908Y13960D01*
X21909Y13957D01*
X21910Y13956D01*
X21911Y13954D01*
X21912Y13953D01*
X21914Y13949D01*
X21916Y13946D01*
X21918Y13942D01*
X21920Y13939D01*
X21922Y13935D01*
X21923Y13935D01*
X21923Y13933D01*
X21924Y13932D01*
X21925Y13930D01*
X21927Y13927D01*
X21927Y13926D01*
X21928Y13925D01*
X21929Y13923D01*
X21929Y13922D01*
X21930Y13921D01*
X21931Y13919D01*
X21932Y13918D01*
X21932Y13917D01*
X21936Y13910D01*
X21938Y13907D01*
X21942Y13899D01*
X21945Y13895D01*
X21945Y13893D01*
X21946Y13893D01*
X21947Y13890D01*
X21948Y13888D01*
X21949Y13887D01*
X21950Y13885D01*
X21951Y13884D01*
X21952Y13881D01*
X21953Y13879D01*
X21954Y13877D01*
X21954Y13876D01*
X21955Y13876D01*
X21956Y13873D01*
X21957Y13870D01*
X21966Y13852D01*
X21967Y13851D01*
X21968Y13849D01*
X21970Y13845D01*
X21970Y13844D01*
X21971Y13842D01*
X21972Y13840D01*
X21974Y13837D01*
X21974Y13835D01*
X21975Y13834D01*
X21976Y13832D01*
X21976Y13831D01*
X21977Y13830D01*
X21978Y13826D01*
X21980Y13824D01*
X21980Y13822D01*
X21982Y13817D01*
X21984Y13814D01*
X21985Y13811D01*
X21985Y13810D01*
X21986Y13807D01*
X21988Y13803D01*
X21988Y13801D01*
X21990Y13799D01*
X21990Y13796D01*
X21992Y13793D01*
X21992Y13791D01*
X21994Y13787D01*
X21995Y13785D01*
X21996Y13782D01*
X21996Y13781D01*
X21997Y13778D01*
X21998Y13776D01*
X21999Y13771D01*
X22000Y13769D01*
X22001Y13765D01*
X22002Y13760D01*
X22003Y13757D01*
X22003Y13755D01*
X22003Y13740D01*
X22002Y13739D01*
X21999Y13738D01*
X21664Y13738D01*
X21663Y13737D01*
X21487Y13737D01*
X21486Y13737D01*
X21377Y13736D01*
X21377Y13737D01*
X21375Y13736D01*
X21048Y13736D01*
X21047Y13735D01*
X20879Y13735D01*
X20878Y13734D01*
X20873Y13735D01*
X20840Y13734D01*
X20839Y13735D01*
X20837Y13739D01*
X20836Y13745D01*
X20835Y13750D01*
X20835Y13753D01*
X20834Y13756D01*
X20833Y13758D01*
X20833Y13760D01*
X20833Y13764D01*
X20832Y13769D01*
X20831Y13771D01*
X20830Y13777D01*
X20830Y13781D01*
X20829Y13783D01*
X20829Y13785D01*
X20829Y13791D01*
X20828Y13794D01*
X20827Y13799D01*
X20827Y13803D01*
X20826Y13811D01*
X20826Y13822D01*
X20825Y13834D01*
X20825Y13862D01*
X20826Y13863D01*
X20826Y13870D01*
X20827Y13874D01*
X20827Y13880D01*
X20827Y13881D01*
X20828Y13883D01*
X20829Y13889D01*
X20829Y13892D01*
X20830Y13894D01*
X20830Y13897D01*
X20832Y13902D01*
X20833Y13904D01*
X20833Y13908D01*
X20835Y13912D01*
X20835Y13914D01*
X20836Y13915D01*
X20837Y13918D01*
X20838Y13920D01*
X20839Y13923D01*
X20844Y13933D01*
X20846Y13936D01*
X20847Y13937D01*
X20848Y13939D01*
X20852Y13944D01*
X20853Y13945D01*
X20853Y13946D01*
X20855Y13948D01*
X20856Y13949D01*
X20859Y13952D01*
X20860Y13953D01*
X20862Y13955D01*
X20863Y13955D01*
X20864Y13956D01*
X20865Y13957D01*
X20866Y13958D01*
X20868Y13959D01*
X20873Y13962D01*
X20874Y13963D01*
X20877Y13964D01*
X20879Y13965D01*
X20882Y13966D01*
X20892Y13970D01*
X20893Y13971D01*
X20894Y13972D01*
X20896Y13973D01*
X20898Y13973D01*
X20900Y13974D01*
X20903Y13975D01*
X20903Y13976D01*
X20906Y13977D01*
X20909Y13979D01*
X20919Y13984D01*
X20922Y13985D01*
X20922Y13985D01*
X20923Y13986D01*
X20926Y13987D01*
X20927Y13988D01*
X20929Y13989D01*
X20932Y13991D01*
X20933Y13991D01*
X20934Y13992D01*
X20936Y13993D01*
X20937Y13993D01*
X20938Y13994D01*
X20941Y13996D01*
X20944Y13998D01*
X20945Y13999D01*
X20947Y13999D01*
X20947Y14000D01*
X20950Y14002D01*
X20952Y14003D01*
X20953Y14004D01*
X20955Y14005D01*
X20957Y14006D01*
X20960Y14008D01*
X20961Y14009D01*
X20963Y14010D01*
X20964Y14011D01*
X20966Y14013D01*
X20971Y14017D01*
X20972Y14017D01*
X20973Y14018D01*
X20974Y14019D01*
X20976Y14020D01*
X20978Y14021D01*
X20978Y14022D01*
X20980Y14024D01*
X20981Y14024D01*
X20983Y14026D01*
X20983Y14026D01*
X20987Y14029D01*
X20988Y14030D01*
X20998Y14040D01*
X20999Y14041D01*
X21002Y14044D01*
X21002Y14045D01*
X21004Y14047D01*
X21004Y14048D01*
X21005Y14049D01*
X21006Y14050D01*
X21008Y14053D01*
X21008Y14053D01*
X21010Y14055D01*
X21013Y14061D01*
X21017Y14068D01*
X21017Y14069D01*
X21018Y14069D01*
X21019Y14070D01*
X21021Y14072D01*
X21021Y14073D01*
X21021Y14073D01*
X21022Y14074D01*
X21023Y14075D01*
X21023Y14076D01*
X21024Y14076D01*
X21024Y14077D01*
X21026Y14079D01*
X21027Y14081D01*
X21028Y14082D01*
X21029Y14084D01*
X21030Y14085D01*
X21031Y14088D01*
X21032Y14090D01*
X21033Y14094D01*
X21034Y14097D01*
X21035Y14106D01*
X21034Y14112D01*
X21033Y14114D01*
X21033Y14116D01*
X21032Y14118D01*
X21031Y14119D01*
X21030Y14121D01*
X21029Y14122D01*
X21029Y14123D01*
X21027Y14125D01*
X21026Y14126D01*
X21021Y14131D01*
X21020Y14132D01*
X21019Y14133D01*
X21018Y14133D01*
X21015Y14136D01*
X21014Y14136D01*
X21013Y14137D01*
X21011Y14138D01*
X21010Y14139D01*
X21007Y14140D01*
X21006Y14141D01*
X21004Y14142D01*
X21002Y14143D01*
X20999Y14145D01*
X20998Y14145D01*
X20996Y14147D01*
X20993Y14148D01*
X20992Y14149D01*
X20990Y14150D01*
X20989Y14151D01*
X20987Y14152D01*
X20982Y14154D01*
X20978Y14156D01*
X20977Y14156D01*
X20973Y14158D01*
X20969Y14158D01*
X20967Y14159D01*
X20964Y14160D01*
X20957Y14160D01*
X20953Y14161D01*
X20951Y14162D01*
X20952Y14181D01*
X20951Y14195D01*
X20951Y14202D01*
X20950Y14206D01*
X20950Y14210D01*
X20949Y14212D01*
X20948Y14218D01*
X20947Y14221D01*
X20947Y14224D01*
X20945Y14228D01*
X20945Y14230D01*
X20943Y14234D01*
X20942Y14235D01*
X20941Y14236D01*
X20940Y14239D01*
X20939Y14241D01*
X20938Y14256D01*
X20939Y14258D01*
X20939Y14270D01*
X20940Y14271D01*
X20940Y14273D01*
X20940Y14276D01*
X20941Y14278D01*
X20941Y14281D01*
X20942Y14283D01*
X20943Y14286D01*
X20945Y14290D01*
X20945Y14292D01*
X20946Y14293D01*
X20947Y14295D01*
X20948Y14296D01*
X20950Y14298D01*
X20953Y14302D01*
X20957Y14304D01*
X20968Y14304D01*
X21017Y14305D01*
X21107Y14304D01*
X21108Y14304D01*
X21124Y14303D01*
X21125Y14303D01*
X21147Y14302D01*
X21152Y14302D01*
X21156Y14301D01*
X21160Y14301D01*
X21165Y14301D01*
X21178Y14300D01*
X21182Y14300D01*
X21214Y14301D01*
X21226Y14301D01*
X21240Y14302D01*
X21306Y14302D01*
X21307Y14302D01*
X21322Y14301D01*
X21340Y14300D01*
X21344Y14300D01*
X21347Y14299D01*
X21353Y14299D01*
X21358Y14298D01*
X21360Y14298D01*
X21362Y14297D01*
X21364Y14296D01*
X21367Y14296D01*
X21372Y14294D01*
X21375Y14294D01*
X21378Y14293D01*
X21381Y14292D01*
X21384Y14292D01*
X21387Y14291D01*
X21389Y14290D01*
X21391Y14290D01*
X21394Y14289D01*
X21395Y14288D01*
X21400Y14287D01*
X21403Y14286D01*
X21406Y14286D01*
X21411Y14284D01*
X21415Y14284D01*
X21418Y14285D01*
X21422Y14288D01*
X21424Y14289D01*
X21430Y14294D01*
X21434Y14298D01*
X21438Y14306D01*
X21438Y14310D01*
X21439Y14311D01*
X21439Y14313D01*
X21439Y14318D01*
X21438Y14320D01*
X21437Y14323D01*
X21436Y14326D01*
X21435Y14326D01*
X21434Y14328D01*
X21434Y14329D01*
X21431Y14331D01*
X21430Y14332D01*
X21429Y14333D01*
X21428Y14333D01*
X21423Y14338D01*
X21423Y14339D01*
X21422Y14339D01*
X21421Y14341D01*
X21419Y14343D01*
X21419Y14343D01*
X21418Y14345D01*
X21417Y14346D01*
X21415Y14347D01*
X21415Y14348D01*
X21414Y14349D01*
X21414Y14350D01*
X21412Y14352D01*
X21410Y14355D01*
X21409Y14355D01*
X21408Y14357D01*
X21406Y14360D01*
X21406Y14361D01*
X21404Y14364D01*
X21402Y14368D01*
X21401Y14370D01*
X21401Y14371D01*
X21399Y14373D01*
X21399Y14375D01*
X21398Y14376D01*
X21397Y14378D01*
X21397Y14380D01*
X21395Y14381D01*
X21394Y14383D01*
X21393Y14384D01*
X21392Y14386D01*
X21390Y14389D01*
X21389Y14391D01*
X21386Y14396D01*
X21383Y14403D01*
X21381Y14407D01*
X21380Y14410D01*
X21379Y14412D01*
X21379Y14415D01*
X21378Y14419D01*
X21377Y14421D01*
X21377Y14423D01*
X21376Y14426D01*
X21375Y14428D01*
X21375Y14430D01*
X21375Y14434D01*
X21373Y14443D01*
X21374Y14453D01*
X21374Y14454D01*
X21375Y14456D01*
X21375Y14458D01*
X21376Y14459D01*
X21377Y14461D01*
X21378Y14462D01*
X21381Y14463D01*
X21383Y14465D01*
X21384Y14465D01*
X21385Y14466D01*
X21387Y14468D01*
X21388Y14468D01*
X21389Y14469D01*
X21388Y14469D01*
X21386Y14470D01*
X21383Y14471D01*
X21382Y14471D01*
X21377Y14472D01*
X21375Y14472D01*
X21373Y14473D01*
X21371Y14473D01*
X21367Y14474D01*
X21363Y14475D01*
X21362Y14476D01*
X21358Y14476D01*
X21356Y14477D01*
X21354Y14478D01*
X21350Y14478D01*
X21347Y14479D01*
X21344Y14480D01*
X21340Y14481D01*
X21336Y14482D01*
X21332Y14484D01*
X21329Y14484D01*
X21325Y14486D01*
X21322Y14486D01*
X21320Y14487D01*
X21318Y14488D01*
X21312Y14490D01*
X21311Y14490D01*
X21307Y14492D01*
X21305Y14493D01*
X21304Y14493D01*
X21303Y14494D01*
X21301Y14495D01*
X21300Y14496D01*
X21298Y14496D01*
X21293Y14498D01*
X21291Y14499D01*
X21287Y14502D01*
X21284Y14503D01*
X21284Y14504D01*
X21281Y14505D01*
X21278Y14508D01*
X21275Y14510D01*
X21274Y14511D01*
X21273Y14513D01*
X21272Y14513D01*
X21270Y14514D01*
X21270Y14515D01*
X21268Y14516D01*
X21267Y14517D01*
X21265Y14518D01*
X21264Y14519D01*
X21263Y14521D01*
X21262Y14521D01*
X21260Y14523D01*
X21259Y14523D01*
X21256Y14527D01*
X21255Y14527D01*
X21252Y14530D01*
X21251Y14531D01*
X21247Y14535D01*
X21246Y14535D01*
X21246Y14536D01*
X21244Y14537D01*
X21242Y14539D01*
X21241Y14540D01*
X21241Y14541D01*
X21240Y14542D01*
X21236Y14545D01*
X21236Y14546D01*
X21235Y14547D01*
X21234Y14547D01*
X21231Y14548D01*
X21228Y14549D01*
X21226Y14549D01*
X21224Y14550D01*
X21222Y14550D01*
X21220Y14548D01*
X21219Y14547D01*
X21218Y14547D01*
X21217Y14545D01*
X21215Y14544D01*
X21215Y14543D01*
X21214Y14543D01*
X21212Y14540D01*
X21211Y14539D01*
X21210Y14538D01*
X21210Y14537D01*
X21206Y14534D01*
X21205Y14533D01*
X21204Y14531D01*
X21203Y14530D01*
X21202Y14529D01*
X21201Y14528D01*
X21200Y14526D01*
X21198Y14523D01*
X21196Y14519D01*
X21193Y14514D01*
X21193Y14509D01*
X21192Y14508D01*
X21192Y14505D01*
X21191Y14503D01*
X21191Y14500D01*
X21190Y14497D01*
X21189Y14494D01*
X21187Y14493D01*
X21187Y14492D01*
X21186Y14490D01*
X21185Y14490D01*
X21181Y14488D01*
X21179Y14489D01*
X21176Y14490D01*
X21172Y14492D01*
X21171Y14492D01*
X21169Y14493D01*
X21166Y14494D01*
X21162Y14495D01*
X21158Y14496D01*
X21154Y14496D01*
X21146Y14496D01*
X21133Y14497D01*
X21132Y14497D01*
X21130Y14498D01*
X21127Y14498D01*
X21125Y14499D01*
X21121Y14500D01*
X21120Y14501D01*
X21118Y14502D01*
X21115Y14504D01*
X21115Y14504D01*
X21114Y14505D01*
X21114Y14506D01*
X21112Y14507D01*
X21111Y14510D01*
X21110Y14512D01*
X21111Y14514D01*
X21113Y14516D01*
X21115Y14517D01*
X21118Y14518D01*
X21126Y14518D01*
X21134Y14519D01*
X21137Y14519D01*
X21141Y14520D01*
X21147Y14521D01*
X21149Y14521D01*
X21153Y14522D01*
X21155Y14523D01*
X21157Y14523D01*
X21158Y14524D01*
X21160Y14525D01*
X21162Y14525D01*
X21163Y14526D01*
X21165Y14527D01*
X21166Y14528D01*
X21167Y14529D01*
X21170Y14531D01*
X21174Y14535D01*
X21174Y14535D01*
X21175Y14536D01*
X21176Y14537D01*
X21177Y14538D01*
X21178Y14539D01*
X21179Y14539D01*
X21180Y14541D01*
X21181Y14542D01*
X21182Y14542D01*
X21182Y14543D01*
X21183Y14543D01*
X21183Y14544D01*
X21185Y14546D01*
X21186Y14547D01*
X21187Y14548D01*
X21188Y14551D01*
X21189Y14551D01*
X21190Y14554D01*
X21193Y14560D01*
X21194Y14562D01*
X21194Y14565D01*
X21192Y14565D01*
X21183Y14566D01*
X21181Y14566D01*
X21174Y14567D01*
X21171Y14568D01*
X21169Y14569D01*
X21165Y14570D01*
X21163Y14571D01*
X21160Y14572D01*
X21159Y14573D01*
X21157Y14574D01*
X21156Y14574D01*
X21155Y14575D01*
X21153Y14577D01*
X21152Y14577D01*
X21151Y14578D01*
X21149Y14580D01*
X21148Y14580D01*
X21147Y14581D01*
X21145Y14583D01*
X21142Y14584D01*
X21141Y14585D01*
X21138Y14587D01*
X21135Y14589D01*
X21128Y14592D01*
X21124Y14594D01*
X21121Y14594D01*
X21118Y14596D01*
X21112Y14596D01*
X21110Y14597D01*
X21108Y14598D01*
X21106Y14599D01*
X21105Y14599D01*
X21103Y14600D01*
X21101Y14600D01*
X21097Y14602D01*
X21093Y14604D01*
X21091Y14605D01*
X21089Y14606D01*
X21086Y14607D01*
X21086Y14608D01*
X21083Y14609D01*
X21082Y14610D01*
X21080Y14611D01*
X21079Y14611D01*
X21078Y14612D01*
X21075Y14614D01*
X21072Y14616D01*
X21068Y14616D01*
X21066Y14614D01*
X21065Y14613D01*
X21065Y14611D01*
X21063Y14608D01*
X21063Y14607D01*
X21062Y14603D01*
X21062Y14601D01*
X21061Y14599D01*
X21061Y14593D01*
X21060Y14590D01*
X21059Y14589D01*
X21059Y14584D01*
X21058Y14577D01*
X21057Y14572D01*
X21058Y14562D01*
X21058Y14561D01*
X21058Y14556D01*
X21058Y14554D01*
X21058Y14550D01*
X21057Y14549D01*
X21057Y14547D01*
X21055Y14545D01*
X21054Y14543D01*
X21052Y14543D01*
X21049Y14542D01*
X21049Y14542D01*
X21049Y14539D01*
X21051Y14537D01*
X21054Y14537D01*
X21062Y14536D01*
X21062Y14535D01*
X21065Y14534D01*
X21066Y14532D01*
X21068Y14528D01*
X21070Y14527D01*
X21072Y14526D01*
X21073Y14526D01*
X21075Y14526D01*
X21076Y14526D01*
X21077Y14524D01*
X21078Y14520D01*
X21078Y14518D01*
X21079Y14516D01*
X21079Y14513D01*
X21080Y14508D01*
X21080Y14506D01*
X21081Y14503D01*
X21081Y14489D01*
X21080Y14486D01*
X21079Y14481D01*
X21078Y14480D01*
X21078Y14480D01*
X21077Y14479D01*
X21076Y14479D01*
X21073Y14480D01*
X21072Y14481D01*
X21071Y14482D01*
X21065Y14485D01*
X21065Y14486D01*
X21063Y14486D01*
X21062Y14487D01*
X21059Y14489D01*
X21058Y14489D01*
X21054Y14491D01*
X21051Y14493D01*
X21049Y14495D01*
X21047Y14497D01*
X21046Y14498D01*
X21044Y14498D01*
X21041Y14499D01*
X21040Y14500D01*
X21039Y14500D01*
X21038Y14501D01*
X21037Y14501D01*
X21037Y14502D01*
X21035Y14504D01*
X21033Y14508D01*
X21033Y14510D01*
X21032Y14514D01*
X21031Y14516D01*
X21030Y14519D01*
X21030Y14522D01*
X21029Y14525D01*
X21028Y14526D01*
X21028Y14529D01*
X21027Y14529D01*
X21026Y14532D01*
X21025Y14534D01*
X21024Y14537D01*
X21024Y14537D01*
X21023Y14538D01*
X21021Y14541D01*
X21021Y14541D01*
X21018Y14547D01*
X21017Y14553D01*
X21018Y14557D01*
X21018Y14560D01*
X21019Y14562D01*
X21020Y14565D01*
X21024Y14574D01*
X21026Y14578D01*
X21027Y14580D01*
X21028Y14583D01*
X21029Y14586D01*
X21030Y14586D01*
X21031Y14589D01*
X21032Y14593D01*
X21033Y14596D01*
X21034Y14599D01*
X21035Y14603D01*
X21035Y14604D01*
X21036Y14606D01*
X21036Y14608D01*
X21037Y14617D01*
X21038Y14620D01*
X21038Y14623D01*
X21037Y14624D01*
X21035Y14624D01*
X21032Y14622D01*
X21028Y14622D01*
X21026Y14621D01*
X21024Y14620D01*
X21022Y14620D01*
X21019Y14618D01*
X21017Y14617D01*
X21013Y14615D01*
X21009Y14612D01*
X21006Y14610D01*
X21004Y14608D01*
X21003Y14608D01*
X20995Y14599D01*
X20994Y14599D01*
X20994Y14598D01*
X20993Y14597D01*
X20993Y14597D01*
X20992Y14596D01*
X20987Y14591D01*
X20987Y14590D01*
X20983Y14587D01*
X20983Y14586D01*
X20981Y14584D01*
X20981Y14584D01*
X20979Y14582D01*
X20979Y14582D01*
X20978Y14580D01*
X20976Y14578D01*
X20975Y14576D01*
X20974Y14575D01*
X20973Y14573D01*
X20973Y14573D01*
X20969Y14569D01*
X20968Y14569D01*
X20967Y14568D01*
X20964Y14567D01*
X20963Y14566D01*
X20961Y14567D01*
X20959Y14567D01*
X20959Y14565D01*
X20960Y14563D01*
X20964Y14561D01*
X20965Y14560D01*
X20965Y14559D01*
X20967Y14558D01*
X20967Y14556D01*
X20968Y14553D01*
X20968Y14553D01*
X20969Y14550D01*
X20970Y14549D01*
X20971Y14549D01*
X20972Y14548D01*
X20975Y14547D01*
X20975Y14544D01*
X20974Y14542D01*
X20974Y14540D01*
X20973Y14537D01*
X20972Y14535D01*
X20971Y14532D01*
X20971Y14529D01*
X20970Y14527D01*
X20969Y14523D01*
X20967Y14520D01*
X20967Y14518D01*
X20965Y14514D01*
X20964Y14512D01*
X20962Y14508D01*
X20960Y14506D01*
X20958Y14505D01*
X20956Y14507D01*
X20954Y14509D01*
X20953Y14509D01*
X20953Y14510D01*
X20949Y14514D01*
X20948Y14514D01*
X20947Y14516D01*
X20947Y14517D01*
X20943Y14523D01*
X20942Y14523D01*
X20941Y14524D01*
X20940Y14527D01*
X20938Y14529D01*
X20937Y14529D01*
X20936Y14530D01*
X20935Y14531D01*
X20932Y14534D01*
X20931Y14537D01*
X20931Y14544D01*
X20932Y14546D01*
X20932Y14548D01*
X20933Y14553D01*
X20934Y14558D01*
X20934Y14562D01*
X20934Y14576D01*
X20934Y14577D01*
X20934Y14583D01*
X20934Y14584D01*
X20935Y14589D01*
X20935Y14590D01*
X20936Y14591D01*
X20937Y14594D01*
X20938Y14594D01*
X20940Y14596D01*
X20944Y14598D01*
X20947Y14599D01*
X20954Y14603D01*
X20957Y14605D01*
X20958Y14606D01*
X20961Y14607D01*
X20967Y14611D01*
X20970Y14614D01*
X20971Y14615D01*
X20972Y14616D01*
X20974Y14618D01*
X20976Y14620D01*
X20977Y14620D01*
X20978Y14621D01*
X20978Y14622D01*
X20979Y14623D01*
X20980Y14624D01*
X20981Y14624D01*
X20981Y14625D01*
X20985Y14628D01*
X20986Y14629D01*
X20990Y14633D01*
X20991Y14634D01*
X20992Y14634D01*
X20992Y14635D01*
X21002Y14644D01*
X21002Y14645D01*
X21004Y14647D01*
X21004Y14648D01*
X21006Y14649D01*
X21007Y14650D01*
X21008Y14651D01*
X21009Y14652D01*
X21010Y14653D01*
X21012Y14655D01*
X21014Y14656D01*
X21018Y14658D01*
X21021Y14659D01*
X21025Y14661D01*
X21028Y14662D01*
X21031Y14662D01*
X21032Y14663D01*
X21042Y14662D01*
X21044Y14662D01*
X21047Y14661D01*
X21048Y14661D01*
X21052Y14665D01*
X21052Y14666D01*
X21053Y14667D01*
X21054Y14668D01*
X21055Y14668D01*
X21055Y14669D01*
X21057Y14670D01*
X21058Y14671D01*
X21060Y14672D01*
X21063Y14673D01*
X21066Y14673D01*
X21072Y14673D01*
X21073Y14673D01*
X21077Y14672D01*
X21082Y14671D01*
X21085Y14671D01*
X21089Y14670D01*
X21093Y14670D01*
X21098Y14669D01*
X21116Y14669D01*
X21118Y14670D01*
X21121Y14670D01*
X21124Y14672D01*
X21125Y14674D01*
X21125Y14679D01*
X21125Y14680D01*
X21126Y14684D01*
X21127Y14689D01*
X21128Y14694D01*
X21129Y14697D01*
X21129Y14697D01*
X21131Y14701D01*
X21131Y14702D01*
X21132Y14703D01*
X21133Y14705D01*
X21135Y14707D01*
X21135Y14708D01*
X21136Y14710D01*
X21137Y14713D01*
X21138Y14716D01*
X21138Y14718D01*
X21139Y14721D01*
X21139Y14721D01*
X21140Y14724D01*
X21144Y14731D01*
X21146Y14733D01*
X21148Y14736D01*
X21148Y14736D01*
X21149Y14737D01*
X21151Y14739D01*
X21152Y14741D01*
X21153Y14742D01*
X21154Y14744D01*
X21156Y14747D01*
X21158Y14751D01*
X21159Y14753D01*
X21159Y14754D01*
X21161Y14757D01*
X21161Y14759D01*
X21162Y14762D01*
X21163Y14766D01*
X21163Y14770D01*
X21164Y14770D01*
X21165Y14772D01*
X21166Y14775D01*
X21167Y14777D01*
X21167Y14780D01*
X21169Y14782D01*
X21169Y14785D01*
X21170Y14787D01*
X21171Y14788D01*
X21175Y14798D01*
X21176Y14799D01*
X21177Y14803D01*
X21178Y14804D01*
X21182Y14812D01*
X21182Y14812D01*
X21183Y14813D01*
X21183Y14815D01*
X21184Y14816D01*
X21185Y14818D01*
X21186Y14820D01*
X21187Y14821D01*
X21187Y14823D01*
X21189Y14826D01*
X21190Y14828D01*
X21192Y14831D01*
X21193Y14832D01*
X21194Y14834D01*
X21195Y14835D01*
X21196Y14837D01*
X21198Y14838D01*
X21198Y14839D01*
X21199Y14839D01*
X21200Y14840D01*
X21201Y14841D01*
X21201Y14842D01*
X21204Y14845D01*
X21204Y14846D01*
X21205Y14847D01*
X21206Y14849D01*
X21207Y14851D01*
X21208Y14853D01*
X21210Y14854D01*
X21210Y14856D01*
X21211Y14857D01*
X21211Y14857D01*
X21212Y14860D01*
X21212Y14860D01*
X21213Y14861D01*
X21214Y14864D01*
X21214Y14866D01*
X21214Y14867D01*
X21208Y14867D01*
X21204Y14869D01*
X21203Y14870D01*
X21202Y14870D01*
X21197Y14873D01*
X21189Y14873D01*
X21168Y14873D01*
X21167Y14872D01*
X21163Y14871D01*
X21160Y14870D01*
X21159Y14870D01*
X21156Y14868D01*
X21156Y14868D01*
X21155Y14866D01*
X21154Y14863D01*
X21152Y14861D01*
X21149Y14861D01*
X21147Y14860D01*
X21143Y14860D01*
X21141Y14859D01*
X21140Y14859D01*
X21130Y14858D01*
X21127Y14859D01*
X21126Y14860D01*
X21125Y14861D01*
X21123Y14862D01*
X21121Y14863D01*
X21119Y14864D01*
X21119Y14865D01*
X21118Y14867D01*
X21118Y14871D01*
X21120Y14874D01*
X21119Y14875D01*
X21116Y14874D01*
X21114Y14873D01*
X21107Y14873D01*
X21103Y14874D01*
X21100Y14876D01*
X21099Y14877D01*
X21099Y14877D01*
X21098Y14878D01*
X21097Y14881D01*
Y14882D01*
Y14882D01*
X21097Y14884D01*
X21097Y14891D01*
X21097Y14898D01*
X21098Y14914D01*
X21099Y14917D01*
X21100Y14920D01*
X21101Y14920D01*
X21102Y14922D01*
X21105Y14923D01*
X21107Y14924D01*
X21110Y14924D01*
X21111Y14925D01*
X21114Y14926D01*
X21116Y14927D01*
X21118Y14927D01*
X21120Y14928D01*
X21123Y14928D01*
X21125Y14929D01*
X21127Y14929D01*
X21130Y14930D01*
X21144Y14937D01*
X21152Y14942D01*
X21158Y14945D01*
X21158Y14946D01*
X21160Y14947D01*
X21161Y14948D01*
X21163Y14949D01*
X21164Y14950D01*
X21166Y14951D01*
X21169Y14953D01*
X21171Y14954D01*
X21172Y14955D01*
X21174Y14957D01*
X21177Y14958D01*
X21184Y14962D01*
X21186Y14963D01*
X21190Y14965D01*
X21193Y14965D01*
X21197Y14967D01*
X21199Y14972D01*
X21200Y14973D01*
X21202Y14974D01*
X21203Y14975D01*
X21207Y14975D01*
X21212Y14976D01*
X21224Y14977D01*
X21226Y14978D01*
X21229Y14979D01*
X21231Y14979D01*
X21232Y14980D01*
X21233Y14985D01*
X21234Y14991D01*
X21235Y14997D01*
X21236Y15001D01*
X21236Y15005D01*
X21236Y15013D01*
X21238Y15013D01*
X21240Y15012D01*
X21241Y15009D01*
X21243Y15007D01*
X21243Y15006D01*
X21244Y15005D01*
X21246Y15001D01*
X21247Y15000D01*
X21248Y14999D01*
X21249Y14997D01*
X21250Y14996D01*
X21252Y14993D01*
X21254Y14989D01*
X21255Y14986D01*
X21255Y14985D01*
X21256Y14984D01*
X21257Y14981D01*
X21258Y14980D01*
X21261Y14980D01*
X21262Y14981D01*
X21269Y14981D01*
X21271Y14982D01*
X21277Y14982D01*
X21284Y14982D01*
X21285Y14982D01*
X21288Y14981D01*
X21291Y14980D01*
X21291Y14979D01*
X21295Y14978D01*
X21299Y14977D01*
X21302Y14977D01*
X21304Y14976D01*
X21306Y14975D01*
X21309Y14975D01*
X21311Y14974D01*
X21314Y14971D01*
X21315Y14970D01*
X21316Y14968D01*
X21316Y14965D01*
X21318Y14963D01*
X21321Y14962D01*
X21322Y14961D01*
X21325Y14960D01*
X21329Y14959D01*
X21331Y14958D01*
X21334Y14957D01*
X21335Y14957D01*
X21342Y14953D01*
X21345Y14951D01*
X21346Y14951D01*
X21346Y14950D01*
X21350Y14947D01*
X21352Y14944D01*
X21352Y14942D01*
X21353Y14941D01*
X21353Y14938D01*
X21353Y14936D01*
X21349Y14937D01*
X21348Y14937D01*
X21343Y14938D01*
X21341Y14939D01*
X21339Y14939D01*
X21339Y14937D01*
X21342Y14935D01*
X21343Y14934D01*
X21343Y14934D01*
X21345Y14932D01*
X21346Y14932D01*
X21351Y14927D01*
X21351Y14926D01*
X21352Y14926D01*
X21352Y14925D01*
X21354Y14924D01*
X21356Y14921D01*
X21357Y14918D01*
X21357Y14917D01*
X21358Y14915D01*
X21359Y14912D01*
X21359Y14909D01*
X21367Y14902D01*
X21367Y14901D01*
X21369Y14899D01*
X21369Y14898D01*
X21371Y14896D01*
X21371Y14896D01*
X21373Y14894D01*
X21374Y14892D01*
X21375Y14891D01*
X21375Y14890D01*
X21377Y14888D01*
X21377Y14886D01*
X21378Y14885D01*
X21379Y14882D01*
X21380Y14880D01*
X21380Y14878D01*
X21380Y14876D01*
X21380Y14874D01*
X21379Y14864D01*
X21378Y14864D01*
X21377Y14864D01*
X21376Y14865D01*
X21376Y14865D01*
X21374Y14867D01*
X21371Y14869D01*
X21369Y14869D01*
X21367Y14869D01*
X21367Y14868D01*
X21367Y14862D01*
X21368Y14858D01*
X21368Y14855D01*
X21369Y14853D01*
X21369Y14851D01*
X21368Y14849D01*
X21365Y14849D01*
X21360Y14848D01*
X21359Y14848D01*
X21359Y14846D01*
X21359Y14844D01*
X21360Y14842D01*
X21360Y14839D01*
X21360Y14831D01*
X21357Y14826D01*
X21356Y14826D01*
X21356Y14825D01*
X21354Y14823D01*
X21355Y14821D01*
X21355Y14820D01*
X21360Y14820D01*
X21364Y14822D01*
X21368Y14823D01*
X21370Y14823D01*
X21373Y14823D01*
X21377Y14824D01*
X21378Y14826D01*
X21378Y14836D01*
X21379Y14841D01*
X21379Y14844D01*
X21380Y14846D01*
X21383Y14852D01*
X21384Y14854D01*
X21384Y14855D01*
X21385Y14857D01*
X21390Y14868D01*
X21394Y14874D01*
X21395Y14874D01*
X21396Y14877D01*
X21397Y14878D01*
X21398Y14879D01*
X21399Y14881D01*
X21400Y14882D01*
X21403Y14885D01*
X21404Y14886D01*
X21406Y14887D01*
X21407Y14888D01*
X21408Y14889D01*
X21409Y14890D01*
X21410Y14891D01*
X21411Y14892D01*
X21413Y14893D01*
X21413Y14894D01*
X21415Y14895D01*
X21416Y14895D01*
X21418Y14897D01*
X21419Y14898D01*
X21421Y14900D01*
X21422Y14900D01*
X21422Y14901D01*
X21423Y14901D01*
X21425Y14903D01*
X21427Y14905D01*
X21428Y14906D01*
X21429Y14906D01*
X21430Y14907D01*
X21431Y14908D01*
X21434Y14910D01*
X21435Y14910D01*
X21436Y14912D01*
X21439Y14913D01*
X21439Y14914D01*
X21441Y14914D01*
X21442Y14915D01*
X21448Y14918D01*
X21449Y14919D01*
X21449Y14924D01*
X21449Y14925D01*
X21450Y14930D01*
X21449Y14931D01*
X21448Y14932D01*
X21442Y14934D01*
X21441Y14935D01*
X21441Y14936D01*
X21438Y14938D01*
X21437Y14941D01*
X21438Y14945D01*
X21439Y14948D01*
X21440Y14950D01*
X21440Y14953D01*
X21441Y14956D01*
X21441Y14959D01*
X21439Y14963D01*
X21439Y14965D01*
X21441Y14967D01*
X21441Y14968D01*
X21443Y14969D01*
X21444Y14969D01*
X21445Y14971D01*
X21446Y14971D01*
X21447Y14973D01*
X21448Y14974D01*
X21449Y14978D01*
X21448Y14981D01*
X21449Y14985D01*
X21450Y14988D01*
X21450Y14989D01*
X21453Y14995D01*
X21455Y14998D01*
X21456Y14999D01*
X21457Y15000D01*
X21458Y15001D01*
X21458Y15001D01*
X21461Y15003D01*
X21463Y15004D01*
X21464Y15005D01*
X21466Y15006D01*
X21466Y15006D01*
X21467Y15013D01*
X21468Y15014D01*
X21468Y15016D01*
X21470Y15016D01*
X21471Y15016D01*
D02*
G37*
%LPC*%
G36*
X21491Y14379D02*
X21476Y14379D01*
X21476Y14378D01*
X21476Y14374D01*
X21477Y14370D01*
X21477Y14367D01*
X21478Y14365D01*
X21478Y14363D01*
X21479Y14357D01*
X21480Y14354D01*
X21481Y14351D01*
X21482Y14348D01*
X21482Y14346D01*
X21483Y14343D01*
X21485Y14339D01*
X21485Y14337D01*
X21488Y14333D01*
X21491Y14328D01*
X21491Y14327D01*
X21493Y14326D01*
X21493Y14325D01*
X21495Y14322D01*
X21496Y14321D01*
X21496Y14320D01*
X21498Y14318D01*
X21499Y14317D01*
X21500Y14315D01*
X21501Y14314D01*
X21503Y14309D01*
X21504Y14307D01*
X21505Y14305D01*
X21505Y14302D01*
X21505Y14296D01*
X21502Y14291D01*
X21501Y14290D01*
X21500Y14289D01*
X21500Y14288D01*
X21499Y14288D01*
X21497Y14286D01*
X21495Y14285D01*
X21489Y14282D01*
X21486Y14282D01*
X21484Y14280D01*
X21482Y14280D01*
X21478Y14278D01*
X21476Y14277D01*
X21475Y14277D01*
X21473Y14276D01*
X21471Y14275D01*
X21467Y14274D01*
X21463Y14272D01*
X21463Y14271D01*
X21465Y14270D01*
X21469Y14269D01*
X21472Y14268D01*
X21475Y14268D01*
X21477Y14267D01*
X21480Y14266D01*
X21483Y14265D01*
X21485Y14264D01*
X21488Y14264D01*
X21491Y14263D01*
X21494Y14262D01*
X21497Y14262D01*
X21498Y14261D01*
X21500Y14260D01*
X21504Y14260D01*
X21506Y14259D01*
X21508Y14258D01*
X21509Y14260D01*
X21510Y14260D01*
X21511Y14261D01*
X21512Y14262D01*
X21512Y14262D01*
X21513Y14263D01*
X21513Y14264D01*
X21519Y14269D01*
X21519Y14270D01*
X21522Y14272D01*
X21522Y14273D01*
X21524Y14275D01*
X21524Y14275D01*
X21525Y14276D01*
X21525Y14277D01*
X21527Y14279D01*
X21528Y14280D01*
X21530Y14281D01*
X21530Y14282D01*
X21531Y14284D01*
X21533Y14286D01*
X21533Y14287D01*
X21534Y14287D01*
X21535Y14289D01*
X21536Y14289D01*
X21538Y14292D01*
X21539Y14295D01*
X21541Y14298D01*
X21541Y14298D01*
X21543Y14301D01*
X21543Y14302D01*
X21544Y14303D01*
X21545Y14306D01*
X21546Y14307D01*
X21546Y14309D01*
X21547Y14309D01*
X21547Y14310D01*
X21547Y14310D01*
X21548Y14312D01*
X21550Y14316D01*
X21550Y14319D01*
X21550Y14326D01*
X21550Y14327D01*
X21550Y14332D01*
X21548Y14334D01*
X21548Y14335D01*
X21547Y14337D01*
X21545Y14340D01*
X21544Y14341D01*
X21543Y14343D01*
X21542Y14344D01*
X21541Y14345D01*
X21535Y14351D01*
X21534Y14352D01*
X21533Y14353D01*
X21531Y14354D01*
X21527Y14355D01*
X21524Y14356D01*
X21524Y14357D01*
X21520Y14358D01*
X21519Y14359D01*
X21516Y14360D01*
X21513Y14362D01*
X21512Y14362D01*
X21511Y14363D01*
X21508Y14365D01*
X21504Y14368D01*
X21503Y14369D01*
X21501Y14370D01*
X21500Y14370D01*
X21496Y14375D01*
X21495Y14376D01*
X21493Y14378D01*
X21492Y14379D01*
X21491Y14379D01*
D02*
G37*
G36*
X21637Y14460D02*
X21636Y14459D01*
X21635Y14458D01*
X21635Y14456D01*
X21634Y14455D01*
X21633Y14453D01*
X21632Y14451D01*
X21630Y14448D01*
X21629Y14447D01*
X21629Y14446D01*
X21628Y14445D01*
X21627Y14444D01*
X21627Y14443D01*
X21626Y14443D01*
X21626Y14442D01*
X21625Y14441D01*
X21624Y14440D01*
X21624Y14440D01*
X21623Y14439D01*
X21621Y14437D01*
X21617Y14433D01*
X21616Y14432D01*
X21615Y14431D01*
X21614Y14430D01*
X21612Y14428D01*
X21611Y14428D01*
X21610Y14427D01*
X21608Y14426D01*
X21603Y14423D01*
X21601Y14421D01*
X21595Y14418D01*
X21594Y14418D01*
X21591Y14417D01*
X21585Y14414D01*
X21583Y14414D01*
X21580Y14413D01*
X21577Y14412D01*
X21575Y14412D01*
X21572Y14411D01*
X21571Y14411D01*
X21564Y14410D01*
X21564Y14409D01*
X21565Y14405D01*
X21566Y14403D01*
X21567Y14399D01*
X21568Y14398D01*
X21568Y14396D01*
X21574Y14386D01*
X21576Y14382D01*
X21578Y14379D01*
X21578Y14378D01*
X21579Y14377D01*
X21580Y14376D01*
X21581Y14374D01*
X21582Y14373D01*
X21583Y14372D01*
X21585Y14369D01*
X21586Y14368D01*
X21592Y14361D01*
X21593Y14361D01*
X21594Y14360D01*
X21596Y14359D01*
X21597Y14358D01*
X21600Y14357D01*
X21601Y14356D01*
X21603Y14355D01*
X21604Y14354D01*
X21605Y14353D01*
X21607Y14351D01*
X21608Y14351D01*
X21609Y14350D01*
X21609Y14349D01*
X21610Y14348D01*
X21611Y14347D01*
X21612Y14344D01*
X21613Y14343D01*
X21613Y14341D01*
X21613Y14333D01*
X21612Y14332D01*
X21612Y14332D01*
Y14331D01*
X21608Y14326D01*
X21607Y14325D01*
X21606Y14324D01*
X21604Y14322D01*
X21604Y14321D01*
X21603Y14321D01*
X21601Y14318D01*
X21599Y14316D01*
X21598Y14315D01*
X21595Y14312D01*
X21595Y14311D01*
X21591Y14307D01*
X21590Y14306D01*
X21586Y14302D01*
X21586Y14301D01*
X21585Y14301D01*
X21584Y14300D01*
X21584Y14299D01*
X21583Y14299D01*
X21583Y14298D01*
X21582Y14298D01*
X21579Y14294D01*
X21578Y14294D01*
X21578Y14293D01*
X21576Y14292D01*
X21575Y14289D01*
X21572Y14285D01*
X21571Y14284D01*
X21569Y14281D01*
X21568Y14280D01*
X21567Y14278D01*
X21565Y14275D01*
X21562Y14271D01*
X21561Y14269D01*
X21559Y14266D01*
X21558Y14265D01*
X21558Y14264D01*
X21557Y14263D01*
X21556Y14262D01*
X21552Y14256D01*
X21552Y14256D01*
X21551Y14255D01*
X21550Y14254D01*
X21548Y14251D01*
X21547Y14250D01*
X21547Y14248D01*
X21547Y14248D01*
X21549Y14247D01*
X21552Y14246D01*
X21554Y14246D01*
X21557Y14245D01*
X21560Y14244D01*
X21564Y14243D01*
X21567Y14242D01*
X21572Y14241D01*
X21574Y14240D01*
X21578Y14239D01*
X21582Y14237D01*
X21585Y14237D01*
X21587Y14236D01*
X21590Y14235D01*
X21592Y14235D01*
X21595Y14234D01*
X21597Y14233D01*
X21599Y14233D01*
X21602Y14232D01*
X21604Y14231D01*
X21606Y14230D01*
X21609Y14229D01*
X21614Y14228D01*
X21616Y14227D01*
X21620Y14227D01*
X21622Y14226D01*
X21624Y14225D01*
X21626Y14225D01*
X21629Y14223D01*
X21630Y14223D01*
X21633Y14222D01*
X21635Y14221D01*
X21637Y14221D01*
X21640Y14220D01*
X21642Y14219D01*
X21646Y14218D01*
X21649Y14217D01*
X21651Y14216D01*
X21655Y14215D01*
X21658Y14214D01*
X21660Y14213D01*
X21663Y14212D01*
X21667Y14211D01*
X21669Y14210D01*
X21673Y14209D01*
X21675Y14208D01*
X21682Y14205D01*
X21684Y14204D01*
X21685Y14203D01*
X21688Y14202D01*
X21689Y14201D01*
X21691Y14200D01*
X21692Y14199D01*
X21695Y14198D01*
X21696Y14197D01*
X21697Y14196D01*
X21699Y14195D01*
X21701Y14193D01*
X21704Y14192D01*
X21706Y14190D01*
X21708Y14189D01*
X21714Y14185D01*
X21716Y14183D01*
X21718Y14181D01*
X21719Y14181D01*
X21720Y14180D01*
X21722Y14178D01*
X21724Y14177D01*
X21725Y14176D01*
X21725Y14176D01*
X21727Y14174D01*
X21728Y14174D01*
X21730Y14172D01*
X21731Y14172D01*
X21733Y14170D01*
X21733Y14169D01*
X21734Y14169D01*
X21734Y14168D01*
X21736Y14167D01*
X21737Y14167D01*
X21737Y14169D01*
X21735Y14172D01*
X21734Y14175D01*
X21733Y14177D01*
X21733Y14180D01*
X21731Y14183D01*
X21730Y14185D01*
X21729Y14188D01*
X21729Y14190D01*
X21727Y14194D01*
X21727Y14196D01*
X21726Y14197D01*
X21725Y14200D01*
X21724Y14201D01*
X21723Y14204D01*
X21722Y14206D01*
X21721Y14207D01*
X21721Y14210D01*
X21719Y14213D01*
X21719Y14214D01*
X21717Y14219D01*
X21716Y14221D01*
X21715Y14222D01*
X21715Y14223D01*
X21714Y14226D01*
X21713Y14227D01*
X21713Y14229D01*
X21712Y14232D01*
X21711Y14232D01*
X21711Y14235D01*
X21709Y14239D01*
X21708Y14242D01*
X21707Y14242D01*
X21707Y14246D01*
X21705Y14250D01*
X21704Y14252D01*
X21703Y14256D01*
X21702Y14258D01*
X21701Y14261D01*
X21701Y14262D01*
X21700Y14265D01*
X21699Y14267D01*
X21698Y14271D01*
X21697Y14274D01*
X21696Y14277D01*
X21695Y14280D01*
X21695Y14282D01*
X21694Y14286D01*
X21694Y14288D01*
X21693Y14291D01*
X21692Y14294D01*
X21691Y14296D01*
X21690Y14298D01*
X21690Y14301D01*
X21689Y14303D01*
X21688Y14305D01*
X21688Y14308D01*
X21687Y14311D01*
X21686Y14315D01*
X21685Y14318D01*
X21684Y14322D01*
X21683Y14324D01*
X21683Y14326D01*
X21682Y14328D01*
X21682Y14330D01*
X21681Y14334D01*
X21680Y14336D01*
X21680Y14341D01*
X21679Y14342D01*
X21679Y14346D01*
X21678Y14355D01*
X21678Y14359D01*
X21677Y14361D01*
X21677Y14364D01*
X21676Y14373D01*
X21675Y14375D01*
X21675Y14377D01*
X21675Y14379D01*
X21674Y14383D01*
X21673Y14387D01*
X21673Y14389D01*
X21672Y14393D01*
X21672Y14395D01*
X21671Y14397D01*
X21670Y14399D01*
X21667Y14405D01*
X21666Y14405D01*
X21666Y14406D01*
X21664Y14409D01*
X21663Y14410D01*
X21662Y14411D01*
X21661Y14412D01*
X21660Y14413D01*
X21659Y14416D01*
X21656Y14420D01*
X21655Y14422D01*
X21654Y14423D01*
X21654Y14426D01*
X21653Y14428D01*
X21652Y14432D01*
X21651Y14438D01*
X21650Y14442D01*
X21649Y14444D01*
X21646Y14449D01*
X21643Y14455D01*
X21642Y14456D01*
X21641Y14457D01*
X21639Y14459D01*
X21639Y14459D01*
X21637Y14460D01*
D02*
G37*
%LPD*%
D79*
X25064Y21764D02*
G03*
X25064Y21764I-10J0D01*
G01*
X12777Y23083D02*
G03*
X12777Y23083I-10J0D01*
G01*
X14758Y20604D02*
G03*
X14758Y20604I-10J0D01*
G01*
X15086Y21801D02*
G03*
X15086Y21801I-10J0D01*
G01*
X13198Y16712D02*
G03*
X13198Y16712I-10J0D01*
G01*
X17594Y12086D02*
G03*
X17594Y12086I-10J0D01*
G01*
X15561Y21326D02*
G03*
X15561Y21326I-10J0D01*
G01*
X13287Y23603D02*
G03*
X13287Y23603I-10J0D01*
G01*
X25584Y19217D02*
G03*
X25584Y19217I-10J0D01*
G01*
X21399Y16918D02*
G03*
X21399Y16918I-10J0D01*
G01*
X13848Y17418D02*
X13923Y17343D01*
X13848D02*
X13923Y17418D01*
X27800Y19390D02*
Y20340D01*
X26660D02*
X27800D01*
X26660Y19390D02*
Y20340D01*
X13338Y22362D02*
X13412Y22438D01*
X13338D02*
X13412Y22362D01*
X13862Y22962D02*
X13938Y22888D01*
X13862D02*
X13938Y22962D01*
X27430Y17350D02*
X27755D01*
X28430D02*
X28730D01*
X28405Y18625D02*
X28730D01*
X27430D02*
X27755D01*
X27430Y17350D02*
X27430Y18625D01*
X28730D02*
X28730Y17350D01*
X26630Y18000D02*
X26690D01*
X26660Y17970D02*
Y18030D01*
X26490Y17920D02*
X26710D01*
X26270Y16840D02*
Y17710D01*
X26480Y17920D02*
X26490D01*
X26270Y17710D02*
X26480Y17920D01*
X26270Y16840D02*
X26710D01*
X26910D02*
X27350D01*
X27140Y17920D02*
X27350Y17710D01*
X27130Y17920D02*
X27140D01*
X27350Y16840D02*
Y17710D01*
X26910Y17920D02*
X27130D01*
X25880Y19840D02*
X25940D01*
X25910Y19810D02*
Y19870D01*
X25620Y18880D02*
Y19610D01*
X25770Y19760D02*
X25960D01*
X25620Y19610D02*
X25770Y19760D01*
X25620Y18880D02*
X25960D01*
X26160D02*
X26500D01*
X26350Y19760D02*
X26500Y19610D01*
X26160Y19760D02*
X26350D01*
X26500Y18880D02*
Y19610D01*
X14616Y22037D02*
Y22060D01*
X14639Y22084D01*
X14663D01*
X14710Y22037D01*
Y22013D01*
X14686Y21990D01*
X14663D01*
X14639Y22013D01*
X14663Y22037D01*
X14651Y21954D02*
X14580Y22025D01*
X14604Y21907D01*
X14533Y21978D01*
X14510Y21954D02*
X14580Y21884D01*
X14545Y21848D01*
X14521Y21848D01*
X14474Y21895D01*
X14474Y21919D01*
X14510Y21954D01*
X14404Y21707D02*
X14333Y21778D01*
X14404D01*
X14356Y21730D01*
X14309Y21730D02*
X14286D01*
X14262Y21707D01*
Y21683D01*
X14274Y21672D01*
X14298D01*
X14298Y21648D01*
X14309Y21636D01*
X14333Y21636D01*
X14356Y21660D01*
Y21683D01*
X14345Y21695D01*
X14321D01*
X14321Y21719D01*
X14309Y21730D01*
X14321Y21695D02*
X14298Y21672D01*
X14227D02*
X14274Y21624D01*
Y21577D01*
X14227D01*
X14180Y21624D01*
X25338Y22584D02*
X25314D01*
X25291Y22560D01*
Y22537D01*
X25302Y22525D01*
X25326D01*
X25338Y22537D01*
X25326Y22525D01*
X25326Y22501D01*
X25338Y22490D01*
X25361D01*
X25385Y22513D01*
Y22537D01*
X25255Y22525D02*
X25302Y22478D01*
Y22431D01*
X25255D01*
X25208Y22478D01*
X25196Y22443D02*
X25173D01*
X25149Y22419D01*
X25149Y22395D01*
X25161Y22384D01*
X25185D01*
X25196Y22395D01*
X25185Y22384D01*
X25185Y22360D01*
X25196Y22348D01*
X25220Y22348D01*
X25244Y22372D01*
Y22395D01*
X25008Y22278D02*
X25031Y22301D01*
X25055D01*
X25102Y22254D01*
Y22230D01*
X25079Y22207D01*
X25055Y22207D01*
X25008Y22254D01*
X25008Y22278D01*
X24973Y22242D02*
X25031Y22183D01*
Y22160D01*
X25008Y22136D01*
X24984Y22136D01*
X24925Y22195D01*
X24902Y22172D02*
X24855Y22124D01*
X24878Y22148D01*
X24949Y22077D01*
X14290Y19261D02*
X14242Y19214D01*
X14195D01*
Y19261D01*
X14242Y19308D01*
X14219Y19332D02*
X14172Y19379D01*
X14195Y19355D01*
X14125Y19285D01*
X14148Y19402D02*
X14101Y19450D01*
X14089Y19438D01*
Y19344D01*
X14078Y19332D01*
X13609Y19140D02*
X13680Y19211D01*
X13644Y19246D01*
X13621D01*
X13597Y19223D01*
Y19199D01*
X13632Y19164D01*
X13609Y19188D02*
X13562D01*
X13503Y19246D02*
X13574Y19317D01*
Y19246D01*
X13526Y19294D01*
X13538Y19352D02*
X13491Y19400D01*
X13479Y19388D01*
Y19294D01*
X13468Y19282D01*
X12849Y20750D02*
X12920Y20821D01*
X12884Y20856D01*
X12861D01*
X12837Y20833D01*
Y20809D01*
X12872Y20774D01*
X12849Y20798D02*
X12802D01*
X12743Y20856D02*
X12814Y20927D01*
Y20856D01*
X12766Y20904D01*
X12731Y21010D02*
X12743Y20974D01*
Y20927D01*
X12719Y20904D01*
X12696D01*
X12672Y20927D01*
X12672Y20951D01*
X12684Y20962D01*
X12708Y20962D01*
X12743Y20927D01*
X19520Y14323D02*
X19620D01*
Y14373D01*
X19603Y14390D01*
X19570D01*
X19553Y14373D01*
Y14323D01*
Y14357D02*
X19520Y14390D01*
X19603Y14423D02*
X19620Y14440D01*
Y14473D01*
X19603Y14490D01*
X19587D01*
X19570Y14473D01*
Y14457D01*
Y14473D01*
X19553Y14490D01*
X19537D01*
X19520Y14473D01*
Y14440D01*
X19537Y14423D01*
X19520Y14523D02*
Y14557D01*
Y14540D01*
X19620D01*
X19603Y14523D01*
X13490Y19761D02*
X13442Y19714D01*
X13395D01*
Y19761D01*
X13442Y19808D01*
X13419Y19832D02*
X13372Y19879D01*
X13395Y19855D01*
X13325Y19785D01*
X13301Y19950D02*
X13313Y19914D01*
Y19867D01*
X13289Y19844D01*
X13266D01*
X13242Y19867D01*
X13242Y19891D01*
X13254Y19902D01*
X13278Y19902D01*
X13313Y19867D01*
X19720Y14307D02*
X19820D01*
Y14357D01*
X19803Y14373D01*
X19770D01*
X19753Y14357D01*
Y14307D01*
Y14340D02*
X19720Y14373D01*
Y14457D02*
X19820D01*
X19770Y14407D01*
Y14473D01*
X19820Y14573D02*
Y14507D01*
X19770D01*
X19787Y14540D01*
Y14557D01*
X19770Y14573D01*
X19737D01*
X19720Y14557D01*
Y14523D01*
X19737Y14507D01*
X15862Y21281D02*
X15885D01*
X15909Y21257D01*
Y21234D01*
X15897Y21222D01*
X15874Y21222D01*
X15850Y21246D01*
X15826Y21246D01*
X15815Y21234D01*
Y21210D01*
X15838Y21187D01*
X15862D01*
X15768Y21257D02*
X15744Y21281D01*
Y21305D01*
X15768Y21328D01*
X15791D01*
X15815Y21305D01*
X15815Y21281D01*
X15791Y21257D01*
X15768D01*
X15709Y21316D02*
X15685Y21340D01*
X15697Y21328D01*
X15768Y21399D01*
X15779Y21387D01*
X15614Y21411D02*
X15638Y21387D01*
X15661D01*
X15685Y21411D01*
Y21434D01*
X15661Y21458D01*
X15638D01*
X15626Y21446D01*
X15673Y21399D01*
X15579Y21446D02*
X15626Y21493D01*
X15591Y21528D01*
X15567D01*
X15532Y21493D01*
X15497Y21528D02*
X15473Y21552D01*
Y21576D01*
X15497Y21599D01*
X15520D01*
X15544Y21576D01*
X15544Y21552D01*
X15520Y21528D01*
X15497D01*
X15438Y21587D02*
X15414Y21611D01*
X15426Y21599D01*
X15473Y21646D01*
X15485Y21634D01*
X15402Y21764D02*
X15332Y21693D01*
X15367Y21658D01*
X15391D01*
X15414Y21682D01*
Y21705D01*
X15379Y21741D01*
X15187Y21956D02*
X15210D01*
X15234Y21932D01*
Y21909D01*
X15187Y21862D01*
X15163D01*
X15140Y21885D01*
Y21909D01*
X15104Y21921D02*
X15151Y21968D01*
X15151Y22015D01*
X15104Y22015D01*
X15057Y21968D01*
X15093Y22003D01*
X15140Y21956D01*
X15034Y21991D02*
X15104Y22062D01*
X15069Y22097D01*
X15045Y22097D01*
X15022Y22074D01*
X15022Y22050D01*
X15057Y22015D01*
X13913Y20207D02*
X13866Y20160D01*
X13819D01*
Y20207D01*
X13866Y20254D01*
X13842Y20278D02*
X13795Y20325D01*
X13819Y20301D01*
X13748Y20231D01*
X13654Y20325D02*
X13701Y20278D01*
Y20372D01*
X13713Y20384D01*
X13736Y20384D01*
X13760Y20360D01*
Y20337D01*
X27364Y22078D02*
X27305Y22019D01*
X27281D01*
X27258Y22043D01*
Y22066D01*
X27317Y22125D01*
X27234Y22090D02*
X27211D01*
X27187Y22113D01*
Y22137D01*
X27234Y22184D01*
X27258Y22184D01*
X27281Y22160D01*
Y22137D01*
X27269Y22125D01*
X27246Y22125D01*
X27211Y22160D01*
X16591Y16191D02*
X16532Y16132D01*
X16508D01*
X16485Y16155D01*
Y16179D01*
X16544Y16238D01*
X16473Y16309D02*
X16520Y16261D01*
X16485Y16226D01*
X16473Y16261D01*
X16461Y16273D01*
X16438D01*
X16414Y16250D01*
Y16226D01*
X16438Y16202D01*
X16461D01*
X13025Y20275D02*
Y20375D01*
X12975D01*
X12958Y20358D01*
Y20325D01*
X12975Y20308D01*
X13025D01*
X12992D02*
X12958Y20275D01*
X12875D02*
Y20375D01*
X12925Y20325D01*
X12858D01*
X12758Y20275D02*
X12825D01*
X12758Y20342D01*
Y20358D01*
X12775Y20375D01*
X12808D01*
X12825Y20358D01*
X22190Y11590D02*
Y11690D01*
X22140D01*
X22123Y11673D01*
Y11640D01*
X22140Y11623D01*
X22190D01*
X22157D02*
X22123Y11590D01*
X22040D02*
Y11690D01*
X22090Y11640D01*
X22023D01*
X21990Y11590D02*
X21957D01*
X21973D01*
Y11690D01*
X21990Y11673D01*
X22200Y13061D02*
Y13161D01*
X22150D01*
X22133Y13144D01*
Y13111D01*
X22150Y13094D01*
X22200D01*
X22166D02*
X22133Y13061D01*
X22100Y13144D02*
X22083Y13161D01*
X22050D01*
X22033Y13144D01*
Y13127D01*
X22050Y13111D01*
X22066D01*
X22050D01*
X22033Y13094D01*
Y13077D01*
X22050Y13061D01*
X22083D01*
X22100Y13077D01*
X22000Y13144D02*
X21983Y13161D01*
X21950D01*
X21933Y13144D01*
Y13127D01*
X21950Y13111D01*
X21933Y13094D01*
Y13077D01*
X21950Y13061D01*
X21983D01*
X22000Y13077D01*
Y13094D01*
X21983Y13111D01*
X22000Y13127D01*
Y13144D01*
X21983Y13111D02*
X21950D01*
X13025Y18775D02*
Y18875D01*
X12975D01*
X12958Y18858D01*
Y18825D01*
X12975Y18808D01*
X13025D01*
X12992D02*
X12958Y18775D01*
X12925Y18858D02*
X12908Y18875D01*
X12875D01*
X12858Y18858D01*
Y18842D01*
X12875Y18825D01*
X12892D01*
X12875D01*
X12858Y18808D01*
Y18792D01*
X12875Y18775D01*
X12908D01*
X12925Y18792D01*
X12758Y18875D02*
X12825D01*
Y18825D01*
X12792Y18842D01*
X12775D01*
X12758Y18825D01*
Y18792D01*
X12775Y18775D01*
X12808D01*
X12825Y18792D01*
X14630Y19190D02*
X14701Y19261D01*
X14665Y19296D01*
X14642D01*
X14618Y19272D01*
Y19249D01*
X14654Y19214D01*
X14630Y19237D02*
X14583D01*
X14512Y19308D02*
X14559Y19261D01*
Y19355D01*
X14571Y19367D01*
X14595Y19367D01*
X14618Y19343D01*
Y19320D01*
X14441Y19379D02*
X14489Y19331D01*
Y19426D01*
X14500Y19437D01*
X14524Y19437D01*
X14548Y19414D01*
Y19390D01*
X15215Y19760D02*
X15286Y19831D01*
X15250Y19866D01*
X15227D01*
X15203Y19842D01*
Y19819D01*
X15239Y19784D01*
X15215Y19807D02*
X15168D01*
X15144Y19831D02*
X15121Y19854D01*
X15133Y19842D01*
X15203Y19913D01*
Y19890D01*
X15144Y19949D02*
Y19972D01*
X15121Y19996D01*
X15097Y19996D01*
X15085Y19984D01*
Y19960D01*
X15062Y19960D01*
X15050Y19949D01*
X15050Y19925D01*
X15074Y19901D01*
X15097D01*
X15109Y19913D01*
Y19937D01*
X15133Y19937D01*
X15144Y19949D01*
X15109Y19937D02*
X15085Y19960D01*
X25874Y21642D02*
Y21665D01*
X25898Y21689D01*
X25921D01*
X25968Y21642D01*
Y21618D01*
X25945Y21595D01*
X25921D01*
X25909Y21559D02*
X25886Y21536D01*
X25898Y21548D01*
X25827Y21618D01*
X25850D01*
X25791Y21559D02*
X25768D01*
X25744Y21536D01*
X25744Y21512D01*
X25756Y21500D01*
X25780D01*
X25791Y21512D01*
X25780Y21500D01*
X25780Y21477D01*
X25791Y21465D01*
X25815Y21465D01*
X25839Y21489D01*
Y21512D01*
X15812Y17096D02*
X15835D01*
X15859Y17072D01*
Y17049D01*
X15812Y17002D01*
X15788D01*
X15765Y17025D01*
Y17049D01*
X15800Y17131D02*
X15753Y17179D01*
X15741Y17167D01*
Y17072D01*
X15729Y17061D01*
X13117Y22152D02*
X12999Y22129D01*
X13070Y22200D02*
X13046Y22082D01*
Y22223D02*
X12976Y22152D01*
X12929Y22200D01*
Y22341D02*
X12940Y22306D01*
Y22258D01*
X12917Y22235D01*
X12893D01*
X12870Y22258D01*
X12870Y22282D01*
X12881Y22294D01*
X12905Y22294D01*
X12940Y22258D01*
X12893Y22353D02*
Y22376D01*
X12870Y22400D01*
X12846Y22400D01*
X12799Y22353D01*
X12799Y22329D01*
X12822Y22306D01*
X12846D01*
X12893Y22353D01*
X12822Y22423D02*
Y22447D01*
X12799Y22471D01*
X12775Y22471D01*
X12728Y22423D01*
X12728Y22400D01*
X12752Y22376D01*
X12775D01*
X12822Y22423D01*
X12705Y22447D02*
X12681D01*
X12658Y22471D01*
X12658Y22494D01*
X12705Y22541D01*
X12728D01*
X12752Y22518D01*
Y22494D01*
X12740Y22482D01*
X12716Y22482D01*
X12681Y22518D01*
X12587Y22683D02*
X12610Y22659D01*
Y22635D01*
X12563Y22588D01*
X12540D01*
X12516Y22612D01*
Y22635D01*
X12563Y22683D01*
X12587Y22683D01*
X12552Y22718D02*
X12493Y22659D01*
X12469D01*
X12445Y22683D01*
X12445Y22706D01*
X12504Y22765D01*
X12481Y22789D02*
X12434Y22836D01*
X12457Y22812D01*
X12387Y22742D01*
X12971Y16929D02*
X12947Y17047D01*
X13018Y16976D02*
X12900Y17000D01*
X13041D02*
X12971Y17071D01*
X13018Y17118D01*
X13159D02*
X13124Y17106D01*
X13077D01*
X13053Y17130D01*
Y17153D01*
X13077Y17177D01*
X13100Y17177D01*
X13112Y17165D01*
X13112Y17141D01*
X13077Y17106D01*
X13171Y17153D02*
X13195D01*
X13218Y17177D01*
X13218Y17200D01*
X13171Y17247D01*
X13147Y17247D01*
X13124Y17224D01*
Y17200D01*
X13171Y17153D01*
X13242Y17224D02*
X13265D01*
X13289Y17247D01*
X13289Y17271D01*
X13242Y17318D01*
X13218Y17318D01*
X13195Y17295D01*
Y17271D01*
X13242Y17224D01*
X13265Y17342D02*
Y17365D01*
X13289Y17389D01*
X13312Y17389D01*
X13359Y17342D01*
Y17318D01*
X13336Y17295D01*
X13312D01*
X13301Y17306D01*
X13301Y17330D01*
X13336Y17365D01*
X13466Y17424D02*
X13489Y17448D01*
X13477Y17436D01*
X13407Y17507D01*
X13395Y17495D01*
X13418Y17518D01*
X13454Y17554D02*
X13524Y17483D01*
X13501Y17601D01*
X13572Y17530D01*
X25929Y22071D02*
X26000Y22000D01*
X25965Y21965D01*
X25941D01*
X25929Y21976D01*
X25929Y22000D01*
X25965Y22035D01*
X25929Y22000D01*
X25906D01*
X25894Y22012D01*
Y22035D01*
X25929Y22071D01*
Y21929D02*
X25882Y21976D01*
X25835Y21976D01*
X25835Y21929D01*
X25882Y21882D01*
X25847Y21918D01*
X25894Y21965D01*
X25788Y21929D02*
X25859Y21859D01*
X25811Y21811D01*
X25717Y21859D02*
X25788Y21788D01*
X25741Y21741D01*
X25729Y21705D02*
X25682Y21658D01*
X25541D02*
Y21682D01*
X25564Y21705D01*
X25588D01*
X25599Y21694D01*
X25599Y21670D01*
X25576Y21647D01*
X25576Y21623D01*
X25588Y21611D01*
X25611Y21611D01*
X25635Y21635D01*
Y21658D01*
X25458Y21599D02*
X25505Y21647D01*
X25576Y21576D01*
X25529Y21529D01*
X25541Y21611D02*
X25517Y21588D01*
X25505Y21505D02*
X25434Y21576D01*
X25458Y21458D01*
X25387Y21529D01*
X13984Y23029D02*
X14055Y23100D01*
X14090Y23065D01*
Y23041D01*
X14079Y23029D01*
X14055Y23029D01*
X14020Y23065D01*
X14055Y23029D01*
Y23006D01*
X14043Y22994D01*
X14020D01*
X13984Y23029D01*
X14126D02*
X14079Y22982D01*
X14079Y22935D01*
X14126Y22935D01*
X14173Y22982D01*
X14137Y22947D01*
X14090Y22994D01*
X14126Y22888D02*
X14196Y22959D01*
X14244Y22911D01*
X14196Y22817D02*
X14267Y22888D01*
X14314Y22841D01*
X14350Y22829D02*
X14397Y22782D01*
X14338Y22676D02*
X14408Y22747D01*
X14456Y22699D01*
Y22558D02*
X14408Y22605D01*
X14479Y22676D01*
X14526Y22629D01*
X14444Y22641D02*
X14467Y22617D01*
X14479Y22534D02*
X14550Y22605D01*
X14585Y22570D01*
Y22546D01*
X14538Y22499D01*
X14514Y22499D01*
X14479Y22534D01*
X22689Y17971D02*
X22760Y17900D01*
X22713Y17853D01*
X22689Y17829D02*
X22666Y17806D01*
X22678Y17818D01*
X22630Y17865D01*
X22642Y17876D01*
X22630Y17770D02*
X22583Y17818D01*
X22548Y17782D01*
Y17759D01*
X22583Y17723D01*
X22524Y17664D02*
X22548Y17688D01*
Y17711D01*
X22524Y17735D01*
X22501D01*
X22477Y17711D01*
Y17688D01*
X22489Y17676D01*
X22536Y17723D01*
X22348Y17629D02*
X22418Y17558D01*
X22383Y17523D01*
X22359D01*
X22348Y17535D01*
X22348Y17558D01*
X22383Y17594D01*
X22348Y17558D01*
X22324D01*
X22312Y17570D01*
X22312Y17594D01*
X22348Y17629D01*
X22336Y17476D02*
X22312Y17452D01*
X22289Y17452D01*
X22265Y17476D01*
Y17499D01*
X22289Y17523D01*
X22312Y17523D01*
X22336Y17499D01*
Y17476D01*
X22218Y17452D02*
X22194Y17429D01*
Y17405D01*
X22230Y17370D01*
X22265Y17405D01*
Y17429D01*
X22242Y17429D01*
X22206Y17393D01*
X22159D02*
X22206Y17346D01*
X22183Y17370D01*
X22159D01*
X22136D01*
X22124Y17358D01*
X22018Y17299D02*
X22088Y17228D01*
X22124Y17264D01*
Y17287D01*
X22100Y17311D01*
X22077Y17311D01*
X22041Y17276D01*
X24650Y19825D02*
Y19758D01*
X24617Y19725D01*
X24583Y19758D01*
Y19825D01*
X24550D02*
X24483D01*
X24517D01*
Y19725D01*
X24383Y19825D02*
X24450D01*
Y19775D01*
X24417Y19792D01*
X24400D01*
X24383Y19775D01*
Y19742D01*
X24400Y19725D01*
X24433D01*
X24450Y19742D01*
X25500Y19100D02*
Y19033D01*
X25467Y19000D01*
X25433Y19033D01*
Y19100D01*
X25400D02*
X25333D01*
X25367D01*
Y19000D01*
X25250D02*
Y19100D01*
X25300Y19050D01*
X25233D01*
X13361Y20781D02*
X13314Y20734D01*
X13266D01*
Y20781D01*
X13314Y20828D01*
X13290Y20851D02*
X13243Y20899D01*
X13266Y20875D01*
X13196Y20804D01*
X13208Y20910D02*
Y20934D01*
X13184Y20957D01*
X13160Y20957D01*
X13149Y20946D01*
Y20922D01*
X13160Y20910D01*
X13149Y20922D01*
X13125Y20922D01*
X13113Y20910D01*
X13113Y20887D01*
X13137Y20863D01*
X13160D01*
X14731Y19771D02*
X14684Y19724D01*
X14636D01*
Y19771D01*
X14684Y19818D01*
X14660Y19841D02*
X14613Y19889D01*
X14636Y19865D01*
X14566Y19794D01*
X14519Y19841D02*
X14495Y19865D01*
X14507Y19853D01*
X14578Y19924D01*
Y19900D01*
X25160Y18910D02*
Y18843D01*
X25127Y18810D01*
X25093Y18843D01*
Y18910D01*
X25060D02*
Y18810D01*
X25010D01*
X24993Y18827D01*
Y18893D01*
X25010Y18910D01*
X25060D01*
X24893D02*
X24927Y18893D01*
X24960Y18860D01*
Y18827D01*
X24943Y18810D01*
X24910D01*
X24893Y18827D01*
Y18843D01*
X24910Y18860D01*
X24960D01*
X16031Y20811D02*
X15984Y20764D01*
X15936D01*
Y20811D01*
X15984Y20858D01*
X15960Y20881D02*
X15889Y20811D01*
X15854Y20846D01*
Y20870D01*
X15901Y20917D01*
X15925Y20917D01*
X15960Y20881D01*
X15842Y20999D02*
X15889Y20952D01*
X15854Y20917D01*
X15842Y20952D01*
X15830Y20964D01*
X15807D01*
X15783Y20940D01*
X15783Y20917D01*
X15807Y20893D01*
X15830D01*
X26440Y18390D02*
Y18323D01*
X26407Y18290D01*
X26373Y18323D01*
Y18390D01*
X26340D02*
Y18290D01*
X26290D01*
X26273Y18307D01*
Y18373D01*
X26290Y18390D01*
X26340D01*
X26240Y18373D02*
X26223Y18390D01*
X26190D01*
X26173Y18373D01*
Y18357D01*
X26190Y18340D01*
X26207D01*
X26190D01*
X26173Y18323D01*
Y18307D01*
X26190Y18290D01*
X26223D01*
X26240Y18307D01*
X18360Y14200D02*
Y14133D01*
X18327Y14100D01*
X18293Y14133D01*
Y14200D01*
X18260D02*
Y14100D01*
X18210D01*
X18193Y14117D01*
Y14183D01*
X18210Y14200D01*
X18260D01*
X18093Y14100D02*
X18160D01*
X18093Y14167D01*
Y14183D01*
X18110Y14200D01*
X18143D01*
X18160Y14183D01*
X18830Y14200D02*
Y14133D01*
X18797Y14100D01*
X18763Y14133D01*
Y14200D01*
X18730D02*
Y14100D01*
X18680D01*
X18663Y14117D01*
Y14183D01*
X18680Y14200D01*
X18730D01*
X18630Y14100D02*
X18597D01*
X18613D01*
Y14200D01*
X18630Y14183D01*
X18710Y11610D02*
X18627D01*
X18610Y11627D01*
Y11660D01*
X18627Y11677D01*
X18710D01*
X18610Y11710D02*
Y11743D01*
Y11727D01*
X18710D01*
X18693Y11710D01*
Y11793D02*
X18710Y11810D01*
Y11843D01*
X18693Y11860D01*
X18627D01*
X18610Y11843D01*
Y11810D01*
X18627Y11793D01*
X18693D01*
X26876Y21590D02*
X26817Y21531D01*
X26793D01*
X26770Y21554D01*
Y21578D01*
X26829Y21637D01*
X26793Y21649D02*
Y21672D01*
X26770Y21696D01*
X26746Y21696D01*
X26734Y21684D01*
Y21660D01*
X26711Y21660D01*
X26699Y21649D01*
Y21625D01*
X26723Y21602D01*
X26746D01*
X26758Y21613D01*
Y21637D01*
X26782Y21637D01*
X26793Y21649D01*
X26758Y21637D02*
X26734Y21660D01*
X24741Y16891D02*
X24682Y16832D01*
X24658D01*
X24635Y16855D01*
Y16879D01*
X24694Y16938D01*
X24670Y16961D02*
X24623Y17009D01*
X24611Y16997D01*
Y16902D01*
X24599Y16891D01*
X24251Y16371D02*
X24192Y16312D01*
X24168D01*
X24145Y16335D01*
Y16359D01*
X24204Y16418D01*
X24133Y16489D02*
X24145Y16453D01*
Y16406D01*
X24121Y16382D01*
X24098D01*
X24074Y16406D01*
Y16430D01*
X24086Y16441D01*
X24109Y16441D01*
X24145Y16406D01*
X16071Y16731D02*
X16012Y16672D01*
X15988D01*
X15965Y16695D01*
Y16719D01*
X16024Y16778D01*
X15894Y16766D02*
X15965Y16837D01*
Y16766D01*
X15918Y16813D01*
X28180Y21550D02*
X28251Y21621D01*
X28215Y21656D01*
X28192D01*
X28168Y21632D01*
Y21609D01*
X28204Y21574D01*
X28180Y21597D02*
X28133D01*
X28180Y21691D02*
X28133Y21739D01*
X28121Y21727D01*
Y21632D01*
X28109Y21621D01*
X28098Y21750D02*
Y21774D01*
X28074Y21797D01*
X28050Y21797D01*
X28003Y21750D01*
X28003Y21727D01*
X28027Y21703D01*
X28050D01*
X28098Y21750D01*
X28590Y21980D02*
X28661Y22051D01*
X28625Y22086D01*
X28602D01*
X28578Y22062D01*
Y22039D01*
X28614Y22004D01*
X28590Y22027D02*
X28543D01*
Y22169D02*
X28555Y22133D01*
Y22086D01*
X28531Y22062D01*
X28508D01*
X28484Y22086D01*
Y22110D01*
X28496Y22121D01*
X28519Y22121D01*
X28555Y22086D01*
X28460Y22133D02*
X28437D01*
X28413Y22157D01*
X28413Y22180D01*
X28460Y22227D01*
X28484Y22227D01*
X28508Y22204D01*
Y22180D01*
X28496Y22169D01*
X28472D01*
X28437Y22204D01*
X28960Y21870D02*
X29031Y21941D01*
X28995Y21976D01*
X28972D01*
X28948Y21952D01*
Y21929D01*
X28984Y21894D01*
X28960Y21917D02*
X28913D01*
Y22059D02*
X28925Y22023D01*
Y21976D01*
X28901Y21952D01*
X28878D01*
X28854Y21976D01*
Y22000D01*
X28866Y22011D01*
X28889Y22011D01*
X28925Y21976D01*
X28878Y22070D02*
Y22094D01*
X28854Y22117D01*
X28830Y22117D01*
X28819Y22106D01*
Y22082D01*
X28795Y22082D01*
X28783Y22070D01*
X28783Y22047D01*
X28807Y22023D01*
X28830D01*
X28842Y22035D01*
Y22059D01*
X28866D01*
X28878Y22070D01*
X28842Y22059D02*
X28819Y22082D01*
X28300Y21210D02*
X28371Y21281D01*
X28335Y21316D01*
X28312D01*
X28288Y21292D01*
Y21269D01*
X28324Y21234D01*
X28300Y21257D02*
X28253D01*
Y21399D02*
X28265Y21363D01*
Y21316D01*
X28241Y21292D01*
X28218D01*
X28194Y21316D01*
Y21340D01*
X28206Y21351D01*
X28229Y21351D01*
X28265Y21316D01*
X28229Y21422D02*
X28182Y21469D01*
X28170Y21457D01*
Y21363D01*
X28159Y21351D01*
X18370Y11110D02*
Y11210D01*
X18320D01*
X18303Y11193D01*
Y11160D01*
X18320Y11143D01*
X18370D01*
X18337D02*
X18303Y11110D01*
X18203Y11210D02*
X18237Y11193D01*
X18270Y11160D01*
Y11127D01*
X18253Y11110D01*
X18220D01*
X18203Y11127D01*
Y11143D01*
X18220Y11160D01*
X18270D01*
X18170Y11110D02*
X18137D01*
X18153D01*
Y11210D01*
X18170Y11193D01*
X18850Y11960D02*
X18950D01*
Y12010D01*
X18933Y12027D01*
X18900D01*
X18883Y12010D01*
Y11960D01*
Y11993D02*
X18850Y12027D01*
X18950Y12127D02*
X18933Y12093D01*
X18900Y12060D01*
X18867D01*
X18850Y12077D01*
Y12110D01*
X18867Y12127D01*
X18883D01*
X18900Y12110D01*
Y12060D01*
X18933Y12160D02*
X18950Y12177D01*
Y12210D01*
X18933Y12227D01*
X18867D01*
X18850Y12210D01*
Y12177D01*
X18867Y12160D01*
X18933D01*
X17750Y11175D02*
X17850D01*
Y11225D01*
X17833Y11242D01*
X17800D01*
X17783Y11225D01*
Y11175D01*
Y11208D02*
X17750Y11242D01*
X17850Y11342D02*
Y11275D01*
X17800D01*
X17817Y11308D01*
Y11325D01*
X17800Y11342D01*
X17767D01*
X17750Y11325D01*
Y11292D01*
X17767Y11275D01*
Y11375D02*
X17750Y11392D01*
Y11425D01*
X17767Y11442D01*
X17833D01*
X17850Y11425D01*
Y11392D01*
X17833Y11375D01*
X17817D01*
X17800Y11392D01*
Y11442D01*
X17150Y11375D02*
X17250D01*
Y11425D01*
X17233Y11442D01*
X17200D01*
X17183Y11425D01*
Y11375D01*
Y11408D02*
X17150Y11442D01*
X17250Y11542D02*
Y11475D01*
X17200D01*
X17217Y11508D01*
Y11525D01*
X17200Y11542D01*
X17167D01*
X17150Y11525D01*
Y11492D01*
X17167Y11475D01*
X17233Y11575D02*
X17250Y11592D01*
Y11625D01*
X17233Y11642D01*
X17217D01*
X17200Y11625D01*
X17183Y11642D01*
X17167D01*
X17150Y11625D01*
Y11592D01*
X17167Y11575D01*
X17183D01*
X17200Y11592D01*
X17217Y11575D01*
X17233D01*
X17200Y11592D02*
Y11625D01*
X17150Y11725D02*
X17250D01*
Y11775D01*
X17233Y11792D01*
X17200D01*
X17183Y11775D01*
Y11725D01*
Y11758D02*
X17150Y11792D01*
X17250Y11892D02*
Y11825D01*
X17200D01*
X17217Y11858D01*
Y11875D01*
X17200Y11892D01*
X17167D01*
X17150Y11875D01*
Y11842D01*
X17167Y11825D01*
X17250Y11925D02*
Y11992D01*
X17233D01*
X17167Y11925D01*
X17150D01*
Y12050D02*
X17250D01*
Y12100D01*
X17233Y12117D01*
X17200D01*
X17183Y12100D01*
Y12050D01*
Y12083D02*
X17150Y12117D01*
X17250Y12217D02*
Y12150D01*
X17200D01*
X17217Y12183D01*
Y12200D01*
X17200Y12217D01*
X17167D01*
X17150Y12200D01*
Y12167D01*
X17167Y12150D01*
X17250Y12317D02*
X17233Y12283D01*
X17200Y12250D01*
X17167D01*
X17150Y12267D01*
Y12300D01*
X17167Y12317D01*
X17183D01*
X17200Y12300D01*
Y12250D01*
X17150Y12375D02*
X17250D01*
Y12425D01*
X17233Y12442D01*
X17200D01*
X17183Y12425D01*
Y12375D01*
Y12408D02*
X17150Y12442D01*
X17250Y12542D02*
Y12475D01*
X17200D01*
X17217Y12508D01*
Y12525D01*
X17200Y12542D01*
X17167D01*
X17150Y12525D01*
Y12492D01*
X17167Y12475D01*
X17250Y12642D02*
Y12575D01*
X17200D01*
X17217Y12608D01*
Y12625D01*
X17200Y12642D01*
X17167D01*
X17150Y12625D01*
Y12592D01*
X17167Y12575D01*
X17600Y12391D02*
X17700D01*
Y12441D01*
X17683Y12458D01*
X17650D01*
X17633Y12441D01*
Y12391D01*
Y12425D02*
X17600Y12458D01*
X17700Y12558D02*
Y12491D01*
X17650D01*
X17667Y12525D01*
Y12541D01*
X17650Y12558D01*
X17617D01*
X17600Y12541D01*
Y12508D01*
X17617Y12491D01*
X17600Y12641D02*
X17700D01*
X17650Y12591D01*
Y12658D01*
X15325Y18675D02*
X15396Y18746D01*
X15360Y18781D01*
X15337D01*
X15313Y18757D01*
Y18734D01*
X15349Y18699D01*
X15325Y18722D02*
X15278D01*
Y18864D02*
X15325Y18816D01*
X15290Y18781D01*
X15278Y18816D01*
X15266Y18828D01*
X15243D01*
X15219Y18805D01*
Y18781D01*
X15243Y18757D01*
X15266D01*
X15243Y18875D02*
Y18899D01*
X15219Y18922D01*
X15195Y18922D01*
X15184Y18911D01*
Y18887D01*
X15195Y18875D01*
X15184Y18887D01*
X15160Y18887D01*
X15148Y18875D01*
X15148Y18852D01*
X15172Y18828D01*
X15195D01*
X15760Y19110D02*
X15831Y19181D01*
X15795Y19216D01*
X15772D01*
X15748Y19192D01*
Y19169D01*
X15784Y19134D01*
X15760Y19157D02*
X15713D01*
Y19299D02*
X15760Y19251D01*
X15725Y19216D01*
X15713Y19251D01*
X15701Y19263D01*
X15678D01*
X15654Y19240D01*
Y19216D01*
X15678Y19192D01*
X15701D01*
X15678Y19310D02*
Y19334D01*
X15654Y19357D01*
X15630Y19357D01*
X15583Y19310D01*
X15583Y19287D01*
X15607Y19263D01*
X15630D01*
X15678Y19310D01*
X15110Y19500D02*
X15181Y19571D01*
X15145Y19606D01*
X15122D01*
X15098Y19582D01*
Y19559D01*
X15134Y19524D01*
X15110Y19547D02*
X15063D01*
X15004Y19606D02*
X15075Y19677D01*
Y19606D01*
X15028Y19653D01*
X14980Y19653D02*
X14957D01*
X14933Y19677D01*
X14933Y19700D01*
X14980Y19747D01*
X15004Y19747D01*
X15028Y19724D01*
Y19700D01*
X15016Y19689D01*
X14992D01*
X14957Y19724D01*
X15670Y19700D02*
X15741Y19771D01*
X15705Y19806D01*
X15682D01*
X15658Y19782D01*
Y19759D01*
X15694Y19724D01*
X15670Y19747D02*
X15623D01*
X15564Y19806D02*
X15635Y19877D01*
Y19806D01*
X15588Y19853D01*
Y19900D02*
Y19924D01*
X15564Y19947D01*
X15540Y19947D01*
X15529Y19936D01*
Y19912D01*
X15505Y19912D01*
X15493Y19900D01*
X15493Y19877D01*
X15517Y19853D01*
X15540D01*
X15552Y19865D01*
Y19889D01*
X15576D01*
X15588Y19900D01*
X15552Y19889D02*
X15529Y19912D01*
X25046Y20206D02*
X25146D01*
Y20256D01*
X25129Y20273D01*
X25096D01*
X25079Y20256D01*
Y20206D01*
Y20240D02*
X25046Y20273D01*
Y20356D02*
X25146D01*
X25096Y20306D01*
Y20373D01*
X25129Y20406D02*
X25146Y20423D01*
Y20456D01*
X25129Y20473D01*
X25063D01*
X25046Y20456D01*
Y20423D01*
X25063Y20406D01*
X25129D01*
X25633Y19650D02*
Y19750D01*
X25583D01*
X25566Y19733D01*
Y19700D01*
X25583Y19683D01*
X25633D01*
X25600D02*
X25566Y19650D01*
X25533Y19733D02*
X25516Y19750D01*
X25483D01*
X25466Y19733D01*
Y19717D01*
X25483Y19700D01*
X25500D01*
X25483D01*
X25466Y19683D01*
Y19667D01*
X25483Y19650D01*
X25516D01*
X25533Y19667D01*
X25433D02*
X25416Y19650D01*
X25383D01*
X25366Y19667D01*
Y19733D01*
X25383Y19750D01*
X25416D01*
X25433Y19733D01*
Y19717D01*
X25416Y19700D01*
X25366D01*
X24600Y18950D02*
Y19050D01*
X24550D01*
X24533Y19033D01*
Y19000D01*
X24550Y18983D01*
X24600D01*
X24567D02*
X24533Y18950D01*
X24500Y19033D02*
X24483Y19050D01*
X24450D01*
X24433Y19033D01*
Y19017D01*
X24450Y19000D01*
X24467D01*
X24450D01*
X24433Y18983D01*
Y18967D01*
X24450Y18950D01*
X24483D01*
X24500Y18967D01*
X24400Y19050D02*
X24333D01*
Y19033D01*
X24400Y18967D01*
Y18950D01*
X24850Y18690D02*
Y18790D01*
X24800D01*
X24783Y18773D01*
Y18740D01*
X24800Y18723D01*
X24850D01*
X24817D02*
X24783Y18690D01*
X24750Y18773D02*
X24733Y18790D01*
X24700D01*
X24683Y18773D01*
Y18757D01*
X24700Y18740D01*
X24717D01*
X24700D01*
X24683Y18723D01*
Y18707D01*
X24700Y18690D01*
X24733D01*
X24750Y18707D01*
X24583Y18790D02*
X24617Y18773D01*
X24650Y18740D01*
Y18707D01*
X24633Y18690D01*
X24600D01*
X24583Y18707D01*
Y18723D01*
X24600Y18740D01*
X24650D01*
X14418Y19917D02*
X14488Y19988D01*
X14453Y20023D01*
X14429D01*
X14406Y20000D01*
Y19976D01*
X14441Y19941D01*
X14418Y19964D02*
X14370D01*
X14300Y20035D02*
X14347Y19988D01*
Y20082D01*
X14359Y20094D01*
X14382Y20094D01*
X14406Y20070D01*
Y20047D01*
X14276Y20059D02*
X14253Y20082D01*
X14264Y20070D01*
X14335Y20141D01*
Y20118D01*
X25900Y17822D02*
X25971Y17893D01*
X25936Y17928D01*
X25912D01*
X25889Y17904D01*
Y17881D01*
X25924Y17846D01*
X25900Y17869D02*
X25853D01*
X25830Y17893D02*
X25806Y17916D01*
X25818Y17904D01*
X25889Y17975D01*
Y17952D01*
X25794Y18069D02*
X25806Y18034D01*
Y17987D01*
X25782Y17963D01*
X25759D01*
X25735Y17987D01*
X25735Y18011D01*
X25747Y18022D01*
X25771Y18022D01*
X25806Y17987D01*
X28150Y18820D02*
Y18920D01*
X28100D01*
X28083Y18903D01*
Y18870D01*
X28100Y18853D01*
X28150D01*
X28117D02*
X28083Y18820D01*
X28050D02*
X28017D01*
X28033D01*
Y18920D01*
X28050Y18903D01*
X27967D02*
X27950Y18920D01*
X27917D01*
X27900Y18903D01*
Y18887D01*
X27917Y18870D01*
X27933D01*
X27917D01*
X27900Y18853D01*
Y18837D01*
X27917Y18820D01*
X27950D01*
X27967Y18837D01*
X28503Y19383D02*
Y19483D01*
X28453D01*
X28436Y19466D01*
Y19433D01*
X28453Y19416D01*
X28503D01*
X28470D02*
X28436Y19383D01*
X28403D02*
X28370D01*
X28386D01*
Y19483D01*
X28403Y19466D01*
X28253Y19383D02*
X28320D01*
X28253Y19449D01*
Y19466D01*
X28270Y19483D01*
X28303D01*
X28320Y19466D01*
X27774Y21150D02*
X27845Y21220D01*
X27810Y21256D01*
X27786D01*
X27763Y21232D01*
Y21209D01*
X27798Y21173D01*
X27774Y21197D02*
X27727D01*
X27704Y21220D02*
X27680Y21244D01*
X27692Y21232D01*
X27763Y21303D01*
Y21279D01*
X27645D02*
X27621Y21303D01*
X27633Y21291D01*
X27704Y21362D01*
Y21338D01*
X24760Y15800D02*
X24831Y15871D01*
X24795Y15906D01*
X24772D01*
X24748Y15882D01*
Y15859D01*
X24784Y15824D01*
X24760Y15847D02*
X24713D01*
X24689Y15871D02*
X24666Y15894D01*
X24678Y15882D01*
X24748Y15953D01*
Y15930D01*
X24689Y15989D02*
Y16012D01*
X24666Y16036D01*
X24642Y16036D01*
X24595Y15989D01*
X24595Y15965D01*
X24619Y15941D01*
X24642D01*
X24689Y15989D01*
X27953Y20975D02*
X28024Y21046D01*
X27989Y21081D01*
X27965D01*
X27942Y21057D01*
Y21034D01*
X27977Y20999D01*
X27953Y21022D02*
X27906D01*
X27895Y21057D02*
X27871D01*
X27847Y21081D01*
Y21105D01*
X27895Y21152D01*
X27918Y21152D01*
X27942Y21128D01*
Y21105D01*
X27930Y21093D01*
X27906Y21093D01*
X27871Y21128D01*
X25140Y16270D02*
X25211Y16341D01*
X25175Y16376D01*
X25152D01*
X25128Y16352D01*
Y16329D01*
X25164Y16294D01*
X25140Y16317D02*
X25093D01*
X25128Y16400D02*
Y16423D01*
X25105Y16447D01*
X25081Y16447D01*
X25069Y16435D01*
Y16411D01*
X25046Y16411D01*
X25034Y16400D01*
Y16376D01*
X25058Y16352D01*
X25081D01*
X25093Y16364D01*
Y16388D01*
X25116Y16388D01*
X25128Y16400D01*
X25093Y16388D02*
X25069Y16411D01*
X16060Y15040D02*
X16131Y15111D01*
X16095Y15146D01*
X16072D01*
X16048Y15122D01*
Y15099D01*
X16084Y15064D01*
X16060Y15087D02*
X16013D01*
X16060Y15181D02*
X16013Y15229D01*
X16001Y15217D01*
Y15122D01*
X15989Y15111D01*
X16220Y14880D02*
X16291Y14951D01*
X16255Y14986D01*
X16232D01*
X16208Y14962D01*
Y14939D01*
X16244Y14904D01*
X16220Y14927D02*
X16173D01*
Y15069D02*
X16220Y15021D01*
X16185Y14986D01*
X16173Y15021D01*
X16161Y15033D01*
X16138D01*
X16114Y15010D01*
Y14986D01*
X16138Y14962D01*
X16161D01*
X25100Y21275D02*
Y21375D01*
X25050D01*
X25033Y21358D01*
Y21325D01*
X25050Y21308D01*
X25100D01*
X25067D02*
X25033Y21275D01*
X25000Y21358D02*
X24983Y21375D01*
X24950D01*
X24933Y21358D01*
Y21342D01*
X24950Y21325D01*
X24967D01*
X24950D01*
X24933Y21308D01*
Y21292D01*
X24950Y21275D01*
X24983D01*
X25000Y21292D01*
X27800Y20500D02*
Y20400D01*
X27750D01*
X27733Y20417D01*
Y20483D01*
X27750Y20500D01*
X27800D01*
X27700Y20400D02*
Y20467D01*
X27667Y20500D01*
X27633Y20467D01*
Y20400D01*
Y20450D01*
X27700D01*
X27600Y20400D02*
X27567D01*
X27583D01*
Y20500D01*
X27600Y20483D01*
X18310Y12819D02*
Y12719D01*
X18260D01*
X18243Y12735D01*
Y12802D01*
X18260Y12819D01*
X18310D01*
X18143Y12719D02*
X18210D01*
X18143Y12785D01*
Y12802D01*
X18160Y12819D01*
X18193D01*
X18210Y12802D01*
X14996Y19121D02*
X14925Y19050D01*
X14890Y19085D01*
Y19109D01*
X14937Y19156D01*
X14960D01*
X14996Y19121D01*
X14854D02*
X14831Y19144D01*
X14843Y19132D01*
X14913Y19203D01*
Y19180D01*
X18818Y12442D02*
X18835Y12425D01*
Y12392D01*
X18818Y12375D01*
X18752D01*
X18735Y12392D01*
Y12425D01*
X18752Y12442D01*
X18835Y12542D02*
Y12475D01*
X18785D01*
X18802Y12508D01*
Y12525D01*
X18785Y12542D01*
X18752D01*
X18735Y12525D01*
Y12492D01*
X18752Y12475D01*
X18735Y12642D02*
Y12575D01*
X18802Y12642D01*
X18818D01*
X18835Y12625D01*
Y12592D01*
X18818Y12575D01*
X25308Y20269D02*
X25325Y20252D01*
Y20219D01*
X25308Y20203D01*
X25242D01*
X25225Y20219D01*
Y20252D01*
X25242Y20269D01*
X25225Y20352D02*
X25325D01*
X25275Y20302D01*
Y20369D01*
X25325Y20469D02*
X25308Y20436D01*
X25275Y20402D01*
X25242D01*
X25225Y20419D01*
Y20452D01*
X25242Y20469D01*
X25258D01*
X25275Y20452D01*
Y20402D01*
X24208Y19317D02*
X24225Y19300D01*
Y19267D01*
X24208Y19250D01*
X24142D01*
X24125Y19267D01*
Y19300D01*
X24142Y19317D01*
X24125Y19400D02*
X24225D01*
X24175Y19350D01*
Y19417D01*
X24225Y19517D02*
Y19450D01*
X24175D01*
X24192Y19483D01*
Y19500D01*
X24175Y19517D01*
X24142D01*
X24125Y19500D01*
Y19467D01*
X24142Y19450D01*
X24593Y19633D02*
X24610Y19650D01*
X24643D01*
X24660Y19633D01*
Y19567D01*
X24643Y19550D01*
X24610D01*
X24593Y19567D01*
X24510Y19550D02*
Y19650D01*
X24560Y19600D01*
X24493D01*
X24410Y19550D02*
Y19650D01*
X24460Y19600D01*
X24393D01*
X28443Y18873D02*
X28460Y18890D01*
X28493D01*
X28510Y18873D01*
Y18807D01*
X28493Y18790D01*
X28460D01*
X28443Y18807D01*
X28410Y18873D02*
X28393Y18890D01*
X28360D01*
X28343Y18873D01*
Y18857D01*
X28360Y18840D01*
X28377D01*
X28360D01*
X28343Y18823D01*
Y18807D01*
X28360Y18790D01*
X28393D01*
X28410Y18807D01*
X28310Y18873D02*
X28293Y18890D01*
X28260D01*
X28243Y18873D01*
Y18857D01*
X28260Y18840D01*
X28243Y18823D01*
Y18807D01*
X28260Y18790D01*
X28293D01*
X28310Y18807D01*
Y18823D01*
X28293Y18840D01*
X28310Y18857D01*
Y18873D01*
X28293Y18840D02*
X28260D01*
X26213Y17262D02*
X26230Y17245D01*
Y17212D01*
X26213Y17195D01*
X26147D01*
X26130Y17212D01*
Y17245D01*
X26147Y17262D01*
X26213Y17295D02*
X26230Y17312D01*
Y17345D01*
X26213Y17362D01*
X26197D01*
X26180Y17345D01*
Y17328D01*
Y17345D01*
X26163Y17362D01*
X26147D01*
X26130Y17345D01*
Y17312D01*
X26147Y17295D01*
X26230Y17462D02*
X26213Y17428D01*
X26180Y17395D01*
X26147D01*
X26130Y17412D01*
Y17445D01*
X26147Y17462D01*
X26163D01*
X26180Y17445D01*
Y17395D01*
X28773Y18913D02*
X28790Y18930D01*
X28823D01*
X28840Y18913D01*
Y18847D01*
X28823Y18830D01*
X28790D01*
X28773Y18847D01*
X28740Y18913D02*
X28723Y18930D01*
X28690D01*
X28673Y18913D01*
Y18897D01*
X28690Y18880D01*
X28707D01*
X28690D01*
X28673Y18863D01*
Y18847D01*
X28690Y18830D01*
X28723D01*
X28740Y18847D01*
X28590Y18830D02*
Y18930D01*
X28640Y18880D01*
X28573D01*
X20246Y15948D02*
X20262Y15965D01*
X20296D01*
X20312Y15948D01*
Y15882D01*
X20296Y15865D01*
X20262D01*
X20246Y15882D01*
X20212Y15948D02*
X20196Y15965D01*
X20162D01*
X20146Y15948D01*
Y15931D01*
X20162Y15915D01*
X20179D01*
X20162D01*
X20146Y15898D01*
Y15882D01*
X20162Y15865D01*
X20196D01*
X20212Y15882D01*
X20112Y15948D02*
X20096Y15965D01*
X20062D01*
X20046Y15948D01*
Y15882D01*
X20062Y15865D01*
X20096D01*
X20112Y15882D01*
Y15948D01*
X27283Y18487D02*
X27300Y18470D01*
Y18437D01*
X27283Y18420D01*
X27217D01*
X27200Y18437D01*
Y18470D01*
X27217Y18487D01*
X27200Y18587D02*
Y18520D01*
X27267Y18587D01*
X27283D01*
X27300Y18570D01*
Y18537D01*
X27283Y18520D01*
X27300Y18687D02*
Y18620D01*
X27250D01*
X27267Y18653D01*
Y18670D01*
X27250Y18687D01*
X27217D01*
X27200Y18670D01*
Y18637D01*
X27217Y18620D01*
X20233Y14367D02*
X20250Y14350D01*
Y14317D01*
X20233Y14300D01*
X20167D01*
X20150Y14317D01*
Y14350D01*
X20167Y14367D01*
X20150Y14467D02*
Y14400D01*
X20217Y14467D01*
X20233D01*
X20250Y14450D01*
Y14417D01*
X20233Y14400D01*
X20150Y14500D02*
Y14533D01*
Y14517D01*
X20250D01*
X20233Y14500D01*
X20033Y14367D02*
X20050Y14350D01*
Y14317D01*
X20033Y14300D01*
X19967D01*
X19950Y14317D01*
Y14350D01*
X19967Y14367D01*
X19950Y14467D02*
Y14400D01*
X20017Y14467D01*
X20033D01*
X20050Y14450D01*
Y14417D01*
X20033Y14400D01*
Y14500D02*
X20050Y14517D01*
Y14550D01*
X20033Y14567D01*
X19967D01*
X19950Y14550D01*
Y14517D01*
X19967Y14500D01*
X20033D01*
X26473Y18783D02*
X26490Y18800D01*
X26523D01*
X26540Y18783D01*
Y18717D01*
X26523Y18700D01*
X26490D01*
X26473Y18717D01*
X26440Y18700D02*
X26407D01*
X26423D01*
Y18800D01*
X26440Y18783D01*
X26357D02*
X26340Y18800D01*
X26307D01*
X26290Y18783D01*
Y18767D01*
X26307Y18750D01*
X26290Y18733D01*
Y18717D01*
X26307Y18700D01*
X26340D01*
X26357Y18717D01*
Y18733D01*
X26340Y18750D01*
X26357Y18767D01*
Y18783D01*
X26340Y18750D02*
X26307D01*
X26393Y19923D02*
X26410Y19940D01*
X26443D01*
X26460Y19923D01*
Y19857D01*
X26443Y19840D01*
X26410D01*
X26393Y19857D01*
X26360Y19840D02*
X26327D01*
X26343D01*
Y19940D01*
X26360Y19923D01*
X26210Y19940D02*
X26243Y19923D01*
X26277Y19890D01*
Y19857D01*
X26260Y19840D01*
X26227D01*
X26210Y19857D01*
Y19873D01*
X26227Y19890D01*
X26277D01*
X26352Y22116D02*
X26375D01*
X26399Y22092D01*
Y22069D01*
X26352Y22022D01*
X26328D01*
X26305Y22045D01*
Y22069D01*
X26269Y22081D02*
X26246Y22104D01*
X26258Y22092D01*
X26328Y22163D01*
Y22140D01*
X26234Y22257D02*
X26281Y22210D01*
X26246Y22175D01*
X26234Y22210D01*
X26222Y22222D01*
X26199D01*
X26175Y22199D01*
X26175Y22175D01*
X26199Y22151D01*
X26222D01*
X23754Y16882D02*
Y16905D01*
X23778Y16929D01*
X23801D01*
X23848Y16882D01*
Y16858D01*
X23825Y16835D01*
X23801D01*
X23789Y16799D02*
X23766Y16776D01*
X23778Y16788D01*
X23707Y16858D01*
X23730D01*
X23695Y16705D02*
X23624Y16776D01*
X23695D01*
X23648Y16729D01*
X23254Y16382D02*
Y16405D01*
X23278Y16429D01*
X23301D01*
X23348Y16382D01*
Y16358D01*
X23325Y16335D01*
X23301D01*
X23289Y16299D02*
X23266Y16276D01*
X23278Y16288D01*
X23207Y16358D01*
X23230D01*
X23183Y16193D02*
X23230Y16240D01*
X23136D01*
X23124Y16252D01*
X23124Y16276D01*
X23148Y16299D01*
X23171D01*
X25737Y20681D02*
X25760D01*
X25784Y20657D01*
Y20634D01*
X25737Y20587D01*
X25713D01*
X25690Y20610D01*
Y20634D01*
X25654Y20646D02*
X25631Y20669D01*
X25643Y20657D01*
X25713Y20728D01*
Y20705D01*
X25595D02*
X25572Y20728D01*
X25584Y20716D01*
X25654Y20787D01*
Y20764D01*
X23292Y15316D02*
X23315D01*
X23339Y15292D01*
Y15269D01*
X23292Y15222D01*
X23268D01*
X23245Y15245D01*
Y15269D01*
X23209Y15281D02*
X23186Y15304D01*
X23198Y15292D01*
X23268Y15363D01*
Y15340D01*
X23209Y15399D02*
Y15422D01*
X23186Y15446D01*
X23162Y15446D01*
X23115Y15399D01*
X23115Y15375D01*
X23139Y15351D01*
X23162D01*
X23209Y15399D01*
X16352Y16546D02*
X16375D01*
X16399Y16522D01*
Y16499D01*
X16352Y16452D01*
X16328D01*
X16305Y16475D01*
Y16499D01*
X16281Y16522D02*
X16258D01*
X16234Y16546D01*
Y16570D01*
X16281Y16617D01*
X16305Y16617D01*
X16328Y16593D01*
Y16570D01*
X16316Y16558D01*
X16293Y16558D01*
X16258Y16593D01*
X14932Y14586D02*
X14955D01*
X14979Y14562D01*
Y14539D01*
X14932Y14492D01*
X14908D01*
X14885Y14515D01*
Y14539D01*
X14873Y14669D02*
X14920Y14621D01*
X14885Y14586D01*
X14873Y14621D01*
X14861Y14633D01*
X14838D01*
X14814Y14610D01*
Y14586D01*
X14838Y14562D01*
X14861D01*
D80*
X13509Y20605D02*
G03*
X13509Y20605I-12J0D01*
G01*
X14077Y20042D02*
G03*
X14077Y20042I-12J0D01*
G01*
X24900Y19697D02*
G03*
X24900Y19697I-12J0D01*
G01*
X13162Y21244D02*
X13218Y21301D01*
X13162Y21244D02*
X13635Y20770D01*
X13692Y20827D01*
X13729Y20681D02*
X13786Y20738D01*
X13729Y20681D02*
X14203Y20207D01*
X14259Y20264D01*
X24868Y19912D02*
Y19992D01*
X24198Y19912D02*
X24868D01*
X24198D02*
Y19992D01*
D81*
X25464Y22506D02*
X25870Y22100D01*
X24941Y21983D02*
X25464Y22506D01*
X24941Y21983D02*
X25347Y21576D01*
X25870Y22100D01*
X12580Y22790D02*
X13103Y22266D01*
X12580Y22790D02*
X12986Y23196D01*
X13509Y22673D01*
X13103Y22266D02*
X13509Y22673D01*
X14260Y21465D02*
X14783Y21989D01*
X15189Y21582D01*
X14666Y21059D02*
X15189Y21582D01*
X14260Y21465D02*
X14666Y21059D01*
X13598Y17455D02*
X14005Y17048D01*
X13075Y16932D02*
X13598Y17455D01*
X13075Y16932D02*
X13482Y16525D01*
X14005Y17048D01*
X18143Y12493D02*
X18310D01*
X18143Y12643D02*
X18310D01*
X14735Y20990D02*
X15258Y21514D01*
X15664Y21107D01*
X15141Y20584D02*
X15664Y21107D01*
X14735Y20990D02*
X15141Y20584D01*
X13090Y23310D02*
X13613Y22786D01*
X13090Y23310D02*
X13496Y23716D01*
X14019Y23193D01*
X13613Y22786D02*
X14019Y23193D01*
X15068Y19383D02*
X15185Y19266D01*
X14962Y19277D02*
X15079Y19159D01*
X21682Y16731D02*
X23266Y18315D01*
X21276Y17138D02*
X21682Y16731D01*
X21276Y17138D02*
X22860Y18722D01*
X23266Y18315D01*
D82*
X25763Y18175D02*
X25848Y18090D01*
X25765Y18177D02*
X25913Y18325D01*
X25915Y18327D02*
X26000Y18242D01*
X26152Y18090D02*
X26237Y18005D01*
X26087Y17855D02*
X26235Y18003D01*
X26000Y17938D02*
X26085Y17853D01*
X13134Y20667D02*
X13211Y20589D01*
X13089Y20467D02*
X13210Y20587D01*
X13008Y20545D02*
X13088Y20465D01*
X12865Y20688D02*
X12943Y20610D01*
X12867Y20689D02*
X12987Y20810D01*
X12989Y20811D02*
X13067Y20734D01*
X13519Y19451D02*
X13596Y19373D01*
X13520Y19453D02*
X13641Y19573D01*
X13642Y19575D02*
X13722Y19495D01*
X13787Y19430D02*
X13865Y19352D01*
X13743Y19230D02*
X13863Y19351D01*
X13663Y19306D02*
X13741Y19229D01*
X14790Y20576D02*
X14810Y20556D01*
X14465Y20251D02*
X14790Y20576D01*
X14465Y20251D02*
X14485Y20231D01*
X15152Y20214D02*
X15172Y20194D01*
X14847Y19869D02*
X15172Y20194D01*
X14827Y19889D02*
X14847Y19869D01*
X18515Y12115D02*
X18540D01*
Y11665D02*
Y12115D01*
X18515Y11665D02*
X18540D01*
X17627D02*
X17652D01*
X17627D02*
Y12115D01*
X17652D01*
X18093Y11255D02*
X18202D01*
X18093Y11257D02*
Y11428D01*
Y11430D02*
X18205D01*
X18298D02*
X18407D01*
Y11257D02*
Y11428D01*
X18298Y11255D02*
X18407D01*
X18802Y11932D02*
Y12042D01*
X18629Y11932D02*
X18799D01*
X18627D02*
Y12044D01*
Y12137D02*
Y12247D01*
X18629D02*
X18799D01*
X18802Y12137D02*
Y12247D01*
X18698Y12345D02*
Y12462D01*
X18698Y12538D02*
Y12655D01*
X18525Y12655D02*
X18695D01*
X18523Y12538D02*
Y12655D01*
X18523Y12345D02*
Y12460D01*
X18525Y12345D02*
X18695D01*
X19655Y14158D02*
X19655Y14268D01*
X19482D02*
X19652Y14268D01*
X19480Y14157D02*
Y14268D01*
Y13952D02*
Y14065D01*
X19483Y13952D02*
X19652Y13953D01*
X19655Y13952D02*
Y14062D01*
X27957Y19168D02*
Y19278D01*
X27960Y19278D02*
X28130D01*
X28132Y19165D02*
Y19278D01*
Y18963D02*
Y19073D01*
X27960Y18963D02*
X28130Y18963D01*
X27957D02*
X27957Y19073D01*
X28220Y19150D02*
X28330Y19150D01*
X28220Y19153D02*
Y19323D01*
Y19325D02*
X28333Y19325D01*
X28425Y19325D02*
X28535D01*
Y19153D02*
Y19323D01*
X28425Y19150D02*
X28535D01*
X28779Y18975D02*
Y19093D01*
X28779Y19168D02*
Y19285D01*
X28607Y19285D02*
X28777D01*
X28604Y19168D02*
Y19285D01*
X28604Y18975D02*
Y19090D01*
X28607Y18975D02*
X28777Y18975D01*
X23459Y15970D02*
X23580Y16091D01*
X23376Y16050D02*
X23458Y15969D01*
X23239Y16188D02*
X23322Y16105D01*
X23240Y16189D02*
X23361Y16310D01*
X23362Y16311D02*
X23445Y16228D01*
X23498Y16175D02*
X23581Y16092D01*
X27533Y21144D02*
X27611Y21221D01*
X27613Y21220D02*
X27733Y21099D01*
X27655Y21018D02*
X27735Y21098D01*
X27512Y20875D02*
X27590Y20953D01*
X27390Y20997D02*
X27511Y20877D01*
X27389Y20999D02*
X27466Y21077D01*
X27673Y21004D02*
X27751Y21081D01*
X27753Y21080D02*
X27873Y20959D01*
X27795Y20878D02*
X27875Y20958D01*
X27652Y20735D02*
X27730Y20813D01*
X27530Y20857D02*
X27651Y20737D01*
X27529Y20859D02*
X27606Y20937D01*
X28370Y21354D02*
X28448Y21431D01*
X28249Y21476D02*
X28369Y21355D01*
X28247Y21477D02*
X28326Y21557D01*
X28392Y21622D02*
X28469Y21700D01*
X28471Y21698D02*
X28591Y21578D01*
X28515Y21498D02*
X28593Y21576D01*
X28695Y21921D02*
X28773Y21999D01*
X28775Y21997D02*
X28895Y21877D01*
X28817Y21796D02*
X28897Y21875D01*
X28674Y21653D02*
X28752Y21730D01*
X28552Y21775D02*
X28672Y21654D01*
X28550Y21776D02*
X28628Y21854D01*
X26608Y21945D02*
X26691Y21862D01*
X26472Y22081D02*
X26555Y21998D01*
X26350Y21959D02*
X26471Y22080D01*
X26349Y21958D02*
X26432Y21875D01*
X26486Y21820D02*
X26568Y21739D01*
X26569Y21740D02*
X26690Y21861D01*
X26128Y21445D02*
X26211Y21362D01*
X25992Y21581D02*
X26075Y21498D01*
X25870Y21459D02*
X25991Y21580D01*
X25869Y21458D02*
X25952Y21375D01*
X26006Y21320D02*
X26088Y21239D01*
X26089Y21240D02*
X26210Y21361D01*
X26438Y20812D02*
X26627Y20623D01*
X26100Y20474D02*
X26289Y20285D01*
X26627Y20623D01*
X26669Y20605D02*
X26712Y20647D01*
X26669Y20647D02*
X26712Y20605D01*
X25631Y20943D02*
X25969Y21280D01*
X25631Y20943D02*
X25822Y20752D01*
X25969Y21280D02*
X26160Y21089D01*
X24868Y21235D02*
X24977D01*
X24868Y21062D02*
Y21232D01*
Y21060D02*
X24977D01*
X25070D02*
X25182D01*
Y21062D02*
Y21232D01*
X25073Y21235D02*
X25182D01*
X22953Y15737D02*
X23142Y15548D01*
X23291Y16075D02*
X23480Y15886D01*
X22953Y15737D02*
X23291Y16075D01*
X22868Y15713D02*
X22911Y15755D01*
X22868Y15755D02*
X22911Y15713D01*
X23611Y15080D02*
X23949Y15417D01*
X23758Y15608D02*
X23949Y15417D01*
X23420Y15271D02*
X23611Y15080D01*
X24007Y16674D02*
X24090Y16591D01*
X23870Y16811D02*
X23954Y16727D01*
X23748Y16689D02*
X23869Y16809D01*
X23747Y16687D02*
X23830Y16604D01*
X23885Y16549D02*
X23966Y16468D01*
X23968Y16469D02*
X24088Y16590D01*
X24822Y16268D02*
X24899Y16190D01*
X24823Y16269D02*
X24944Y16390D01*
X24945Y16391D02*
X25025Y16312D01*
X25090Y16246D02*
X25168Y16169D01*
X25046Y16047D02*
X25166Y16167D01*
X24967Y16123D02*
X25044Y16045D01*
X24672Y16119D02*
X24750Y16041D01*
X24674Y16121D02*
X24794Y16241D01*
X24796Y16242D02*
X24876Y16163D01*
X24941Y16098D02*
X25019Y16020D01*
X24897Y15898D02*
X25017Y16018D01*
X24817Y15974D02*
X24895Y15896D01*
X21920Y11735D02*
X22030D01*
X21920Y11907D02*
X21920Y11738D01*
X21920Y11910D02*
X22033Y11910D01*
X22125D02*
X22235Y11910D01*
X22235Y11738D02*
X22235Y11907D01*
X22125Y11735D02*
X22235D01*
X19912Y14265D02*
X19912Y14148D01*
X19912Y13955D02*
Y14073D01*
X19915Y13955D02*
X20085D01*
X20088D02*
Y14073D01*
X20088Y14265D02*
X20088Y14150D01*
X19915Y14265D02*
X20085D01*
X19857Y14268D02*
X19857Y14157D01*
X19685Y14268D02*
X19855Y14268D01*
X19682Y14157D02*
Y14268D01*
Y13952D02*
Y14065D01*
X19685Y13952D02*
X19855Y13952D01*
X19857Y14062D02*
X19857Y13952D01*
X20112Y14265D02*
X20112Y14148D01*
X20112Y13955D02*
Y14073D01*
X20115Y13955D02*
X20285Y13955D01*
X20288D02*
Y14073D01*
X20288Y14265D02*
X20288Y14150D01*
X20115Y14265D02*
X20285D01*
X15962Y16308D02*
X16082Y16188D01*
X15960Y16310D02*
X16042Y16391D01*
X16096Y16446D02*
X16179Y16529D01*
X16181Y16527D02*
X16301Y16407D01*
X16220Y16322D02*
X16303Y16405D01*
X16084Y16186D02*
X16167Y16269D01*
X16054Y15249D02*
X16131Y15327D01*
X16055Y15247D02*
X16176Y15127D01*
X16177Y15125D02*
X16255Y15203D01*
X16320Y15268D02*
X16400Y15348D01*
X16278Y15470D02*
X16398Y15349D01*
X16198Y15394D02*
X16276Y15471D01*
X16204Y15099D02*
X16281Y15177D01*
X16205Y15097D02*
X16326Y14977D01*
X16327Y14975D02*
X16405Y15053D01*
X16470Y15118D02*
X16550Y15198D01*
X16428Y15320D02*
X16548Y15199D01*
X16348Y15244D02*
X16426Y15321D01*
X15443Y16846D02*
X15563Y16725D01*
X15441Y16847D02*
X15523Y16929D01*
X15578Y16983D02*
X15661Y17066D01*
X15662Y17065D02*
X15783Y16944D01*
X15701Y16860D02*
X15784Y16943D01*
X15565Y16724D02*
X15648Y16807D01*
X15245Y15288D02*
X15434Y15477D01*
X15582Y14950D02*
X15771Y15139D01*
X15434Y15477D02*
X15771Y15139D01*
X15409Y15562D02*
X15452Y15519D01*
X15409D02*
X15452Y15562D01*
X14776Y14819D02*
X15114Y14481D01*
X15305Y14672D01*
X14776Y14819D02*
X14967Y15010D01*
X15551Y20735D02*
X15717Y20902D01*
X15943Y20675D01*
X15777Y20509D02*
X15943Y20675D01*
X15485Y20218D02*
X15651Y20384D01*
X15259Y20444D02*
X15485Y20218D01*
X15259Y20444D02*
X15425Y20610D01*
X20207Y15788D02*
X20325D01*
X20015Y15788D02*
X20132D01*
X20015Y15615D02*
Y15785D01*
X20015Y15612D02*
X20132D01*
X20210Y15612D02*
X20325D01*
Y15615D02*
Y15785D01*
X22125Y12807D02*
X22235D01*
X22235Y12810D02*
Y12980D01*
X22125Y12982D02*
X22235D01*
X21920D02*
X22033D01*
X21920Y12810D02*
Y12980D01*
X21920Y12807D02*
X22030D01*
X18071Y13400D02*
Y13635D01*
Y13400D02*
X18391D01*
Y13635D01*
X18391Y14047D02*
X18391Y13812D01*
X18071Y14047D02*
X18391D01*
X18071Y13812D02*
X18071Y14047D01*
X18551Y13400D02*
Y13635D01*
Y13400D02*
X18871Y13400D01*
X18871Y13635D01*
X18871Y13812D02*
Y14047D01*
X18551Y14047D02*
X18871Y14047D01*
X18551Y13812D02*
X18551Y14047D01*
X15370Y19483D02*
X15447Y19560D01*
X15248Y19605D02*
X15368Y19484D01*
X15246Y19606D02*
X15325Y19686D01*
X15391Y19751D02*
X15469Y19829D01*
X15470Y19827D02*
X15591Y19707D01*
X15515Y19628D02*
X15592Y19705D01*
X15394Y19416D02*
X15472Y19338D01*
X15350Y19216D02*
X15470Y19336D01*
X15269Y19294D02*
X15348Y19214D01*
X15126Y19437D02*
X15203Y19359D01*
X15127Y19439D02*
X15248Y19559D01*
X15249Y19561D02*
X15327Y19483D01*
X15516Y19283D02*
X15594Y19205D01*
X15394Y19161D02*
X15514Y19281D01*
X15392Y19159D02*
X15470Y19081D01*
X15535Y19016D02*
X15615Y18936D01*
X15617Y18938D02*
X15737Y19058D01*
X15661Y19138D02*
X15739Y19060D01*
X15485Y18959D02*
X15563Y18881D01*
X15441Y18759D02*
X15561Y18879D01*
X15359Y18837D02*
X15439Y18757D01*
X15216Y18980D02*
X15294Y18902D01*
X15218Y18982D02*
X15338Y19102D01*
X15340Y19104D02*
X15418Y19026D01*
X26910Y18460D02*
X27145Y18460D01*
Y18140D02*
Y18460D01*
X26910Y18140D02*
X27145Y18140D01*
X26498Y18140D02*
X26733D01*
X26498D02*
Y18460D01*
X26733D01*
X28533Y18936D02*
Y19106D01*
X28418Y18933D02*
X28533D01*
X28223D02*
X28340D01*
X28223Y18936D02*
Y19106D01*
Y19108D02*
X28340D01*
X28415D02*
X28533D01*
X25171Y19849D02*
Y19959D01*
X24999Y19849D02*
X25169D01*
X24996D02*
Y19961D01*
Y20054D02*
Y20164D01*
X24999D02*
X25169D01*
X25171Y20054D02*
Y20164D01*
X25187Y20040D02*
Y20158D01*
X25187Y19848D02*
Y19965D01*
X25190Y19848D02*
X25360D01*
X25362D02*
Y19965D01*
X25362Y20043D02*
Y20158D01*
X25190D02*
X25360D01*
X17695Y11359D02*
Y11469D01*
X17523D02*
X17693D01*
X17520Y11359D02*
Y11469D01*
Y11154D02*
Y11266D01*
X17523Y11154D02*
X17693D01*
X17695D02*
Y11264D01*
X17465Y11559D02*
Y11669D01*
X17293D02*
X17463D01*
X17290Y11559D02*
Y11669D01*
Y11354D02*
Y11466D01*
X17293Y11354D02*
X17463D01*
X17465D02*
Y11464D01*
X17467Y11899D02*
Y12009D01*
X17295D02*
X17465D01*
X17292Y11899D02*
Y12009D01*
Y11694D02*
Y11806D01*
X17295Y11694D02*
X17465D01*
X17467D02*
Y11804D01*
Y12231D02*
Y12341D01*
X17295Y12341D02*
X17465D01*
X17292Y12231D02*
Y12341D01*
Y12026D02*
Y12138D01*
X17295Y12026D02*
X17465D01*
X17467Y12026D02*
Y12136D01*
X17739Y12350D02*
Y12460D01*
X17742Y12350D02*
X17912D01*
X17914D02*
Y12460D01*
Y12552D02*
Y12665D01*
X17742D02*
X17912D01*
X17739Y12555D02*
Y12665D01*
X17467Y12567D02*
Y12677D01*
X17295D02*
X17465D01*
X17292Y12567D02*
Y12677D01*
Y12362D02*
Y12475D01*
X17295Y12362D02*
X17465D01*
X17467D02*
Y12472D01*
X28228Y21731D02*
X28306Y21654D01*
X28308Y21655D02*
X28428Y21776D01*
X28352Y21855D02*
X28430Y21777D01*
X28207Y22000D02*
X28287Y21920D01*
X28085Y21878D02*
X28206Y21998D01*
X28084Y21876D02*
X28161Y21798D01*
X28379Y21880D02*
X28457Y21802D01*
X28458Y21804D02*
X28579Y21924D01*
X28503Y22004D02*
X28580Y21926D01*
X28358Y22149D02*
X28437Y22069D01*
X28236Y22027D02*
X28356Y22147D01*
X28234Y22025D02*
X28312Y21947D01*
X12743Y19110D02*
X12852D01*
X12743Y18938D02*
Y19107D01*
Y18935D02*
X12852D01*
X12945D02*
X13057D01*
Y18938D02*
Y19107D01*
X12948Y19110D02*
X13057D01*
X12743Y20235D02*
X12852D01*
X12743Y20062D02*
Y20232D01*
Y20060D02*
X12852D01*
X12945D02*
X13057D01*
Y20062D02*
Y20232D01*
X12948Y20235D02*
X13057D01*
X26819Y18502D02*
X26936D01*
X27011Y18502D02*
X27129D01*
Y18505D02*
Y18675D01*
X27011Y18677D02*
X27129D01*
X26819Y18677D02*
X26934D01*
X26819Y18505D02*
Y18675D01*
X26598Y18790D02*
Y18907D01*
X26598Y18597D02*
Y18715D01*
X26601Y18597D02*
X26771D01*
X26773Y18597D02*
Y18715D01*
X26773Y18792D02*
Y18907D01*
X26601D02*
X26771D01*
X14244Y19734D02*
X14329Y19649D01*
X14330Y19651D02*
X14479Y19799D01*
X14396Y19886D02*
X14481Y19801D01*
X14159Y20123D02*
X14244Y20038D01*
X14009Y19972D02*
X14157Y20121D01*
X14007Y19971D02*
X14092Y19886D01*
X14209Y19469D02*
X14286Y19547D01*
X14210Y19467D02*
X14331Y19347D01*
X14332Y19345D02*
X14410Y19423D01*
X14475Y19488D02*
X14555Y19568D01*
X14433Y19690D02*
X14553Y19569D01*
X14353Y19614D02*
X14431Y19691D01*
X15245Y20199D02*
X15322Y20122D01*
X15123Y20077D02*
X15243Y20198D01*
X15121Y20076D02*
X15199Y19998D01*
X15264Y19932D02*
X15344Y19853D01*
X15345Y19855D02*
X15466Y19975D01*
X15390Y20054D02*
X15467Y19977D01*
X25170Y18943D02*
Y19177D01*
X24850Y18943D02*
X25170D01*
X24850D02*
Y19177D01*
Y19355D02*
Y19590D01*
X25170D01*
Y19355D02*
Y19590D01*
X25205Y19615D02*
X25315D01*
Y19618D02*
Y19788D01*
X25205Y19790D02*
X25315D01*
X25000D02*
X25113D01*
X25000Y19618D02*
Y19788D01*
Y19615D02*
X25110D01*
X25529Y19152D02*
Y19477D01*
X25219D02*
X25529D01*
X25219Y19152D02*
Y19477D01*
Y19152D02*
X25529D01*
X24644Y19187D02*
X24814D01*
X24642D02*
Y19302D01*
X24642Y19379D02*
Y19497D01*
X24644D02*
X24814D01*
X24817Y19379D02*
Y19497D01*
X24817Y19187D02*
Y19304D01*
X24814Y19039D02*
Y19149D01*
X24642D02*
X24812D01*
X24639Y19039D02*
Y19149D01*
Y18834D02*
Y18947D01*
X24642Y18834D02*
X24812D01*
X24814D02*
Y18944D01*
X24502Y19107D02*
X24612D01*
Y19109D02*
Y19279D01*
X24502Y19282D02*
X24612D01*
X24297D02*
X24409D01*
X24297Y19109D02*
Y19279D01*
Y19107D02*
X24407D01*
X24299Y19332D02*
Y19502D01*
Y19504D02*
X24414D01*
X24492Y19504D02*
X24609D01*
Y19332D02*
Y19502D01*
X24492Y19329D02*
X24609D01*
X24299Y19329D02*
X24417D01*
D83*
X13966Y19385D02*
X14207Y19625D01*
X13917Y19915D02*
X14207Y19625D01*
X13676Y19674D02*
X13966Y19385D01*
X13676Y19674D02*
X13917Y19915D01*
X13598Y19745D02*
X13839Y19986D01*
X13549Y20276D02*
X13839Y19986D01*
X13308Y20035D02*
X13598Y19745D01*
X13308Y20035D02*
X13549Y20276D01*
X25505Y18369D02*
Y18522D01*
X25428D01*
X25403Y18496D01*
Y18445D01*
X25428Y18420D01*
X25505D01*
X25327Y18369D02*
X25276D01*
X25251Y18395D01*
Y18445D01*
X25276Y18471D01*
X25327D01*
X25352Y18445D01*
Y18395D01*
X25327Y18369D01*
X25200Y18471D02*
Y18395D01*
X25175Y18369D01*
X25149Y18395D01*
X25124Y18369D01*
X25098Y18395D01*
Y18471D01*
X24971Y18369D02*
X25022D01*
X25048Y18395D01*
Y18445D01*
X25022Y18471D01*
X24971D01*
X24946Y18445D01*
Y18420D01*
X25048D01*
X24895Y18471D02*
Y18369D01*
Y18420D01*
X24870Y18445D01*
X24844Y18471D01*
X24819D01*
X25403Y18252D02*
X25428Y18278D01*
X25479D01*
X25505Y18252D01*
Y18227D01*
X25479Y18202D01*
X25428D01*
X25403Y18176D01*
Y18151D01*
X25428Y18125D01*
X25479D01*
X25505Y18151D01*
X25352Y18227D02*
Y18151D01*
X25327Y18125D01*
X25301Y18151D01*
X25276Y18125D01*
X25251Y18151D01*
Y18227D01*
X25200Y18125D02*
X25149D01*
X25175D01*
Y18227D01*
X25200D01*
X25048Y18252D02*
Y18227D01*
X25073D01*
X25022D01*
X25048D01*
Y18151D01*
X25022Y18125D01*
X24844Y18227D02*
X24921D01*
X24946Y18202D01*
Y18151D01*
X24921Y18125D01*
X24844D01*
X24794Y18278D02*
Y18125D01*
Y18202D01*
X24768Y18227D01*
X24717D01*
X24692Y18202D01*
Y18125D01*
X16171Y15456D02*
X16182Y15467D01*
X16171Y15479D01*
X16159Y15467D01*
X16171Y15456D01*
X27444Y21871D02*
X27432Y21882D01*
X27420Y21871D01*
X27432Y21859D01*
X27444Y21871D01*
X26963Y21390D02*
X26951Y21402D01*
X26940Y21390D01*
X26951Y21378D01*
X26963Y21390D01*
X24819Y16671D02*
X24807Y16683D01*
X24796Y16671D01*
X24807Y16659D01*
X24819Y16671D01*
X24311Y16171D02*
X24299Y16183D01*
X24287Y16171D01*
X24299Y16159D01*
X24311Y16171D01*
X15651Y15994D02*
X15663Y16006D01*
X15651Y16018D01*
X15640Y16006D01*
X15651Y15994D01*
X28182Y17266D02*
Y17114D01*
X28080D01*
X28029D02*
X27978D01*
X28004D01*
Y17266D01*
X28029Y17241D01*
D84*
X17976Y12456D02*
X18123D01*
X17976D02*
Y12679D01*
X18123D01*
X18330D02*
X18477D01*
Y12456D02*
Y12679D01*
X18330Y12456D02*
X18477D01*
X17950Y12510D02*
Y12625D01*
X15577Y20684D02*
X15726Y20536D01*
X18126Y13795D02*
X18336D01*
X18606D02*
X18816Y13795D01*
X15226Y19276D02*
X15330Y19173D01*
X15172Y19015D02*
X15330Y19173D01*
X15068Y19119D02*
X15172Y19015D01*
X14817Y19370D02*
X14921Y19266D01*
X14817Y19370D02*
X14975Y19528D01*
X15079Y19423D01*
X15229Y19035D02*
X15310Y19117D01*
X26892Y18195D02*
Y18405D01*
X24905Y19195D02*
X25115D01*
D85*
X11482Y17820D02*
X11582D01*
X11632Y17870D01*
X11582Y17920D01*
X11482D01*
X11557D01*
Y17820D01*
X11482Y17970D02*
Y18045D01*
X11507Y18070D01*
X11532Y18045D01*
Y17995D01*
X11557Y17970D01*
X11582Y17995D01*
Y18070D01*
X11607Y18145D02*
X11582D01*
Y18120D01*
Y18170D01*
Y18145D01*
X11507D01*
X11482Y18170D01*
Y18320D02*
Y18270D01*
X11507Y18245D01*
X11557D01*
X11582Y18270D01*
Y18320D01*
X11557Y18345D01*
X11532D01*
Y18245D01*
X11582Y18395D02*
X11482D01*
X11532D01*
X11557Y18420D01*
X11582Y18445D01*
Y18470D01*
X11482Y18545D02*
Y18595D01*
Y18570D01*
X11582D01*
Y18545D01*
X11482Y18670D02*
Y18745D01*
X11507Y18770D01*
X11532Y18745D01*
Y18695D01*
X11557Y18670D01*
X11582Y18695D01*
Y18770D01*
X11482Y18820D02*
X11632D01*
X11532D02*
X11582Y18895D01*
X11532Y18820D02*
X11482Y18895D01*
X11607Y19295D02*
X11582D01*
Y19270D01*
Y19320D01*
Y19295D01*
X11507D01*
X11482Y19320D01*
Y19469D02*
Y19419D01*
X11507Y19394D01*
X11557D01*
X11582Y19419D01*
Y19469D01*
X11557Y19494D01*
X11532D01*
Y19394D01*
X11582Y19569D02*
Y19619D01*
X11557Y19644D01*
X11482D01*
Y19569D01*
X11507Y19544D01*
X11532Y19569D01*
Y19644D01*
X11482Y19694D02*
X11582D01*
Y19719D01*
X11557Y19744D01*
X11482D01*
X11557D01*
X11582Y19769D01*
X11557Y19794D01*
X11482D01*
X11230Y17920D02*
Y17820D01*
X11330Y17920D01*
X11355D01*
X11380Y17895D01*
Y17845D01*
X11355Y17820D01*
Y17970D02*
X11380Y17995D01*
Y18045D01*
X11355Y18070D01*
X11255D01*
X11230Y18045D01*
Y17995D01*
X11255Y17970D01*
X11355D01*
X11230Y18220D02*
Y18120D01*
X11330Y18220D01*
X11355D01*
X11380Y18195D01*
Y18145D01*
X11355Y18120D01*
X11230Y18345D02*
X11380D01*
X11305Y18270D01*
Y18370D01*
X11676Y18996D02*
X11590D01*
X11654Y18960D02*
X11611Y19031D01*
X11654D02*
X11611Y18960D01*
%TF.MD5,c887c8d8ee612b4b5874200b8cdbf232*%
M02*
