%TF.GenerationSoftware,Altium Limited,Altium Designer,21.8.1 (53)*%
G04 Layer_Color=16711935*
%FSLAX42Y42*%
%MOMM*%
%TF.SameCoordinates,C9F6AB32-9906-4CC4-A0B2-EEC73C5AD028*%
%TF.FilePolarity,Negative*%
%TF.FileFunction,Soldermask,Bot*%
%TF.Part,Single*%
G01*
G75*
%TA.AperFunction,ComponentPad*%
%ADD37C,1.60*%
%TA.AperFunction,SMDPad,CuDef*%
G04:AMPARAMS|DCode=86|XSize=6.6mm|YSize=6.35mm|CornerRadius=0mm|HoleSize=0mm|Usage=FLASHONLY|Rotation=315.000|XOffset=0mm|YOffset=0mm|HoleType=Round|Shape=Rectangle|*
%AMROTATEDRECTD86*
4,1,4,-4.58,0.09,-0.09,4.58,4.58,-0.09,0.09,-4.58,-4.58,0.09,0.0*
%
%ADD86ROTATEDRECTD86*%

G04:AMPARAMS|DCode=87|XSize=1.3mm|YSize=2.6mm|CornerRadius=0mm|HoleSize=0mm|Usage=FLASHONLY|Rotation=315.000|XOffset=0mm|YOffset=0mm|HoleType=Round|Shape=Rectangle|*
%AMROTATEDRECTD87*
4,1,4,-1.38,-0.46,0.46,1.38,1.38,0.46,-0.46,-1.38,-1.38,-0.46,0.0*
%
%ADD87ROTATEDRECTD87*%

G04:AMPARAMS|DCode=88|XSize=0.55mm|YSize=2mm|CornerRadius=0mm|HoleSize=0mm|Usage=FLASHONLY|Rotation=135.000|XOffset=0mm|YOffset=0mm|HoleType=Round|Shape=Rectangle|*
%AMROTATEDRECTD88*
4,1,4,0.90,0.51,-0.51,-0.90,-0.90,-0.51,0.51,0.90,0.90,0.51,0.0*
%
%ADD88ROTATEDRECTD88*%

G04:AMPARAMS|DCode=89|XSize=3.2mm|YSize=2.5mm|CornerRadius=0mm|HoleSize=0mm|Usage=FLASHONLY|Rotation=135.000|XOffset=0mm|YOffset=0mm|HoleType=Round|Shape=Rectangle|*
%AMROTATEDRECTD89*
4,1,4,2.02,-0.25,0.25,-2.02,-2.02,0.25,-0.25,2.02,2.02,-0.25,0.0*
%
%ADD89ROTATEDRECTD89*%

G04:AMPARAMS|DCode=90|XSize=1.1mm|YSize=1.87mm|CornerRadius=0mm|HoleSize=0mm|Usage=FLASHONLY|Rotation=135.000|XOffset=0mm|YOffset=0mm|HoleType=Round|Shape=Rectangle|*
%AMROTATEDRECTD90*
4,1,4,1.05,0.27,-0.27,-1.05,-1.05,-0.27,0.27,1.05,1.05,0.27,0.0*
%
%ADD90ROTATEDRECTD90*%

%ADD91R,11.00X9.20*%
%ADD92R,1.15X2.60*%
G04:AMPARAMS|DCode=93|XSize=1mm|YSize=1.5mm|CornerRadius=0mm|HoleSize=0mm|Usage=FLASHONLY|Rotation=135.000|XOffset=0mm|YOffset=0mm|HoleType=Round|Shape=Rectangle|*
%AMROTATEDRECTD93*
4,1,4,0.88,0.18,-0.18,-0.88,-0.88,-0.18,0.18,0.88,0.88,0.18,0.0*
%
%ADD93ROTATEDRECTD93*%

G04:AMPARAMS|DCode=94|XSize=1.1mm|YSize=1.5mm|CornerRadius=0mm|HoleSize=0mm|Usage=FLASHONLY|Rotation=225.000|XOffset=0mm|YOffset=0mm|HoleType=Round|Shape=Rectangle|*
%AMROTATEDRECTD94*
4,1,4,-0.14,0.92,0.92,-0.14,0.14,-0.92,-0.92,0.14,-0.14,0.92,0.0*
%
%ADD94ROTATEDRECTD94*%

G04:AMPARAMS|DCode=95|XSize=2.07mm|YSize=0.7mm|CornerRadius=0.13mm|HoleSize=0mm|Usage=FLASHONLY|Rotation=225.000|XOffset=0mm|YOffset=0mm|HoleType=Round|Shape=RoundedRectangle|*
%AMROUNDEDRECTD95*
21,1,2.07,0.45,0,0,225.0*
21,1,1.82,0.70,0,0,225.0*
1,1,0.25,-0.80,-0.48*
1,1,0.25,0.48,0.80*
1,1,0.25,0.80,0.48*
1,1,0.25,-0.48,-0.80*
%
%ADD95ROUNDEDRECTD95*%
G04:AMPARAMS|DCode=96|XSize=2.07mm|YSize=0.7mm|CornerRadius=0.2mm|HoleSize=0mm|Usage=FLASHONLY|Rotation=270.000|XOffset=0mm|YOffset=0mm|HoleType=Round|Shape=RoundedRectangle|*
%AMROUNDEDRECTD96*
21,1,2.07,0.30,0,0,270.0*
21,1,1.67,0.70,0,0,270.0*
1,1,0.40,-0.15,-0.84*
1,1,0.40,-0.15,0.84*
1,1,0.40,0.15,0.84*
1,1,0.40,0.15,-0.84*
%
%ADD96ROUNDEDRECTD96*%
%ADD97R,1.00X1.50*%
%ADD98R,1.50X1.00*%
%ADD99R,1.21X1.83*%
G04:AMPARAMS|DCode=100|XSize=3.1mm|YSize=6.1mm|CornerRadius=0.8mm|HoleSize=0mm|Usage=FLASHONLY|Rotation=270.000|XOffset=0mm|YOffset=0mm|HoleType=Round|Shape=RoundedRectangle|*
%AMROUNDEDRECTD100*
21,1,3.10,4.50,0,0,270.0*
21,1,1.50,6.10,0,0,270.0*
1,1,1.60,-2.25,-0.75*
1,1,1.60,-2.25,0.75*
1,1,1.60,2.25,0.75*
1,1,1.60,2.25,-0.75*
%
%ADD100ROUNDEDRECTD100*%
G04:AMPARAMS|DCode=101|XSize=0.55mm|YSize=2mm|CornerRadius=0mm|HoleSize=0mm|Usage=FLASHONLY|Rotation=225.000|XOffset=0mm|YOffset=0mm|HoleType=Round|Shape=Rectangle|*
%AMROTATEDRECTD101*
4,1,4,-0.51,0.90,0.90,-0.51,0.51,-0.90,-0.90,0.51,-0.51,0.90,0.0*
%
%ADD101ROTATEDRECTD101*%

G04:AMPARAMS|DCode=102|XSize=3.2mm|YSize=2.5mm|CornerRadius=0mm|HoleSize=0mm|Usage=FLASHONLY|Rotation=225.000|XOffset=0mm|YOffset=0mm|HoleType=Round|Shape=Rectangle|*
%AMROTATEDRECTD102*
4,1,4,0.25,2.02,2.02,0.25,-0.25,-2.02,-2.02,-0.25,0.25,2.02,0.0*
%
%ADD102ROTATEDRECTD102*%

%ADD103R,1.30X4.50*%
G04:AMPARAMS|DCode=104|XSize=1mm|YSize=1.5mm|CornerRadius=0mm|HoleSize=0mm|Usage=FLASHONLY|Rotation=225.000|XOffset=0mm|YOffset=0mm|HoleType=Round|Shape=Rectangle|*
%AMROTATEDRECTD104*
4,1,4,-0.18,0.88,0.88,-0.18,0.18,-0.88,-0.88,0.18,-0.18,0.88,0.0*
%
%ADD104ROTATEDRECTD104*%

G04:AMPARAMS|DCode=105|XSize=2.39mm|YSize=2.89mm|CornerRadius=0mm|HoleSize=0mm|Usage=FLASHONLY|Rotation=135.000|XOffset=0mm|YOffset=0mm|HoleType=Round|Shape=Rectangle|*
%AMROTATEDRECTD105*
4,1,4,1.87,0.18,-0.18,-1.87,-1.87,-0.18,0.18,1.87,1.87,0.18,0.0*
%
%ADD105ROTATEDRECTD105*%

%ADD106R,1.30X3.30*%
G04:AMPARAMS|DCode=107|XSize=2.39mm|YSize=2.89mm|CornerRadius=0mm|HoleSize=0mm|Usage=FLASHONLY|Rotation=225.000|XOffset=0mm|YOffset=0mm|HoleType=Round|Shape=Rectangle|*
%AMROTATEDRECTD107*
4,1,4,-0.18,1.87,1.87,-0.18,0.18,-1.87,-1.87,0.18,-0.18,1.87,0.0*
%
%ADD107ROTATEDRECTD107*%

G04:AMPARAMS|DCode=108|XSize=2.1mm|YSize=2.2mm|CornerRadius=0mm|HoleSize=0mm|Usage=FLASHONLY|Rotation=225.000|XOffset=0mm|YOffset=0mm|HoleType=Round|Shape=RoundedRectangle|*
%AMROUNDEDRECTD108*
21,1,2.10,2.20,0,0,225.0*
21,1,2.10,2.20,0,0,225.0*
1,1,0.00,-1.52,0.04*
1,1,0.00,-0.04,1.52*
1,1,0.00,1.52,-0.04*
1,1,0.00,0.04,-1.52*
%
%ADD108ROUNDEDRECTD108*%
G04:AMPARAMS|DCode=109|XSize=2.1mm|YSize=2.2mm|CornerRadius=0mm|HoleSize=0mm|Usage=FLASHONLY|Rotation=270.000|XOffset=0mm|YOffset=0mm|HoleType=Round|Shape=RoundedRectangle|*
%AMROUNDEDRECTD109*
21,1,2.10,2.20,0,0,270.0*
21,1,2.10,2.20,0,0,270.0*
1,1,0.00,-1.10,-1.05*
1,1,0.00,-1.10,1.05*
1,1,0.00,1.10,1.05*
1,1,0.00,1.10,-1.05*
%
%ADD109ROUNDEDRECTD109*%
G04:AMPARAMS|DCode=110|XSize=1.21mm|YSize=1.83mm|CornerRadius=0mm|HoleSize=0mm|Usage=FLASHONLY|Rotation=135.000|XOffset=0mm|YOffset=0mm|HoleType=Round|Shape=Rectangle|*
%AMROTATEDRECTD110*
4,1,4,1.07,0.22,-0.22,-1.07,-1.07,-0.22,0.22,1.07,1.07,0.22,0.0*
%
%ADD110ROTATEDRECTD110*%

G04:AMPARAMS|DCode=111|XSize=2.1mm|YSize=2.2mm|CornerRadius=0mm|HoleSize=0mm|Usage=FLASHONLY|Rotation=180.000|XOffset=0mm|YOffset=0mm|HoleType=Round|Shape=RoundedRectangle|*
%AMROUNDEDRECTD111*
21,1,2.10,2.20,0,0,180.0*
21,1,2.10,2.20,0,0,180.0*
1,1,0.00,-1.05,1.10*
1,1,0.00,1.05,1.10*
1,1,0.00,1.05,-1.10*
1,1,0.00,-1.05,-1.10*
%
%ADD111ROUNDEDRECTD111*%
%ADD112R,1.30X2.60*%
%ADD113R,6.60X6.35*%
%ADD114R,0.90X1.00*%
%ADD115R,0.90X0.90*%
%TA.AperFunction,ComponentPad*%
%ADD116P,2.37X4X90.0*%
%ADD117C,1.68*%
%ADD118C,1.70*%
%ADD119C,0.10*%
%TA.AperFunction,ViaPad*%
%ADD120C,5.70*%
%TA.AperFunction,ComponentPad*%
%ADD121P,2.37X4X180.0*%
%ADD122C,3.70*%
%ADD123C,1.61*%
%ADD124P,2.27X4X90.0*%
%ADD125P,2.27X4X360.0*%
%ADD126R,1.61X1.61*%
G04:AMPARAMS|DCode=127|XSize=2.1mm|YSize=2.1mm|CornerRadius=0.55mm|HoleSize=0mm|Usage=FLASHONLY|Rotation=135.000|XOffset=0mm|YOffset=0mm|HoleType=Round|Shape=RoundedRectangle|*
%AMROUNDEDRECTD127*
21,1,2.10,1.00,0,0,135.0*
21,1,1.00,2.10,0,0,135.0*
1,1,1.10,0.00,0.71*
1,1,1.10,0.71,0.00*
1,1,1.10,0.00,-0.71*
1,1,1.10,-0.71,0.00*
%
%ADD127ROUNDEDRECTD127*%
%ADD128R,1.61X1.61*%
D37*
X17964Y13230D02*
D03*
X18218D02*
D03*
X17710D02*
D03*
X22177Y12101D02*
D03*
X21923D02*
D03*
X22431D02*
D03*
Y12601D02*
D03*
X21923D02*
D03*
X22177D02*
D03*
X12538Y19840D02*
D03*
X13046D02*
D03*
X12792D02*
D03*
X12536Y19330D02*
D03*
X13044D02*
D03*
X12790Y19330D02*
D03*
D86*
X13703Y21318D02*
D03*
X14270Y20755D02*
D03*
D87*
X13081Y21021D02*
D03*
X13405Y20697D02*
D03*
X13648Y20458D02*
D03*
X13972Y20134D02*
D03*
D88*
X16496Y15936D02*
D03*
X16406Y16026D02*
D03*
X16317Y16116D02*
D03*
X16227Y16205D02*
D03*
X16100Y15540D02*
D03*
X16010Y15630D02*
D03*
X15921Y15720D02*
D03*
X15831Y15809D02*
D03*
X15312Y16348D02*
D03*
X15402Y16258D02*
D03*
X15491Y16169D02*
D03*
X15581Y16079D02*
D03*
X15708Y16744D02*
D03*
X15797Y16654D02*
D03*
X15887Y16565D02*
D03*
X15977Y16475D02*
D03*
D89*
X16160Y15869D02*
D03*
X15641Y16408D02*
D03*
D90*
X25887Y18203D02*
D03*
X26113Y17977D02*
D03*
X14357Y19773D02*
D03*
X14131Y19999D02*
D03*
D91*
X27231Y19857D02*
D03*
D92*
X26891Y18867D02*
D03*
X27061D02*
D03*
X27231D02*
D03*
X27401D02*
D03*
X27571D02*
D03*
D93*
X13105Y20572D02*
D03*
X12972Y20705D02*
D03*
X13625Y19468D02*
D03*
X13758Y19335D02*
D03*
X23475Y16074D02*
D03*
X23344Y16205D02*
D03*
X26454Y21975D02*
D03*
X26585Y21844D02*
D03*
X25974Y21475D02*
D03*
X26105Y21344D02*
D03*
X23852Y16704D02*
D03*
X23984Y16573D02*
D03*
X24928Y16284D02*
D03*
X25061Y16151D02*
D03*
X24779Y16135D02*
D03*
X24912Y16002D02*
D03*
X15366Y19321D02*
D03*
X15233Y19454D02*
D03*
X15499Y19177D02*
D03*
X15632Y19044D02*
D03*
X15456Y18865D02*
D03*
X15323Y18998D02*
D03*
X28323Y21760D02*
D03*
X28190Y21893D02*
D03*
X28473Y21909D02*
D03*
X28341Y22042D02*
D03*
X15228Y20093D02*
D03*
X15361Y19960D02*
D03*
D94*
X14083Y19642D02*
D03*
X13948Y19507D02*
D03*
X13860Y19730D02*
D03*
X13715Y20003D02*
D03*
X13580Y19868D02*
D03*
X13492Y20091D02*
D03*
D95*
X14860Y20534D02*
D03*
X14950Y20444D02*
D03*
X15040Y20354D02*
D03*
X15130Y20264D02*
D03*
X14780Y19915D02*
D03*
X14691Y20005D02*
D03*
X14601Y20095D02*
D03*
X14511Y20184D02*
D03*
D96*
X17703Y11644D02*
D03*
X17830Y11644D02*
D03*
X17957D02*
D03*
X18084D02*
D03*
X18211D02*
D03*
X18338Y11644D02*
D03*
X18465Y11644D02*
D03*
X18465Y12139D02*
D03*
X18338D02*
D03*
X18211Y12139D02*
D03*
X18084Y12139D02*
D03*
X17957D02*
D03*
X17830Y12139D02*
D03*
X17703Y12139D02*
D03*
D97*
X18156Y11342D02*
D03*
X18344Y11342D02*
D03*
X28284Y19237D02*
D03*
X28472D02*
D03*
X24931Y21148D02*
D03*
X25119Y21148D02*
D03*
X21984Y11822D02*
D03*
X22172Y11822D02*
D03*
X20077Y15699D02*
D03*
X20263D02*
D03*
X22172Y12894D02*
D03*
X21984Y12894D02*
D03*
X28471Y19020D02*
D03*
X28285D02*
D03*
X12806Y19023D02*
D03*
X12994Y19023D02*
D03*
X12806Y20148D02*
D03*
X12994Y20148D02*
D03*
X27067Y18591D02*
D03*
X26881D02*
D03*
X25252Y19702D02*
D03*
X25064D02*
D03*
X24548Y19194D02*
D03*
X24360D02*
D03*
X24361Y19417D02*
D03*
X24547D02*
D03*
D98*
X18715Y11995D02*
D03*
Y12183D02*
D03*
X18609Y12593D02*
D03*
Y12407D02*
D03*
X19568Y14204D02*
D03*
Y14016D02*
D03*
X28044Y19214D02*
D03*
X28044Y19026D02*
D03*
X28691Y19223D02*
D03*
Y19037D02*
D03*
X20001Y14017D02*
D03*
Y14203D02*
D03*
X19770Y14204D02*
D03*
Y14016D02*
D03*
X20201Y14017D02*
D03*
Y14203D02*
D03*
X25084Y19912D02*
D03*
Y20100D02*
D03*
X25276Y19910D02*
D03*
Y20096D02*
D03*
X17608Y11406D02*
D03*
Y11218D02*
D03*
X17378Y11606D02*
D03*
Y11418D02*
D03*
X17380Y11945D02*
D03*
Y11757D02*
D03*
Y12278D02*
D03*
X17380Y12090D02*
D03*
X17826Y12413D02*
D03*
X17826Y12601D02*
D03*
X17380Y12614D02*
D03*
Y12426D02*
D03*
X26686Y18659D02*
D03*
Y18845D02*
D03*
X24729Y19249D02*
D03*
Y19435D02*
D03*
X24727Y19086D02*
D03*
Y18898D02*
D03*
D99*
X18397Y12568D02*
D03*
X18056D02*
D03*
D100*
X28080Y17475D02*
D03*
Y18500D02*
D03*
D101*
X27090Y21531D02*
D03*
X27180Y21621D02*
D03*
X27269Y21710D02*
D03*
X27359Y21800D02*
D03*
X26694Y21927D02*
D03*
X26784Y22017D02*
D03*
X26873Y22106D02*
D03*
X26963Y22196D02*
D03*
X26609Y21050D02*
D03*
X26699Y21140D02*
D03*
X26789Y21230D02*
D03*
X26879Y21320D02*
D03*
X26213Y21446D02*
D03*
X26303Y21536D02*
D03*
X26393Y21626D02*
D03*
X26483Y21716D02*
D03*
X24465Y16331D02*
D03*
X24555Y16421D02*
D03*
X24645Y16511D02*
D03*
X24735Y16601D02*
D03*
X24069Y16727D02*
D03*
X24159Y16817D02*
D03*
X24249Y16907D02*
D03*
X24339Y16997D02*
D03*
X23957Y15831D02*
D03*
X24047Y15921D02*
D03*
X24136Y16011D02*
D03*
X24226Y16101D02*
D03*
X23561Y16227D02*
D03*
X23651Y16317D02*
D03*
X23740Y16407D02*
D03*
X23830Y16497D02*
D03*
D102*
X27030Y21860D02*
D03*
X26549Y21379D02*
D03*
X24406Y16660D02*
D03*
X23897Y16161D02*
D03*
D103*
X26810Y17830D02*
D03*
Y16930D02*
D03*
D104*
X27628Y21115D02*
D03*
X27495Y20982D02*
D03*
X27768Y20975D02*
D03*
X27635Y20842D02*
D03*
X28354Y21460D02*
D03*
X28487Y21593D02*
D03*
X28790Y21892D02*
D03*
X28657Y21759D02*
D03*
X16065Y16292D02*
D03*
X16197Y16423D02*
D03*
X16160Y15232D02*
D03*
X16293Y15365D02*
D03*
X16310Y15082D02*
D03*
X16443Y15215D02*
D03*
X15547Y16830D02*
D03*
X15678Y16961D02*
D03*
X15353Y19589D02*
D03*
X15486Y19722D02*
D03*
X14315Y19452D02*
D03*
X14448Y19585D02*
D03*
D105*
X26354Y20555D02*
D03*
X25902Y21007D02*
D03*
X23226Y15805D02*
D03*
X23678Y15353D02*
D03*
D106*
X26060Y19660D02*
D03*
Y18980D02*
D03*
D107*
X15502Y15204D02*
D03*
X15049Y14752D02*
D03*
D108*
X15462Y20421D02*
D03*
X15738Y20697D02*
D03*
D109*
X18231Y13917D02*
D03*
X18231Y13527D02*
D03*
X18711Y13917D02*
D03*
Y13527D02*
D03*
X25010Y19462D02*
D03*
Y19073D02*
D03*
D110*
X14953Y19392D02*
D03*
X15194Y19151D02*
D03*
D111*
X26625Y18300D02*
D03*
X27015D02*
D03*
D112*
X24757Y19697D02*
D03*
X24299D02*
D03*
D113*
X24528Y20347D02*
D03*
D114*
X25469Y19217D02*
D03*
X25279D02*
D03*
D115*
X25374Y19417D02*
D03*
D116*
X25280Y21990D02*
D03*
X14850Y21575D02*
D03*
X13414Y16939D02*
D03*
X15325Y21100D02*
D03*
X26087Y22787D02*
D03*
X24610Y21330D02*
D03*
X22377Y17087D02*
D03*
D117*
X25457Y22167D02*
D03*
X17579Y18856D02*
D03*
X18767Y17523D02*
D03*
X13170Y22680D02*
D03*
X14673Y21398D02*
D03*
X13591Y17116D02*
D03*
X15148Y20923D02*
D03*
X13680Y23200D02*
D03*
X25910Y22610D02*
D03*
X24433Y21153D02*
D03*
X22200Y16910D02*
D03*
X14420Y22300D02*
D03*
D118*
X17854Y14013D02*
D03*
X17034Y14307D02*
D03*
X17854D02*
D03*
X17034Y14013D02*
D03*
D119*
X17994Y14030D02*
D03*
X16894D02*
D03*
D120*
X15687Y22192D02*
D03*
X16217Y12045D02*
D03*
X27955Y16217D02*
D03*
Y23783D02*
D03*
X24313Y22192D02*
D03*
X22192Y15687D02*
D03*
X24313Y17808D02*
D03*
X12045Y23783D02*
D03*
X15687Y17808D02*
D03*
X17808Y15687D02*
D03*
X23783Y12045D02*
D03*
X12045Y16217D02*
D03*
D121*
X17756Y18679D02*
D03*
X18590Y17700D02*
D03*
X12993Y22857D02*
D03*
X13503Y23377D02*
D03*
X14243Y22477D02*
D03*
D122*
X23003Y17573D02*
D03*
X23357Y17927D02*
D03*
X23650Y19860D02*
D03*
Y20360D02*
D03*
D123*
X22127Y18337D02*
D03*
X21950Y18160D02*
D03*
X21773Y17983D02*
D03*
X17443Y16743D02*
D03*
X17267Y16920D02*
D03*
X17090Y17097D02*
D03*
X20125Y16602D02*
D03*
X19875D02*
D03*
X19625D02*
D03*
X28673Y20347D02*
D03*
X28673Y20097D02*
D03*
Y19847D02*
D03*
X18254Y17006D02*
D03*
X18077Y17183D02*
D03*
X17900Y17360D02*
D03*
X17723Y17537D02*
D03*
X17546Y17714D02*
D03*
X17370Y17890D02*
D03*
X17193Y18067D02*
D03*
X16177Y19930D02*
D03*
Y20180D02*
D03*
Y20430D02*
D03*
X22853Y18382D02*
D03*
X22676Y18205D02*
D03*
X22499Y18029D02*
D03*
X22322Y17852D02*
D03*
X22146Y17675D02*
D03*
X21969Y17498D02*
D03*
X21792Y17322D02*
D03*
D124*
X21596Y17806D02*
D03*
X21615Y17145D02*
D03*
D125*
X16913Y17273D02*
D03*
X17016Y18244D02*
D03*
D126*
X20375Y16602D02*
D03*
D127*
X28606Y22324D02*
D03*
X28054Y22876D02*
D03*
D128*
X28673Y20597D02*
D03*
X16177Y19680D02*
D03*
%TF.MD5,79365767905ed98aa83921f1905697f9*%
M02*
