M48
;Layer_Color=9474304
;FILE_FORMAT=4:2
METRIC,LZ
;TYPE=PLATED
T1F00S00C0.30
T2F00S00C0.50
T3F00S00C0.90
T4F00S00C1.00
T5F00S00C1.05
T6F00S00C1.10
T7F00S00C2.50
T8F00S00C3.50
;TYPE=NON_PLATED
T9F00S00C0.60
%
T01
X016Y011
X0162
X0164
X0166
X0168
X017
X0172
X0174
X0176
X0178
X018
X0182
X0184
X0186
X0188
X019
X0191Y0112
X0193
X0195
X0197
X0198Y0114
X0196
X0194
X0192
X019
X0188
X0186
X0187Y0116
X0189
X0191
X019Y0118
X0188
X0189Y0112
X0187
X0185
Y0108
X0187
X0189
X019Y0106
X0188
X0186
X0184
X0182
X018
X0178
X0176
X0174
X0172
X017
X0171Y0108
X0173
X0175
X0177
X0179
X0181
X0183
Y0104
X0185
X0187
X0189
X0188Y0102
X0186
X0181Y0104
X0179
X0177
X0179Y0112
X0173
X0171
X0169
X0167
X0165
X0163
X0161
X0162Y0114
X0164
X0166
X0168
X017
X0172
X0171Y0116
X0169
X0167
X0165
X0163
X0166Y0118
X0168
X017
X0172
X017552Y011679
X01782Y011778
X0169Y0108
X0167
X0165
X0163
X0199Y0112
X0201
X0203
X0205
X0207
X0209
X0211
X0213
X0215
X0217
X0219
X0221
X0223
X0225
X0227
X0229
X0231
X0233
X0235
X0237
X0238Y0114
X0236
X0234
X0232
X023
X0228
X0226
X0224
X0222
X022
X0218
X0216
X0214
X0212
X021
X0208
X0206
X0204
X0202
X02
X0209Y0116
X0211
X0213
X0215
X0217
X0219
X0221
X0223
X0225
X0227
X0229
X0231
X0233
X0235
X0237
X0234Y0118
X0232
X023
X0228
X0226
X0224
X0218
X0216
X0214
X0212
X021
Y011
X0212
X0214
X0216
X0218
X022
X0222
X0224
X0226
X0228
X023
X0232
X0234
X0236
X0238
X0237Y0108
X0235
X0233
X0231
X0229
X0227
X0225
X0223
X0221
X0219
X0217
X0215
X0213
X0211
X0212Y0106
X0214
X0216
X0218
X022
X0222
X0224
X0226
X0228
X023
X0223Y0104
X0221
X0219
X0217
X0215
X0213
X0211
X0212Y0102
X0214
X021Y0106
X024Y011
X0239Y0112
Y0124
Y0128
X024Y013
X0242
X0243Y0132
X0241
X0239
X024Y0134
X0242
X0244
X0245Y0136
X0247
X0248Y0138
X0246
X0247Y014
X0249
X0251
X0252Y0142
X025
X0251Y0144
X0253
X0255
X0256Y0146
X0254
X02542Y01487
X0256Y015
X0258
X026
X0261Y0152
X0263
X0264Y0154
X0262
X026
X0258
X0256
X0257Y0152
X0259
Y0156
X0261
X0263
X0265
X0267
X0268Y0158
X027
X0266
X0264
X0262
X026
X0259Y0148
X0257
X0255Y0152
X0251Y0148
X025Y0146
X0248
X0247Y0144
X0246Y0142
X0244
X0243Y014
X0242Y0138
X024
X0241Y0136
X0243
X0239
Y0144
X02401Y01463
X02386Y01498
X0241Y0152
X0243
X0245
X0246Y0154
X0244
X0242
X02417Y01579
X02408Y01571
X0245Y0156
X02497Y01564
X02437Y01486
X02377Y01504
X0235Y0152
X02333Y01519
X02327Y01512
X0232Y0154
X0234
X0235Y0156
X0231
X0229
X0228Y0154
X022816Y015272
X0229Y01485
X0229Y0144
X0231
X0233
X0235
X0237
X0238Y0142
X0236
X0234
X0232
X023
X0228
X0226
X0224
X0222
X022
X0221Y0144
X0223
X0225
X0227
X0226Y01463
X02202Y01466
X0219Y01459
X0219Y0144
X0215
X0216Y0142
X02139Y014
X02137Y01378
X021237Y013837
X02102Y01376
X02087Y01392
X02071Y01367
X0207Y01355
X02055
X0203Y0132
X0201
X0199
X01985Y01335
X0199Y0128
X0201
X0203
X0205
X0207
X02135Y01278
X0215Y0132
X0217
X0219
X0221
X0223
X0225
X0227
X0228Y0134
X023
X0231Y0136
X0229
X0227
X0225
X0223
X0221
X0219
X022Y0138
X0222
X0224
X0226
X0228
X023
X0232
X0234
X0238
X0237Y0136
X0238Y0134
X0236
X0234
X0235Y0132
X0237
X0238Y013
X0236
X0234
X0232
X023
X0231Y0128
X0233
X0235
X0237
X0238Y0126
X0236
X0234
X0232
X0233Y0124
X0235
X0237
X0234Y0122
X0232
X0233Y012
X0231Y0124
X0226Y0122
X0223Y0124
X0221
X0217
X0218Y0122
X0217Y012
X0223
Y0128
X02276Y01281
X0226Y013
Y0134
X0224
X0222
X022
X0218
X02105Y01316
X0211Y0124
X0212Y0122
X021
X0211Y012
X02105Y01446
X02108Y01474
X0211Y01488
X02098Y01494
X02101Y01512
X02095Y01519
X02066
X0204Y015
X0202
X0203Y0148
X0205
X0206Y0146
X0204
X0207Y0144
X0201
X0199
X0199Y0149
X02008Y01557
X02007Y01582
X01995Y01572
X02053Y01574
X02041Y0154
X02111Y01542
X021272Y015426
X0214Y01542
X0216Y0154
X02153Y01525
X0215Y0156
X0216Y0158
X021
X02129Y01493
Y01481
X02124Y01465
X02156Y01485
X02199
X0232Y01462
X02361
X0233Y0132
X02021Y01385
X02Y0138
X01943Y01364
X01915Y01384
X01891Y01363
X0191Y0132
X0193
X0195
X0197
Y0128
X0195
X0193
X0189
X0187
X0188Y013
X019
Y0126
X0189Y0124
X019Y0122
X0189Y012
X01855Y01197
X01858Y01229
X01844Y01234
X01828
X017825Y012286
X017565Y012276
X0172Y0122
X017
X0168
X0166
X0167Y0124
X0169
X0171
X0172Y0126
X017
X0168
X0166
X0164
X0162
X0163Y0128
X0165
X0167
X0169
X0171
X0173
X0174Y013
X0172
X017
X0168
X0166
X0164
X0162
X016
X0161Y0132
X0163
X0165
X0167
X0169
X0171
X0173
X0175
X0176Y0134
X0174
X0172
X017
X0168
X0166
X0164
X0162
X016
X0161Y0136
X0159
Y0132
X0161Y0128
Y0124
X0163
X0165
X0167Y012
X0169
X0171
X0178Y013
X0182
X0184
X0185Y0132
X01822Y0128
X018Y0134
Y0142
X0182
X0183Y0144
X0185
X0187
X018712Y014232
X01877Y01417
X019Y0142
X01892Y01455
X0189Y01478
X01867Y01466
X0184Y0146
X0182
X018
X0178
X0176
X0174
X0172
X017
X0168
X0166
X0167Y0144
X0169
X0168Y0142
X0166
X0165Y0144
X0163Y014
X0159Y0144
X015875Y0155
X016179Y015478
X016182Y015763
X016118Y015827
X016274Y015854
X0166Y0158
X0168
X0165Y0156
X0166Y0154
X0172
X01727Y01559
X01742Y01545
X0175Y0148
X0177
X0179
X0181
X0183
X0181Y0144
X017534Y014136
X017369Y01416
X0173Y0148
X0171
X0169
X0183Y0156
X01857Y015384
X0186Y0158
X0188
X01902Y01547
X019279Y015526
X01929Y0156
X019302Y015674
X019311Y015751
X01939Y01541
X01942Y015285
X01964Y01506
X01972Y0151
X0195Y0148
X0194Y0146
X0195Y0144
X01964Y01434
X0197Y01439
X0198Y0146
X0193Y0144
X018481Y013863
X01974Y01572
X01571Y01569
X0158Y0156
Y01537
X01558Y01549
X0155Y0148
X0153Y0144
X0151
X0149
X0147
X0145
X0146Y0146
X0148
X0147Y0148
X0145
X0143
X0141
X0142Y015
X0144
X0146
X0145Y0152
X0143
X0141
X0139
X0137
X0138Y0154
X014
X0142
X0141Y0156
X0139
X0137
X0135
X0133
X0134Y0158
X0136
X0138
X0136Y0154
X014Y015
X0144Y0146
X0148Y0142
X015
X0152
X0154
X0155Y014
X0157
X0158Y0138
X0156
X0154
X0152
X0153Y014
X0151
X0149
X0153Y0136
X0155
X0157
X0158Y0134
X0156
X0157Y0132
X0158Y013
X0151Y0152
X0147Y0156
X0132Y0158
X013
X0116Y0162
X0114
X0112
X011
X0111Y0164
X0113
X0115
X0117
X0118Y0166
X0116
X0114
X0112
X011
X0108
X0109Y0168
X0111
X0113
X0115
X0117
X0119
X0118Y017
X0116
X0114
X0112
X011
X0108
X0106
X0107Y0172
X0109
X0111
X0113
X0115
X0117
X0119
X0118Y0174
X0116
X0114
X0112
X011
X0108
X0106
X0107Y0176
X0109
X0111
X0113
X0115
X0117
X0119
X0118Y0178
X0116
X0114
X0112
X011
X0108
X0106
X0104
X0105Y018
X0107
X0109
X0111
X0113
X0115
X0117
Y0184
X0119
X0118Y0186
X0116
X0117Y0188
X0113
X0111
X0109
X0107
X0105
X0103
X0104Y019
X0106
X0108
X011
X0112
X0113Y0192
X0111
X0109
X0107
X0105
X0103
X0104Y0194
X0106
X0108
X011
X0109Y0196
X0107
X0105
X0103
X0104Y0198
X0106
X0108
X011
X0117Y0196
X0118Y0194
X0116
X0119Y0192
X0112Y0186
X011
X0108
X0106
X0104
X0102
X0103Y0184
X0105
X0107
X0109
X0111
X0113
X0114Y0182
X0112
X011
X0108
X0106
X0104
X0103Y018
X0105Y0176
Y0172
X0107Y0168
X0109Y0164
X0111Y016
X0102Y019
Y0194
X0121Y0196
X0123
X0127
X0131
X0133
X0135
X0134Y0198
X0132
Y0194
X0134
X0135Y0192
X0133
X0134Y019
X0136
X0138
X0137Y0188
X0135
X0133
X0131
X01292Y01881
X01279
Y01835
X01292
X01284Y01825
X01302Y01814
X0133Y018
X0134Y0178
X0138
X0139Y018
X0137
X0138Y0182
X014Y0186
X0142
X0144
X01455Y01865
X0147Y01864
X01482Y01865
X015Y0186
X0154
X0153Y0184
X0154Y0182
X0156
X0158
X0157Y0184
Y0188
X01586Y01906
X015722Y019342
X0157Y0196
X0158Y0198
X0151Y0196
X014573Y019648
X0147Y0192
X0148Y019
X015
X0144
X0141Y0188
X0142Y019365
X0132Y019
Y0186
X0124
X0123Y0188
X0124Y019
X0122
X012
X0121Y0192
X0123
X0121Y0184
X0122Y0182
X012
X0121Y018
X0123
X0125
X0124Y0178
X0125Y0176
Y0172
X0123
X0121
X0122Y0174
X012
X0121Y0176
X0122Y017
X0124
X0126
X0127Y0168
X0129
X013Y0166
X0128
X0126
X0124
X0122
X012
X0121Y0168
X0123
X0125
Y0164
X0127
X0129
X0131
X0133
X0134Y0162
X0132
X013
X0128
X0126
X0129Y016
X0131
X0133
X0135
X0137
X0143
X01464Y01636
X01476
X01518Y01622
X015275Y016125
X0153Y015975
X0151Y016
Y0168
X015Y01702
X0144Y017
X0142
X0143Y0168
X0144Y0166
X0138
X0139Y0164
X0135Y0168
X0131Y0172
X01284Y0173
X0138Y0174
X0142Y0178
X0143Y018
X01458Y01832
X0147Y01821
X01481Y01832
X01509Y01814
X0151Y018
X01508Y01763
X0154Y0174
X0156
X0155Y0172
X0158Y016885
X01569Y016458
X015755Y016393
X015598Y016366
X015663Y016301
X015528Y016436
X01562Y016528
X012Y017
X01617Y0171
X01611Y01741
X01623Y01755
X01634Y01766
X01623Y01794
X01611Y01806
X016Y0186
X0161Y0188
X0162Y019
X016
X0161Y0192
X0159
X016Y0194
X0162
X0166
X0168
X0167Y0192
X0168Y019
X0166
X0167Y0188
X0166Y0186
X01719Y01843
X0175Y0184
X0177
X0179
X0181
X0183
X0184Y0182
X0182
X018
X0178
X0176
X0179Y018
X0181
X0183
X0185
X0187
X0188Y0178
X019
X0192
X0193Y0176
X0191
X0192Y0174
X0194
X019
X0186
X01865Y01702
X01844Y01694
X01855Y01651
X018539Y016436
X01853Y01636
X01852Y01628
X0189Y0164
X019Y0162
X0192
X0198
X0194Y0166
X01818Y01647
X0176Y0166
X0173Y0164
X0171
X0172Y0162
X017
X0169Y016
X017Y0166
X0166
X016305Y01634
X016139Y015989
X01621Y015919
X016047Y015897
X0173Y0172
X0172Y0174
X0171Y0176
X0169
X017Y0178
X0169Y018
X018Y0178
X0182
X0184
X0183Y0176
X018Y0186
X0179Y0188
X0178Y019
X0177Y0192
X0175
X0173
X0174Y0194
X0176
X0172
X0171Y0196
X0172Y0198
Y019
X0174
X0208Y0178
X021
X0209Y0176
X0207
X0206Y0174
X0209Y0172
X0211
X0212Y0174
X0213Y0176
X0215
X0213Y018
X0217Y0184
X022Y0186
X0222
X0224
X0226
X0228
X0227Y0188
X0225
X0223
X0221
X0222Y019
X0224
X0226
X0228
X0227Y0192
X0225
X0223
X0224Y0194
X0226
X0228
Y0198
X0234
X0235Y0196
X0233
X0234Y0194
X0233Y0192
Y0184
Y0176
X0237
X02348Y0169
X023777Y01614
X0231Y016
X0229
X023Y0162
X0228
X0229Y0164
X0225
X0222Y0166
X02156Y01647
X0214Y0162
X021
Y0166
X0206Y01647
X02051
X02027Y01606
X02159Y01592
X0219Y016
X0214Y017
X02256Y01708
X0228Y0174
X0239Y0176
Y0184
X0243
X0245
X0246Y0182
X0244
X0242
X025
X0252
X0251Y0184
Y0188
X0253
X0249
X02516Y01923
X02523Y01952
X0256Y0194
X0258
X0259Y0196
X0257
X0258Y0198
X0256
X0262
X026354Y019666
X026335Y019562
X0264Y0194
X0266
X0267Y0192
X0269
X0271
X0275
X0277
X0276Y0182
X0274
X0272
X0273Y018
X0275
X0276Y0174
X0277Y0172
X0275
X0276Y017
X0274
X0272
X0273Y0168
X0275
X0277
X0276Y0166
X0274
X0272
X027
X0268
X0269Y0164
X0271
X0273
X0275
X0274Y0162
X0272
X027
X0268
X0266
X0264
X0265Y016
X0267
X0269
X0271
Y0168
X02695Y01705
X0268Y0174
X0266
X0264
X0262
X026
X0258
X0256
X0257Y0176
X0259
X0261
X0263
X0265
Y0172
X0263
X0261
X0259
X0257
X0258Y017
X026
X0262
X0264
X0263Y0168
X0261
X0259
X0257
X0258Y0166
X026
X0259Y0164
X0257
X0256Y0166
Y017
X0252
X025
X0251Y0172
X0252Y0174
X025
X0251Y0176
X0252Y0178
X025
X0251Y018
X0257
X0259
X026Y0178
X0258
X0256
Y0182
X0264
X0263Y0184
X0264Y0186
X02625Y01889
X02626Y01908
X0265Y0192
X02583Y018884
X02564Y01907
X02556Y019
X02491Y0197
X0242Y019
X0239Y0192
Y0188
X02471Y01715
X02442Y016774
X024356Y01671
X024286Y01664
X024448Y016618
X024512Y016682
X024378Y016548
X024578Y016222
X02467Y01631
X02476Y0164
X0251Y0164
X0252Y0166
X0251Y0168
Y016
X0256Y0162
X02604Y01615
X0263Y016
X0267Y0164
X0271Y0176
X0263Y018
X02435Y01601
X02427Y01588
X024004Y016182
X023939Y016118
X023869Y016048
X023847Y01621
X023912Y016274
X0278Y0166
X028
X0282
X0284
X0286
X0288
X029
X0292
X0293Y0168
X0291
X0289
X0287
X0285
X0283
X0281
X0279
X028Y017
X0282
X0284
X0286
X0288
X029
X0292
X0294
X0295Y0172
X0293
X0291
X0289
X0287
X0285
X0283
X0281
X0279
X0278Y017
X028Y0178
X0282
X0284
X0285Y018
X0283
X0284Y0182
X02817Y01827
X0281Y0188
X0279
X02835Y01883
X0289Y0188
X0291
X0293
X0295
X0297
X0298Y019
X0296
X0294
X0292
X029
X0291Y0192
X0293
X0295
X0297
X0298Y0194
X0296
X0294
X0292
X029
X0288
X0289Y0196
X0291
X0293
X0295
X0297
X0296Y0198
X0294
X0292
X029
X0287Y0196
X02834Y0197
X02842Y01981
X0281Y0196
X0279
X028Y0194
X0289Y0192
X029Y0186
X0292
X0294
X0296
X0298
X0297Y0184
X0295
X0293
X0291
X0289
X029Y0182
X0292
X0294
X0296
X0297Y018
X0295
X0293
X0291
X0289
X029Y0178
X0292
X0294
X0296
X0295Y0176
X0293
X0291
X0289
X0287
X0285
X0286Y0174
X0288
X029
X0292
X0294
X0288Y0178
Y0182
Y0186
X0289Y0164
X0291
X029Y0162
X0288
X0286
X0284
X0285Y0164
X0287
X0283
X0289Y016
Y02
X0291
X0293
X0295
X0296Y0202
X0294
X0292
X029
X0288
X0289Y0204
X0291
X0293
X0295
X0297
X0298Y0206
X0296
X0294
X0292
X029
X0291Y0208
X0293
X0295
X0297
X0298Y021
X0296
X0294
X0292
X029
X0288
X0289Y0208
X0287
X028Y021
X02802Y02149
X02796Y0221
X02808Y0223
X02816Y02009
X0281Y02
X02842Y01996
X0275Y0204
X0273
X0276Y0206
X0271Y0208
X02691Y02111
X02682Y02102
X02672Y02094
X026656Y021401
X026592Y021337
X026522Y021267
X0265Y021429
X026564Y021493
X02643Y021359
X0262Y021
X0263Y0208
X0261
X0257Y0204
X0253
X0251
X0253Y0208
Y0212
Y0216
X0255
X0257
X02589Y02162
X0259Y022
X0258Y0222
X0259Y0224
X0257
X0255
X0253
X0251
X0249
X0247
X0248Y0226
X025
X0252
X0254
X0256
X0257Y0228
X0255
X0253
X0251
X0249
X0252Y023
X0254
X0256
X0258
X026
X0259Y0232
X0257
X0255
X0253
X0256Y0234
X0263Y0228
X02647Y02233
X02664Y02234
X02642Y02212
X026981Y021909
X027045Y021974
X027072Y021818
X027137Y021882
X027002Y021747
X02691Y021839
X02746Y02191
X02739Y0216
X02731Y02149
X0272Y02141
Y02132
X02776Y02142
X02717Y02221
X0256Y0218
X0254
X025
X0248
X0246
X0244
X0242
X024
X0241Y0216
X0243
X0245
X0247
X0248Y0214
X025
Y021
X0248
X0249Y0208
X0247
X0243
X0241
X0239
X024Y021
X0242
X0241Y0212
X0239
X024Y0214
X0242
X0244
X0239Y0216
X024Y0206
X0247Y022
X0249
X025Y0222
X0252
X0248
X02648Y02025
X026554Y020239
X02678Y02038
X0238Y0206
X0237Y0208
X0235
X0233
X0231
X0229
X023Y0206
X0232
X0234
X0233Y0204
X0231
X0229
X023Y0202
X0232
X0228
X0229Y02
X0228Y0206
X0232Y021
X0234
X0236
X0238
X0237Y0212
X0235
X0233
X0236Y0214
X0238
X0237Y0216
X0171Y0208
X0169
X0167
X0165
X0163
X0161
X0159
X016Y021
X0162
X0164
X0166
X0168
X0167Y0212
X0165
X0163
X0161
X0159
X016Y0214
X0162
X0164
X0163Y0216
X0161
X0159
X016Y0218
Y0206
X0162
X0164
X0166
X0168
X017
X0172
X0171Y0204
X0172Y0202
X0171Y02
X0169
X0165
Y0204
X0159
X0156Y0202
X0154
X0151Y02
X0148Y0202
X0147Y0204
X0145
X0142Y0202
X0138
X0136
X0132
X0133Y02
X0131
X0129
Y0204
X0131
Y0208
X0133
X0134Y021
X013182Y021273
X0129Y0212
X0127
X0125
X0126Y0214
X0128
Y021
X0126
X0124
X0122
X0123Y0208
X0125
X0127
X0128Y0206
X0126
X0124
X0122
X012
X0121Y0208
Y0204
X0123
X0125
X0127
X0126Y0202
X0124
X0122
X012
X0122Y0214
X0124
X0125Y022
X0127
X0133
X0135
X0136Y0226
X0138
X014
X0141Y0228
X0143
X0145
X0147
X0149
X0151
X0152Y0226
X015
X0148
X0146
X0144
Y023
X0146
X0148
X0147Y0232
X0145
X0143
X0141
X0139
X014Y0234
X0142
X0144
X0143Y0236
X0141
X0139
X0137
X0135
X0133
X0131
X0129
X0127
X0125
X0126Y0238
X0128
X013
X0132
X0134
X0136
X0138
X014
X0138Y0234
Y023
X014
X0142
X0139Y0228
X0137
X0135
X0133
X0134Y0226
X0136Y023
X0132Y0234
X013
X0128
X0126
X0124
X0122
X012
Y023
X0122
X0124
X0126
X0128
X0127Y0228
X0125
X0123
X0121
X01219Y02241
X0126Y0226
X0128
X0139Y0224
X0147
X0149
X0151
X0153
X0152Y0222
X015
X0148
X0146
X0147Y022
X0149
X0151
X0153
X0154Y0218
X0156
X0158
X0157Y0216
X0155
X0153
X0151
X0152Y0218
X015
X0148
X0146
X0144
X0142
X0145Y022
Y0212
X015Y0214
X0152
X0154
X0156
X0158
X0157Y0212
X0155
X0158Y021
X0152Y0206
X0139Y0204
X0119
X0118Y0206
X01163Y020662
X0116Y021
X011466Y021016
X0114Y02109
X01132Y02143
Y021557
Y021682
X011684Y021711
Y02162
Y021521
X011814
Y02162
Y021711
X01181Y022255
Y022354
Y022445
X01168
Y022354
Y022255
X011296Y022291
Y022418
X01117Y02216
X011Y0222
X0108
X0106
X0104
X0105Y0224
X0107
X0109
X011Y0226
X0108
X0106
X0107Y0228
X0109
X0111
X0112Y023
X0114
X0115Y0232
X0117
X01186Y02314
X0118Y0234
X0116
X0114
X0112
X011
X0108
X0109Y0236
X0111
X0113
X0115
X0117
X0116Y0238
X0114
X0112
X011
X0111Y0232
X0113
X0109
X0107
X0108Y023
X011
X0106
X0105Y0228
Y022
X0107
X0109
X011Y0218
X0108
X0106
X0104
X0105Y0216
X0107
X0109
X011Y0214
X0108
X0106
X0104
X0102
X0103Y0216
Y022
Y0212
X0105
X0107
X0109
X0108Y021
X0106
X0104
X0102
X0103Y0208
X0105
X0107
X0109
X011Y0206
X0108
X0106
X0104
X0102
X0103Y0204
X0105
X0107
X0109
X011Y0202
X0108
X0106
X0104
X0105Y02
X0107
X0109
X0118Y0202
Y0226
X0111Y024
X0129
X0131
X0133
X0135
X0137
X0139
X0136Y0242
X0134
X0132
X013
X0133Y0244
X0135
T02
X01645Y01686
X01637Y01747
X019624Y017144
X02271Y01706
X023293Y018543
X023704Y019493
X023777Y019426
X023848Y019356
X028606Y022324
X028054Y022876
X01335Y02217
X01118Y02055
T03
X021923Y012101
X022177
X022431
Y012601
X022177
X021923
X018218Y01323
X017964
X01771
X013044Y01933
X01279Y01933
X012536Y01933
X012538Y01984
X012792
X013046
T04
X017443Y016743
X017267Y01692
X01709Y017097
X016913Y017273
X0179Y01736
X018077Y017183
X018254Y017006
X017723Y017537
X017546Y017714
X01737Y01789
X017193Y018067
X017016Y018244
X016177Y01968
X019625Y016602
X019875
X020125
X020375
X021615Y017145
X021792Y017322
X021969Y017498
X022146Y017675
X022322Y017852
X022499Y018029
X022676Y018205
X022853Y018382
X022127Y018337
X02195Y01816
X021773Y017983
X021596Y017806
X028673Y019847
Y020097
X028673Y020347
X028673Y020597
X016177Y02043
Y02018
Y01993
T05
X013414Y016939
X013591Y017116
X018767Y017523
X01859Y0177
X017756Y018679
X017579Y018856
X022377Y017087
X0222Y01691
X024433Y021153
X02461Y02133
X02528Y02199
X025457Y022167
X02591Y02261
X026087Y022787
X01442Y0223
X014243Y022477
X01317Y02268
X012993Y022857
X01368Y0232
X013503Y023377
X014673Y021398
X01485Y021575
X015148Y020923
X015325Y0211
T06
X017034Y014013
Y014307
X017854
Y014013
T07
X023003Y017573
X023357Y017927
X02365Y01986
Y02036
T08
X023783Y012045
X022192Y015687
X017808
X016217Y012045
X015687Y017808
X012045Y016217
X024313Y017808
X027955Y016217
Y023783
X024313Y022192
X015687
X012045Y023783
T09
X016894Y01403
X017994
M30
