M48
;Layer_Color=9474304
;FILE_FORMAT=4:2
METRIC,LZ
;TYPE=PLATED
T1F00S00C0.30
T2F00S00C0.85
T3F00S00C1.00
T4F00S00C3.50
%
T01
X021Y0156
X019
X0192Y016
X0194
Y0164
X0196
X0198
X01935Y0167
X01908Y01678
X0188Y0164
X0187Y0162
X0185
X018Y0164
X0181Y0166
Y017
X0183
X018Y0172
X0178
X0179Y0174
X0177
X01765Y0178
X0174Y0176
X017
X0169Y0174
X0166Y0172
X0165Y0178
X0163Y0182
X0162Y0184
X0166
X0168
X017
X0171Y0182
X0173
X0169
X0168Y0188
X0166
X0165Y019
X01684Y019
X0167Y0194
X01653Y01938
X0166Y0196
X0168
X0173Y0198
X017365Y019431
X0177Y0194
X0178Y0192
X0177Y019
Y0186
X0178Y0184
X0181Y0186
X018Y0188
X0181Y0182
X0182Y018
X0185Y0182
Y0178
X0186Y0176
X01862Y01721
X01944Y01719
X0194Y0176
X0196
X0198
X0192
X0191Y0178
X0189
X0188Y018
X0177Y0166
X0174Y0168
X016Y0192
Y0196
X0161Y0198
X0159
X02Y0176
X0202
X0204
X0206
X0208
X021
X0211Y0178
X0213
X0214Y018
X0212
X0215Y0182
X0217
X0218Y0184
X0219Y0186
X0221
X0222Y0188
X022
X0223Y019
X0225
X0226Y0192
X0224
X0222
X0223Y0194
X0225
X0227
X0229
X023Y0196
X0228
X0226
X0224
X0225Y0198
X0227
X0229
X0231
X0233
X0235
Y0194
X0237
X0238Y0192
X0234
X0232
X0233Y0194
Y019
X0235
Y0186
X0237
X0238Y0184
X0236Y018
X0235Y0178
X0234Y0172
X0231Y0174
X023Y018
X0228
X0226
X0224
X0222
X022
X02184Y01782
X0218Y0176
X022
X0222
X0224
X0226
X0223Y0174
X0221
X0219
X0217
X0215
X0216Y0172
X0218
X022
X0222
X0219Y017
X0217
X0215
X0213
X02111Y01701
X0211Y01676
X0209Y0166
Y0162
X0207
X0208Y016
X021
X0215Y0162
X0214Y0164
Y0172
X0209Y0174
X0207
X0205
X020173Y01725
X02007Y01719
X0201Y017
X0199
X02Y0168
X02035Y01653
X0204Y0164
X0201Y0162
X01996Y01596
X0221Y0166
X0223
X0226Y0168
Y0184
X0228
X023
X0232
X0233Y0186
X0231
X0229
X0227
X0224Y0184
X02225Y01825
X0229Y019
X0231
X0209Y0178
X0239Y0186
X024Y0192
X0241Y0194
X0239
X024Y02
X0241Y0202
X0239
X024Y0204
Y0208
X0239Y021
X0237
X0235
X0233
X0231
X0232Y0212
X0234
Y0216
X0232
X023
X0228
X0226
X02264Y02138
X0223Y0214
X0221
X0219
X022Y0216
X0218
X0219Y0218
X0217
X0215
X0216Y022
X0214
X0212
X0213Y0222
X0215
X0211
X0209
X021Y0224
X0212
X0211Y0226
X0209
X0207
X0205
X0206Y0224
X0208
X0204
X0202
X02
X02007Y02268
X02015Y02274
X0201Y023
X02Y0232
Y0236
X0205Y0238
X02069Y02331
X02094Y02323
X0213Y023
X0215
X0217
X0219
X022Y0228
X0222
X0223Y0226
X0221
X0219
X0217
X0218Y0228
X0216
X022Y0224
X02194Y02221
X0222Y022
X0224
X0226
X0228
X023
X0231Y0218
X0229
X0227
X0225
X0223
X0224Y0212
X0222
X022
X0223Y021
X0225
X0227
X0228Y0208
X0226
X0224
X0222
X0223Y0206
X0225
X0227
X0229
X0231
X0233
X0235
X0236Y0204
X0234
X0232
X023
X0228
X0226
X0224
X0225Y0202
X0227
X0229
X0231
X0233
X0235
X0237
X0238Y02
X0236
X0234
X0232
X023
X0228
X0226
X0224
X023Y0212
X0235Y0218
X0237
X0238Y0216
X0236Y022
X0235Y0222
X0234Y0228
X0231Y0226
X0226Y0232
X0223Y0234
X0219
X022Y0236
X0215Y0238
X0213
X0212Y0236
X0198
X0196
X0197Y0238
X01939Y02336
X0192Y02329
X0189Y0234
X0187
X0186Y0236
X0185Y0238
X0184Y0232
X0182Y0228
X018
X0178
X0179Y0226
X0177
X0178Y0224
X0176
X0174
Y022
X0172
X017
Y0216
X0172
X0176
X0181Y0214
X018Y0212
X0177Y021
X0178Y0208
X0177Y0206
X01741Y02045
X01743Y02005
X01746Y01993
X0168Y02
X0166
X01671Y02025
Y02051
X0168Y0208
X0165Y021
Y0214
X0167
X0169
X0168Y0216
X0162
X0163Y0214
X0161
X0162Y0208
X016
X0161Y0206
X0159
X016Y02
X0172Y0212
X018Y022
X01824Y02186
X0185Y0218
X0188Y022
X0189Y0222
X0191
X0192Y0224
X0194
X0196
X0198
X01965Y0226
X01884Y02279
X0184Y0224
X0177Y0234
X0174Y0232
X0169Y0226
X0166Y0228
X0165Y0222
X0164Y022
X019Y024
X0192
X0196
X0198
X019Y0244
X02037Y02414
X0206Y024
X0208
X021Y0244
T02
X02Y0156
X020254
X020609Y015635
X020858Y015685
X021108Y015734
X021449Y015838
X019746Y0156
X019391Y015635
X019142Y015685
X018892Y015734
X018551Y015838
X015838Y018551
X015734Y018892
X015685Y019142
X015635Y019391
X0156Y019746
X015935Y018316
X016032Y018082
X0162Y017767
X016342Y017555
X016483Y017344
X016709Y017068
X016889Y016889
X017068Y016709
X017344Y016483
X017555Y016342
X017767Y0162
X018082Y016032
X018316Y015935
X021684
X021918Y016032
X022233Y0162
X022445Y016342
X022656Y016483
X022932Y016709
X023111Y016889
X023291Y017068
X023517Y017344
X023658Y017555
X0238Y017767
X023968Y018082
X024065Y018316
X024162Y018551
X024266Y018892
X024315Y019142
X024365Y019391
X0244Y019746
Y02
Y020254
X024365Y020609
X024315Y020858
X024266Y021108
X024162Y021449
X024065Y021684
X023968Y021918
X0238Y022233
X023658Y022445
X023517Y022656
X023291Y022932
X023111Y023111
X022932Y023291
X022656Y023517
X022445Y023658
X022233Y0238
X017767
X017555Y023658
X017344Y023517
X017068Y023291
X016889Y023111
X016709Y022932
X016483Y022656
X016342Y022445
X0162Y022233
X016032Y021918
X015935Y021684
X015838Y021449
X015734Y021108
X015685Y020858
X015635Y020609
X0156Y020254
Y02
X018082Y023968
X018316Y024065
X018551Y024162
X018892Y024266
X019142Y024315
X019391Y024365
X019746Y0244
X02
X020254
X020609Y024365
X020858Y024315
X021108Y024266
X021449Y024162
X021684Y024065
X021918Y023968
T03
X0171Y019125
X0171Y019375
X0171Y019625
X0171Y019875
Y020125
Y020375
Y020625
Y020875
T04
X017242Y017242
X022758Y017242
X022758Y022758
X017242Y022758
M30
