M48
;Layer_Color=9474304
;FILE_FORMAT=2:5
INCH,LZ
;TYPE=PLATED
T1F00S00C0.01181
T2F00S00C0.03346
T3F00S00C0.03937
T4F00S00C0.13780
%
T01
X0826772Y0614174
X0748032
X0755906Y0629922
X076378
Y064567
X0771654
X0779528
X0761811Y065748
X0751181Y066063
X0740158Y064567
X0736221Y0637796
X0728347
X0708662Y064567
X0712599Y0653544
Y0669292
X0720473
X0708662Y0677166
X0700788
X0704725Y068504
X0696851
X0694882Y0700787
X068504Y0692914
X0669292
X0665355Y068504
X0653544Y0677166
X0649607Y0700788
X0641733Y0716536
X0637796Y072441
X0653544
X0661418
X0669292
X0673229Y0716536
X0681103
X0665355
X0661418Y0740158
X0653544
X0649607Y0748032
X0662992Y0748032
X0657481Y076378
X0650787Y0762992
X0653544Y0771654
X0661418
X0681103Y0779528
X0683661Y0765002
X0696851Y076378
X0700788Y0755906
X0696851Y0748032
Y0732284
X0700788Y072441
X0712599Y0732284
X0708662Y0740158
X0712599Y0716536
X0716536Y0708662
X0728347Y0716536
Y0700788
X0732284Y0692914
X0733071Y0677559
X0765354Y0676772
X076378Y0692914
X0771654
X0779528
X0755906
X0751969Y0700788
X0744095
X0740158Y0708662
X0696851Y0653544
X068504Y0661418
X0629922Y0755906
Y0771654
X0633859Y0779528
X0625985
X0787402Y0692914
X0795276
X080315
X0811024
X0818898
X0826772
X0830709Y0700788
X0838583
X084252Y0708662
X0834646
X0846457Y0716536
X0854331
X0858268Y072441
X0862205Y0732284
X0870079
X0874016Y0740158
X0866142
X0877953Y0748032
X0885827
X0889764Y0755906
X088189
X0874016
X0877953Y076378
X0885827
X0893701
X0901575
X0905512Y0771654
X0897638
X0889764
X088189
X0885827Y0779528
X0893701
X0901575
X0909449
X0917323
X0925197
Y076378
X0933071
X0937008Y0755906
X092126
X0913386
X0917323Y076378
Y0748032
X0925197
Y0732284
X0933071
X0937008Y072441
X0929134Y0708662
X0925197Y0700788
X092126Y0677166
X0909449Y068504
X0905512Y0708662
X0897638
X0889764
X088189
X0874016
X0866142
X0859842Y0701575
X0858268Y0692914
X0866142
X0874016
X088189
X0889764
X0877953Y068504
X0870079
X0862205
X0854331
X0846457
X0850394Y0677166
X0858268
X0866142
X0874016
X0862205Y0669292
X0854331
X0846457
X0838583
X0831102Y0669685
X0830709Y0659842
X0822835Y0653544
Y0637796
X0814961
X0818898Y0629922
X0826772
X0846457Y0637796
X084252Y064567
Y0677166
X0822835Y068504
X0814961
X0807087
X0794229Y0679132
X0790158Y0676769
X0791339Y0669292
X0783465
X0787402Y0661418
X0801181Y0650787
X080315Y064567
X0791339Y0637796
X0785827Y0628346
X0870079Y0653544
X0877953
X0889764Y0661418
Y072441
X0897638
X0905512
X0913386
X0917323Y0732284
X0909449
X0901575
X0893701
X088189Y072441
X0875984Y0718504
X0901575Y0748032
X0909449
X0822835Y0700788
X0940945Y0732284
X0944882Y0755906
X0948819Y076378
X0940945
X0944882Y0787402
X0948819Y0795276
X0940945
X0944882Y080315
Y0818898
X0940945Y0826772
X0933071
X0925197
X0917323
X0909449
X0913386Y0834646
X092126
Y0850394
X0913386
X0905512
X0897638
X0889764
X0891339Y0841732
X0877953Y084252
X0870079
X0862205
X0866142Y0850394
X0858268
X0862205Y0858268
X0854331
X0846457
X0850394Y0866142
X084252
X0834646
X0838583Y0874016
X0846457
X0830709
X0822835
X0826772Y088189
X0834646
X0830709Y0889764
X0822835
X0814961
X0807087
X0811024Y088189
X0818898
X080315
X0795276
X0787402
X0790158Y0892913
X0793307Y0895276
X0791339Y0905512
X0787402Y0913386
Y0929134
X0807087Y0937008
X0814567Y0917717
X0824409Y0914567
X0838583Y0905512
X0846457
X0854331
X0862205
X0866142Y0897638
X0874016
X0877953Y0889764
X0870079
X0862205
X0854331
X0858268Y0897638
X0850394
X0866142Y088189
X086378Y0874409
X0874016Y0866142
X088189
X0889764
X0897638
X0905512
X0909449Y0858268
X0901575
X0893701
X0885827
X0877953
X088189Y0834646
X0874016
X0866142
X0877953Y0826772
X0885827
X0893701
X0897638Y0818898
X0889764
X088189
X0874016
X0877953Y0811024
X0885827
X0893701
X0901575
X0909449
X0917323
X0925197
X0929134Y080315
X092126
X0913386
X0905512
X0897638
X0889764
X088189
X0885827Y0795276
X0893701
X0901575
X0909449
X0917323
X0925197
X0933071
X0937008Y0787402
X0929134
X092126
X0913386
X0905512
X0897638
X0889764
X088189
X0905512Y0834646
X0925197Y0858268
X0933071
X0937008Y0850394
X0929134Y0866142
X0925197Y0874016
X092126Y0897638
X0909449Y0889764
X0889764Y0913386
X0877953Y092126
X0862205
X0866142Y0929134
X0846457Y0937008
X0838583
X0834646Y0929134
X0779528
X0771654
X0775591Y0937008
X0763386Y0919685
X0755905Y0916929
X0744095Y092126
X0736221
X0732284Y0929134
X0728347Y0937008
X072441Y0913386
X0716536Y0897638
X0708662
X0700788
X0704725Y0889764
X0696851
X0700788Y088189
X0692914
X068504
Y0866142
X0677166
X0669292
Y0850394
X0677166
X0692914
X0712599Y084252
X0708662Y0834646
X0696851Y0826772
X0700788Y0818898
X0696851Y0811024
X0685433Y0805118
X0686221Y078937
X0687402Y0784646
X0661418Y0787402
X0653544
X0657874Y0797244
Y080748
X0661418Y0818898
X0649607Y0826772
Y084252
X0657481
X0665355
X0661418Y0850394
X0637796
X0641733Y084252
X0633859
X0637796Y0818898
X0629922
X0633859Y0811024
X0625985
X0629922Y0787402
X0677166Y0834646
X0708662Y0866142
X071811Y086063
X0728347Y0858268
X0740158Y0866142
X0744095Y0874016
X0751969
X0755906Y088189
X076378
X0771654
X0779528
X0773622Y0889764
X0741732Y0897244
X072441Y088189
X0696851Y092126
X068504Y0913386
X0665355Y0889764
X0653544Y0897638
X0649607Y0874016
X064567Y0866142
X0748032Y0944882
X0755906
X0771654
X0779528
X0748032Y096063
X0801968Y0950394
X0811024Y0944882
X0818898
X0826772Y096063
T02
X0787402Y0614173
X0797402
X0811389Y0615551
X0821197Y0617502
X0831005Y0619453
X0844454Y0623533
X0777402Y0614173
X0763414Y0615551
X0753606Y0617502
X0743798Y0619453
X0730349Y0623533
X0623533Y0730349
X0619453Y0743798
X0617502Y0753606
X0615551Y0763414
X0614173Y0777402
X0627359Y072111
X0631186Y0711871
X0637812Y0699476
X0643367Y0691161
X0648923Y0682846
X065784Y0671982
X0664911Y0664911
X0671982Y065784
X0682846Y0648923
X0691161Y0643367
X0699476Y0637812
X0711871Y0631186
X072111Y0627359
X0853693
X0862932Y0631186
X0875327Y0637812
X0883642Y0643367
X0891957Y0648923
X0902821Y065784
X0909892Y0664911
X0916964Y0671982
X092588Y0682846
X0931436Y0691161
X0936991Y0699476
X0943617Y0711871
X0947444Y072111
X095127Y0730349
X095535Y0743798
X0957301Y0753606
X0959252Y0763414
X096063Y0777402
Y0787402
Y0797402
X0959252Y0811389
X0957301Y0821197
X095535Y0831005
X095127Y0844454
X0947444Y0853693
X0943617Y0862932
X0936991Y0875327
X0931436Y0883642
X092588Y0891957
X0916964Y0902821
X0909892Y0909892
X0902821Y0916964
X0891957Y092588
X0883642Y0931436
X0875327Y0936991
X0699476
X0691161Y0931436
X0682846Y092588
X0671982Y0916964
X0664911Y0909892
X065784Y0902821
X0648923Y0891957
X0643367Y0883642
X0637812Y0875327
X0631186Y0862932
X0627359Y0853693
X0623533Y0844454
X0619453Y0831005
X0617502Y0821197
X0615551Y0811389
X0614173Y0797402
Y0787402
X0711871Y0943617
X072111Y0947444
X0730349Y095127
X0743798Y095535
X0753606Y0957301
X0763414Y0959252
X0777402Y096063
X0787402
X0797402
X0811389Y0959252
X0821197Y0957301
X0831005Y095535
X0844454Y095127
X0853693Y0947444
X0862932Y0943617
T03
X0673228Y0752953
X0673228Y0762795
X0673228Y0772638
X0673228Y078248
Y0792323
Y0802165
Y0812008
Y082185
T04
X0678831Y0678829
X0895973Y067883
X0895972Y0895972
X067883Y0895971
M30
